<?xml version="1.0" encoding="UTF-8" standalone="no"?>
<!-- Created with Inkscape (http://www.inkscape.org/) -->

<svg
   xmlns:dc="http://purl.org/dc/elements/1.1/"
   xmlns:cc="http://creativecommons.org/ns#"
   xmlns:rdf="http://www.w3.org/1999/02/22-rdf-syntax-ns#"
   xmlns:svg="http://www.w3.org/2000/svg"
   xmlns="http://www.w3.org/2000/svg"
   xmlns:xlink="http://www.w3.org/1999/xlink"
   xmlns:sodipodi="http://sodipodi.sourceforge.net/DTD/sodipodi-0.dtd"
   xmlns:inkscape="http://www.inkscape.org/namespaces/inkscape"
   width="800"
   height="600"
   id="svg2"
   version="1.1"
   inkscape:version="0.48.2 r9819"
   sodipodi:docname="Demolition.svg"
   inkscape:export-filename="/Users/ld27/Desktop/Projects/LD27/demolition.png"
   inkscape:export-xdpi="90"
   inkscape:export-ydpi="90">
  <defs
     id="defs4">
    <inkscape:path-effect
       effect="envelope"
       id="path-effect4101"
       is_visible="true"
       yy="false"
       xx="true"
       bendpath1="m 364.3004,221.98076 134.35028,0"
       bendpath2="m 498.65068,203.79801 0,308.10157"
       bendpath3="m 364.3004,499.77775 134.35028,0"
       bendpath4="m 364.3004,221.98076 0,277.79699"
       bendpath2-nodetypes="cc" />
    <inkscape:path-effect
       effect="envelope"
       id="path-effect4082"
       is_visible="true"
       yy="false"
       xx="true"
       bendpath1="m 364.3004,221.98076 134.35028,0"
       bendpath2="m 498.65068,221.98076 0,277.79699"
       bendpath3="m 364.3004,499.77775 134.35028,0"
       bendpath4="m 364.3004,221.98076 0,277.79699" />
    <inkscape:path-effect
       effect="envelope"
       id="path-effect4073"
       is_visible="true"
       yy="false"
       xx="true"
       bendpath1="m 364.66507,222.20296 134.35028,0"
       bendpath2="m 499.01535,222.20296 0,277.79699"
       bendpath3="m 364.66507,499.99995 134.35028,0"
       bendpath4="m 364.66507,222.20296 0,277.79699" />
    <inkscape:path-effect
       effect="envelope"
       id="path-effect4070"
       is_visible="true"
       yy="false"
       xx="true"
       bendpath1="m 499.01535,222.20295 219.20309,0"
       bendpath2="m 718.21844,222.20295 0,277.797"
       bendpath3="m 499.01535,499.99995 219.20309,0"
       bendpath4="m 499.01535,204.0202 0,308.10158"
       bendpath4-nodetypes="cc" />
    <inkscape:path-effect
       effect="envelope"
       id="path-effect4068"
       is_visible="true"
       yy="true"
       xx="false"
       bendpath1="m 498.0052,162.60395 220.21324,59.599"
       bendpath2="m 718.21844,222.20295 0,277.797"
       bendpath3="m 494.97474,558.5888 223.2437,-58.58885"
       bendpath4="m 501.03566,162.60395 0,398.00515"
       bendpath4-nodetypes="cc"
       bendpath1-nodetypes="cc"
       bendpath3-nodetypes="cc" />
    <inkscape:path-effect
       effect="sketch"
       id="path-effect4066"
       is_visible="true"
       nbiter_approxstrokes="5"
       strokelength="100"
       strokelength_rdm="0.3;1"
       strokeoverlap="0.3"
       strokeoverlap_rdm="0.3;1"
       ends_tolerance="0.1;1"
       parallel_offset="5;1"
       tremble_size="5;1"
       tremble_frequency="1"
       nbtangents="5"
       tgt_places_rdmness="1;1"
       tgtscale="10"
       tgtlength="100"
       tgtlength_rdm="0.3;1" />
    <inkscape:path-effect
       effect="bend_path"
       id="path-effect4064"
       is_visible="true"
       bendpath="m 499.01535,371.20298 c 73.0677,0.094 146.13539,-4.92154 219.20309,-10.10153"
       prop_scale="1"
       scale_y_rel="false"
       vertical="false"
       bendpath-nodetypes="cc" />
    <inkscape:path-effect
       effect="ruler"
       id="path-effect4062"
       is_visible="true"
       unit="px"
       mark_distance="20"
       mark_length="14"
       minor_mark_length="7"
       major_mark_steps="5"
       shift="0"
       offset="0"
       mark_dir="left"
       border_marks="both" />
    <inkscape:path-effect
       effect="construct_grid"
       id="path-effect4060"
       is_visible="true"
       nr_x="5"
       nr_y="5" />
    <inkscape:path-effect
       effect="envelope"
       id="path-effect4058"
       is_visible="true"
       yy="true"
       xx="false"
       bendpath1="M 553.56359,257.55829 718.21844,222.20295"
       bendpath2="m 718.21844,222.20295 0,277.797"
       bendpath3="m 499.01535,499.99995 219.20309,0"
       bendpath4="m 499.01535,222.20295 0,277.797"
       bendpath1-nodetypes="cc" />
    <inkscape:path-effect
       effect="bend_path"
       id="path-effect4024"
       is_visible="true"
       bendpath="m 499.01535,361.10145 219.20309,0"
       prop_scale="1"
       scale_y_rel="false"
       vertical="false" />
    <inkscape:path-effect
       effect="bend_path"
       id="path-effect4021"
       is_visible="true"
       bendpath="m 499.01535,361.10146 219.20309,0"
       prop_scale="1"
       scale_y_rel="false"
       vertical="false" />
    <inkscape:perspective
       sodipodi:type="inkscape:persp3d"
       inkscape:vp_x="174.75639 : 317.17259 : 1"
       inkscape:vp_y="0 : 1000 : 0"
       inkscape:vp_z="1481.853 : 247.47206 : 1"
       inkscape:persp3d-origin="400 : 200 : 1"
       id="perspective3905" />
  </defs>
  <sodipodi:namedview
     id="base"
     pagecolor="#000000"
     bordercolor="#666666"
     borderopacity="1.0"
     inkscape:pageopacity="0"
     inkscape:pageshadow="2"
     inkscape:zoom="0.9899495"
     inkscape:cx="502.45065"
     inkscape:cy="215.67095"
     inkscape:document-units="px"
     inkscape:current-layer="layer5"
     showgrid="false"
     inkscape:window-width="1205"
     inkscape:window-height="790"
     inkscape:window-x="0"
     inkscape:window-y="146"
     inkscape:window-maximized="0"
     borderlayer="false"
     inkscape:snap-bbox="true"
     inkscape:snap-page="true"
     inkscape:bbox-paths="false"
     inkscape:object-paths="true"
     inkscape:object-nodes="false"
     inkscape:snap-nodes="false"
     inkscape:bbox-nodes="true" />
  <metadata
     id="metadata7">
    <rdf:RDF>
      <cc:Work
         rdf:about="">
        <dc:format>image/svg+xml</dc:format>
        <dc:type
           rdf:resource="http://purl.org/dc/dcmitype/StillImage" />
        <dc:title></dc:title>
      </cc:Work>
    </rdf:RDF>
  </metadata>
  <g
     inkscape:label="Layer 1"
     inkscape:groupmode="layer"
     id="layer1"
     transform="translate(0,-452.36218)"
     style="display:inline"
     sodipodi:insensitive="true">
    <rect
       style="fill:#8ed0ff;fill-opacity:1;fill-rule:evenodd;stroke:#000000;stroke-width:1.07588911px;stroke-linecap:butt;stroke-linejoin:miter;stroke-opacity:1"
       id="rect3004"
       width="800"
       height="600.00006"
       x="6.4170891e-14"
       y="452.36218" />
    <rect
       style="fill:#d5a461;fill-opacity:1"
       id="rect3774"
       width="800"
       height="99.999992"
       x="-3.907985e-14"
       y="952.36212" />
    <image
       style="display:none"
       y="208.44919"
       x="495.49258"
       id="image3084"
       xlink:href="file:///Users/ld27/Documents/1034884792_5c3e6cf278.jpg"
       height="375"
       width="500"
       transform="translate(0,452.36218)" />
    <rect
       style="fill:#f82010;fill-opacity:1"
       id="rect3134"
       width="34"
       height="60"
       x="67.680222"
       y="892.36212" />
  </g>
  <g
     inkscape:groupmode="layer"
     id="layer3"
     inkscape:label="Work"
     style="opacity:0.66355136;display:none">
    <path
       style="fill:#f82010;fill-opacity:1"
       d="m 501.03564,217.15217 214.15234,29.29443 0,245.46707 -214.15234,2.0203 z"
       id="rect3921"
       inkscape:connector-curvature="0"
       sodipodi:nodetypes="ccccc" />
    <path
       style="fill:#f82010;fill-opacity:1"
       d="m 444.46711,236.34509 56.56853,-19.19292 0,276.7818 -56.56853,-15.15229 z"
       id="rect3923"
       inkscape:connector-curvature="0"
       sodipodi:nodetypes="ccccc" />
  </g>
  <g
     inkscape:groupmode="layer"
     id="layer5"
     inkscape:label="Inside"
     style="display:inline">
    <g
       style="fill:#cecece;fill-opacity:1;stroke:#4b4b4b;stroke-width:3;stroke-miterlimit:4;stroke-opacity:1;stroke-dasharray:none;display:inline"
       transform="translate(0,6)"
       id="g4187">
      <path
         style="fill:#cecece;fill-opacity:1;stroke:#4b4b4b;stroke-width:3;stroke-miterlimit:4;stroke-opacity:1;stroke-dasharray:none"
         d="m 498.51633,203.73231 c 73.0677,6.069 146.1354,12.13799 219.20309,18.20699 l 0,277.86599 c -73.06769,4.03253 -146.13539,8.06506 -219.20309,12.09759 z"
         id="path4189"
         inkscape:connector-curvature="0" />
    </g>
    <path
       style="fill:#cecece;fill-opacity:1;stroke:#4b4b4b;stroke-width:3;stroke-miterlimit:4;stroke-opacity:1;stroke-dasharray:none;display:inline"
       d="m 418.69398,228.09045 c 27.27412,-6.06899 54.54824,-12.13798 81.82235,-18.20697 l 0,308.0194 c -27.27411,-4.03254 -54.54823,-8.06508 -81.82235,-12.09761 z"
       id="path4191"
       inkscape:connector-curvature="0" />
    <path
       style="display:inline;fill:#c3c3c3;fill-opacity:1;stroke:#a0a0a0;stroke-opacity:1;stroke-width:1.5;stroke-miterlimit:4;stroke-dasharray:none"
       d="m 530.84119,270.94774 c 9.09137,0.5129 18.18274,1.0258 27.27411,1.5387 l 0,68.71021 c -9.09137,-0.22497 -18.18274,-0.44993 -27.27411,-0.6749 z"
       id="path4197"
       inkscape:connector-curvature="0" />
    <path
       style="display:inline;fill:#c3c3c3;fill-opacity:1;stroke:#a0a0a0;stroke-opacity:1;stroke-width:1.5;stroke-miterlimit:4;stroke-dasharray:none"
       d="m 576.84119,273.54288 c 9.09137,0.5129 18.18274,1.0258 27.27411,1.5387 l 0,67.25334 c -9.09137,-0.22496 -18.18274,-0.44993 -27.27411,-0.6749 z"
       id="path4199"
       inkscape:connector-curvature="0" />
    <path
       style="display:inline;fill:#c3c3c3;fill-opacity:1;stroke:#a0a0a0;stroke-opacity:1;stroke-width:1.5;stroke-miterlimit:4;stroke-dasharray:none"
       d="m 624.84119,276.25085 c 9.09137,0.5129 18.18274,1.0258 27.27411,1.5387 l 0,65.73314 c -9.09137,-0.22497 -18.18274,-0.44994 -27.27411,-0.6749 z"
       id="path4201"
       inkscape:connector-curvature="0" />
    <path
       style="display:inline;fill:#c3c3c3;fill-opacity:1;stroke:#a0a0a0;stroke-opacity:1;stroke-width:1.5;stroke-miterlimit:4;stroke-dasharray:none"
       d="m 666.84119,278.62032 c 9.09137,0.5129 18.18274,1.0258 27.27411,1.5387 l 0,64.40296 c -9.09137,-0.22496 -18.18274,-0.44993 -27.27411,-0.6749 z"
       id="path4203"
       inkscape:connector-curvature="0" />
    <path
       style="display:inline;fill:#c3c3c3;fill-opacity:1;stroke:#a0a0a0;stroke-opacity:1;stroke-width:1.5;stroke-miterlimit:4;stroke-dasharray:none"
       d="m 530.84119,402.13779 c 9.09137,-0.03 18.18274,-0.0601 27.27411,-0.0901 l 0,68.71021 c -9.09137,0.31796 -18.18274,0.63593 -27.27411,0.95389 z"
       id="path4205"
       inkscape:connector-curvature="0" />
    <path
       style="display:inline;fill:#c3c3c3;fill-opacity:1;stroke:#a0a0a0;stroke-opacity:1;stroke-width:1.5;stroke-miterlimit:4;stroke-dasharray:none"
       d="m 576.84119,401.98584 c 9.09137,-0.03 18.18274,-0.0601 27.27411,-0.0901 l 0,67.25335 c -9.09137,0.31797 -18.18274,0.63593 -27.27411,0.95389 z"
       id="path4207"
       inkscape:connector-curvature="0" />
    <path
       style="display:inline;fill:#c3c3c3;fill-opacity:1;stroke:#a0a0a0;stroke-opacity:1;stroke-width:1.5;stroke-miterlimit:4;stroke-dasharray:none"
       d="m 624.84119,401.82728 c 9.09137,-0.03 18.18274,-0.0601 27.27411,-0.0901 l 0,65.73314 c -9.09137,0.31796 -18.18274,0.63592 -27.27411,0.95389 z"
       id="path4209"
       inkscape:connector-curvature="0" />
    <path
       style="display:inline;fill:#c3c3c3;fill-opacity:1;stroke:#a0a0a0;stroke-opacity:1;stroke-width:1.5;stroke-miterlimit:4;stroke-dasharray:none"
       d="m 666.84119,401.68854 c 9.09137,-0.03 18.18274,-0.0601 27.27411,-0.0901 l 0,64.40296 c -9.09137,0.31796 -18.18274,0.63593 -27.27411,0.95389 z"
       id="path4211"
       inkscape:connector-curvature="0" />
    <path
       style="display:inline;fill:#c3c3c3;fill-opacity:1;stroke:#a0a0a0;stroke-opacity:1;stroke-width:1.5;stroke-miterlimit:4;stroke-dasharray:none"
       d="m 438.60264,278.83174 c 5.53685,-0.8352 11.0737,-1.67039 16.61055,-2.50558 l 0,66.7193 c -5.53685,0.36541 -11.0737,0.73082 -16.61055,1.09623 z"
       id="path4213"
       inkscape:connector-curvature="0" />
    <path
       style="display:inline;fill:#c3c3c3;fill-opacity:1;stroke:#a0a0a0;stroke-opacity:1;stroke-width:1.5;stroke-miterlimit:4;stroke-dasharray:none"
       d="m 466.61768,274.60587 c 5.53685,-0.83519 11.0737,-1.67039 16.61055,-2.50558 l 0,69.0963 c -5.53685,0.36541 -11.0737,0.73082 -16.61055,1.09622 z"
       id="path4215"
       inkscape:connector-curvature="0" />
    <path
       style="display:inline;fill:#c3c3c3;fill-opacity:1;stroke:#a0a0a0;stroke-opacity:1;stroke-width:1.5;stroke-miterlimit:4;stroke-dasharray:none"
       d="m 438.60264,401.98141 c 5.53685,0.0506 11.0737,0.10128 16.61055,0.15192 l 0,66.71931 c -5.53685,-0.52043 -11.0737,-1.04085 -16.61055,-1.56128 z"
       id="path4217"
       inkscape:connector-curvature="0" />
    <path
       style="display:inline;fill:#c3c3c3;fill-opacity:1;stroke:#a0a0a0;stroke-opacity:1;stroke-width:1.5;stroke-miterlimit:4;stroke-dasharray:none"
       d="m 466.61768,402.23764 c 5.53685,0.0506 11.0737,0.10128 16.61055,0.15192 l 0,69.0963 c -5.53685,-0.52043 -11.0737,-1.04085 -16.61055,-1.56128 z"
       id="path4219"
       inkscape:connector-curvature="0" />
    <path
       style="fill:none;stroke:#000000;stroke-width:1px;stroke-linecap:butt;stroke-linejoin:miter;stroke-opacity:1"
       d="m 500.02551,473.73093 217.18279,-6.06091 -77.21483,-12.12183 -221.29949,7.07106 z"
       id="path4233"
       inkscape:connector-curvature="0"
       sodipodi:nodetypes="ccccc" />
    <path
       sodipodi:nodetypes="ccccc"
       inkscape:connector-curvature="0"
       id="path4235"
       d="m 499.88505,344.42229 217.63189,0.88597 -77.3745,1.77192 -221.7571,-1.03362 z"
       style="fill:none;stroke:#000000;stroke-width:0.38272551px;stroke-linecap:butt;stroke-linejoin:miter;stroke-opacity:1" />
    <path
       style="fill:none;stroke:#000000;stroke-width:1px;stroke-linecap:butt;stroke-linejoin:miter;stroke-opacity:1"
       d="m 615.1829,454.53803 0,-14.14213 13.13198,2.0203 0,-12.12183 12.12183,-1.01015 0,-18.18274 12.12183,1.01015 1.01015,-16.16244 13.13199,1.01015 0,-18.18275 10.91376,-9.88354 -2.83255,101.80742 z"
       id="path4237"
       inkscape:connector-curvature="0"
       sodipodi:nodetypes="ccccccccccccc" />
  </g>
  <g
     inkscape:groupmode="layer"
     id="layer4"
     inkscape:label="Layer"
     style="display:none"
     sodipodi:insensitive="true">
    <g
       id="g4018"
       transform="translate(0,6)">
      <path
         inkscape:connector-curvature="0"
         id="rect3928"
         d="m 498.51633,203.73231 c 73.0677,6.069 146.1354,12.13799 219.20309,18.20699 l 0,277.86599 c -73.06769,4.03253 -146.13539,8.06506 -219.20309,12.09759 z"
         style="fill:#3a4557;fill-opacity:1" />
    </g>
    <path
       inkscape:connector-curvature="0"
       id="rect3930"
       d="m 530.84119,270.94774 c 9.09137,0.5129 18.18274,1.0258 27.27411,1.5387 l 0,68.71021 c -9.09137,-0.22497 -18.18274,-0.44993 -27.27411,-0.6749 z"
       style="fill:#282c33;fill-opacity:1" />
    <path
       inkscape:connector-curvature="0"
       id="rect3934"
       d="m 576.84119,273.54288 c 9.09137,0.5129 18.18274,1.0258 27.27411,1.5387 l 0,67.25334 c -9.09137,-0.22496 -18.18274,-0.44993 -27.27411,-0.6749 z"
       style="fill:#282c33;fill-opacity:1" />
    <path
       inkscape:connector-curvature="0"
       id="rect3936"
       d="m 624.84119,276.25085 c 9.09137,0.5129 18.18274,1.0258 27.27411,1.5387 l 0,65.73314 c -9.09137,-0.22497 -18.18274,-0.44994 -27.27411,-0.6749 z"
       style="fill:#282c33;fill-opacity:1" />
    <path
       inkscape:connector-curvature="0"
       id="rect3938"
       d="m 666.84119,278.62032 c 9.09137,0.5129 18.18274,1.0258 27.27411,1.5387 l 0,64.40296 c -9.09137,-0.22496 -18.18274,-0.44993 -27.27411,-0.6749 z"
       style="fill:#282c33;fill-opacity:1" />
    <path
       inkscape:connector-curvature="0"
       id="rect3940"
       d="m 530.84119,402.13779 c 9.09137,-0.03 18.18274,-0.0601 27.27411,-0.0901 l 0,68.71021 c -9.09137,0.31796 -18.18274,0.63593 -27.27411,0.95389 z"
       style="fill:#282c33;fill-opacity:1" />
    <path
       inkscape:connector-curvature="0"
       id="rect3942"
       d="m 576.84119,401.98584 c 9.09137,-0.03 18.18274,-0.0601 27.27411,-0.0901 l 0,67.25335 c -9.09137,0.31797 -18.18274,0.63593 -27.27411,0.95389 z"
       style="fill:#282c33;fill-opacity:1" />
    <path
       inkscape:connector-curvature="0"
       id="rect3944"
       d="m 624.84119,401.82728 c 9.09137,-0.03 18.18274,-0.0601 27.27411,-0.0901 l 0,65.73314 c -9.09137,0.31796 -18.18274,0.63592 -27.27411,0.95389 z"
       style="fill:#282c33;fill-opacity:1" />
    <path
       inkscape:connector-curvature="0"
       id="rect3946"
       d="m 666.84119,401.68854 c 9.09137,-0.03 18.18274,-0.0601 27.27411,-0.0901 l 0,64.40296 c -9.09137,0.31796 -18.18274,0.63593 -27.27411,0.95389 z"
       style="fill:#282c33;fill-opacity:1" />
    <path
       inkscape:connector-curvature="0"
       id="rect3948"
       d="m 418.69398,228.09045 c 27.27412,-6.06899 54.54824,-12.13798 81.82235,-18.20697 l 0,308.0194 c -27.27411,-4.03254 -54.54823,-8.06508 -81.82235,-12.09761 z"
       style="fill:#364051;fill-opacity:1" />
    <path
       inkscape:connector-curvature="0"
       id="rect3950"
       d="m 438.60264,278.83174 c 5.53685,-0.8352 11.0737,-1.67039 16.61055,-2.50558 l 0,66.7193 c -5.53685,0.36541 -11.0737,0.73082 -16.61055,1.09623 z"
       style="fill:#282c33;fill-opacity:1" />
    <path
       inkscape:connector-curvature="0"
       id="rect3952"
       d="m 466.61768,274.60587 c 5.53685,-0.83519 11.0737,-1.67039 16.61055,-2.50558 l 0,69.0963 c -5.53685,0.36541 -11.0737,0.73082 -16.61055,1.09622 z"
       style="fill:#282c33;fill-opacity:1" />
    <path
       inkscape:connector-curvature="0"
       id="rect3958"
       d="m 438.60264,401.98141 c 5.53685,0.0506 11.0737,0.10128 16.61055,0.15192 l 0,66.71931 c -5.53685,-0.52043 -11.0737,-1.04085 -16.61055,-1.56128 z"
       style="fill:#282c33;fill-opacity:1" />
    <path
       inkscape:connector-curvature="0"
       id="rect3960"
       d="m 466.61768,402.23764 c 5.53685,0.0506 11.0737,0.10128 16.61055,0.15192 l 0,69.0963 c -5.53685,-0.52043 -11.0737,-1.04085 -16.61055,-1.56128 z"
       style="fill:#282c33;fill-opacity:1" />
    <path
       style="fill:#624e26;fill-opacity:1;stroke:#000000;stroke-width:1px;stroke-linecap:butt;stroke-linejoin:miter;stroke-opacity:1"
       d="m 579.82756,471.71063 c 0,42.4264 0,41.41625 0,41.41625 l 25.25381,6.06092 31.31473,-3.03046 0,-14.14214 -31.31473,-33.33503 z"
       id="path4161"
       inkscape:connector-curvature="0" />
  </g>
  <g
     inkscape:groupmode="layer"
     id="layer2"
     inkscape:label="Eyelids"
     style="display:none"
     sodipodi:insensitive="true">
    <path
       style="fill:#260c0a;fill-opacity:1"
       d="m 0.03125,0.03125 0,604.96875 c 101.45458,15.81742 248.42452,25.75 411.9375,25.75 151.07858,0 288.01847,-8.48269 388,-22.25 l 0,-608.46875 -799.9375,0 z"
       id="path3851"
       inkscape:connector-curvature="0"
       inkscape:export-xdpi="90"
       inkscape:export-ydpi="90" />
  </g>
</svg>
