<?xml version="1.0" encoding="UTF-8" standalone="no"?>
<!-- Created with Inkscape (http://www.inkscape.org/) -->

<svg
   xmlns:dc="http://purl.org/dc/elements/1.1/"
   xmlns:cc="http://creativecommons.org/ns#"
   xmlns:rdf="http://www.w3.org/1999/02/22-rdf-syntax-ns#"
   xmlns:svg="http://www.w3.org/2000/svg"
   xmlns="http://www.w3.org/2000/svg"
   xmlns:xlink="http://www.w3.org/1999/xlink"
   xmlns:sodipodi="http://sodipodi.sourceforge.net/DTD/sodipodi-0.dtd"
   xmlns:inkscape="http://www.inkscape.org/namespaces/inkscape"
   width="8000"
   height="600"
   id="svg6637"
   version="1.1"
   inkscape:version="0.48.2 r9819"
   sodipodi:docname="DL1.svg"
   inkscape:export-filename="/Users/ld27/Desktop/Projects/LD27/DL1.png"
   inkscape:export-xdpi="90"
   inkscape:export-ydpi="90">
  <defs
     id="defs6639">
    <pattern
       inkscape:collect="always"
       xlink:href="#pattern7200"
       id="pattern23001"
       patternTransform="matrix(9.9999998,0,0,10,0,-272)" />
    <inkscape:path-effect
       effect="bend_path"
       id="path-effect22999"
       is_visible="true"
       bendpath="M -53.659925,1234.987 C 1966.6975,1200.307 2539.6289,984.39618 3957.6639,860.78932 c 953.1216,-83.08142 1063.0059,102.03328 1687.3136,90.96549 328.9955,-5.83247 606.6359,-144.49266 984.0423,-162.76777 606.0529,-29.34683 1123.3531,-41.33333 1535.3789,-110"
       prop_scale="1"
       scale_y_rel="false"
       vertical="false"
       bendpath-nodetypes="csssc" />
    <inkscape:path-effect
       effect="bend_path"
       id="path-effect22997"
       is_visible="true"
       bendpath="m -422.20832,1020.987 c 0,0 2839.72512,-57.8967 4314.65272,-113.68638 C 7888.6126,756.14411 8411.293,628.98704 8411.293,628.98704"
       prop_scale="1"
       scale_y_rel="false"
       vertical="false"
       bendpath-nodetypes="csc" />
    <pattern
       inkscape:collect="always"
       xlink:href="#pattern22985"
       id="pattern22995"
       patternTransform="matrix(64.085885,0,0,10,-4.1025531,320)" />
    <pattern
       inkscape:collect="always"
       xlink:href="#pattern22985"
       id="pattern22993"
       patternTransform="matrix(22.674353,0,0,10,-0.96138223,-40)" />
    <pattern
       inkscape:collect="always"
       xlink:href="#pattern22966"
       id="pattern22985"
       patternTransform="matrix(71.663323,0,0,10,-4.6773212,320)" />
    <inkscape:path-effect
       effect="bend_path"
       id="path-effect22977"
       is_visible="true"
       bendpath="M 0.75852561,884.98704 C 410.95623,886.11241 826.33928,696.79619 1276.1448,670.87205 c 767.7681,-44.24965 1597.5556,62.24871 2395.8388,48.28949 1195.5417,-20.9059 1580.8492,86.48769 2478.1878,142.45316 425.4124,26.53224 1575.2653,-5.52258 1850.9719,23.37234"
       prop_scale="1"
       scale_y_rel="false"
       vertical="false"
       bendpath-nodetypes="csssc" />
    <pattern
       inkscape:collect="always"
       xlink:href="#pattern22963"
       id="pattern22966"
       patternTransform="scale(9.9999998,10)" />
    <pattern
       inkscape:collect="always"
       xlink:href="#pattern22956"
       id="pattern22963"
       patternTransform="matrix(9.9999998,0,0,10,0,80)" />
    <pattern
       inkscape:collect="always"
       xlink:href="#pattern7200"
       id="pattern22956"
       patternTransform="scale(9.9999998,10)" />
    <pattern
       inkscape:collect="always"
       xlink:href="#Checkerboard"
       id="pattern7200"
       patternTransform="matrix(9.9999998,0,0,10,0,-12)" />
    <pattern
       inkscape:stockid="Checkerboard"
       id="Checkerboard"
       patternTransform="translate(0,0) scale(10,10)"
       height="2"
       width="2"
       patternUnits="userSpaceOnUse"
       inkscape:collect="always">
      <rect
         id="rect5904"
         height="1"
         width="1"
         y="0"
         x="0"
         style="fill:black;stroke:none" />
      <rect
         id="rect5906"
         height="1"
         width="1"
         y="1"
         x="1"
         style="fill:black;stroke:none" />
    </pattern>
    <filter
       id="filter7206"
       inkscape:menu-tooltip="Transparent plastic with deep colors"
       inkscape:menu="Bevels"
       inkscape:label="Deep colors plastic"
       color-interpolation-filters="sRGB">
      <feGaussianBlur
         id="feGaussianBlur7208"
         in="SourceGraphic"
         result="result6"
         stdDeviation="10" />
      <feComposite
         id="feComposite7210"
         in2="SourceGraphic"
         in="result6"
         operator="xor" />
      <feGaussianBlur
         id="feGaussianBlur7212"
         result="result2"
         stdDeviation="10" />
      <feComposite
         id="feComposite7214"
         in2="SourceGraphic"
         operator="atop"
         result="result91" />
      <feComposite
         id="feComposite7216"
         in2="result91"
         result="result4"
         in="result2"
         operator="xor" />
      <feGaussianBlur
         id="feGaussianBlur7218"
         in="result4"
         result="result3"
         stdDeviation="5" />
      <feSpecularLighting
         id="feSpecularLighting7220"
         lighting-color="rgb(255,255,255)"
         in="result3"
         result="result5"
         specularExponent="35"
         specularConstant="3"
         surfaceScale="12">
        <feDistantLight
           id="feDistantLight7222"
           elevation="45"
           azimuth="235" />
      </feSpecularLighting>
      <feComposite
         id="feComposite7224"
         in2="result5"
         in="SourceGraphic"
         k3="0.7"
         k2="0.8"
         operator="arithmetic"
         result="result7" />
      <feComposite
         id="feComposite7226"
         in2="SourceGraphic"
         in="result7"
         operator="in" />
    </filter>
    <filter
       inkscape:collect="always"
       id="filter7265"
       x="-0.58983051"
       width="2.179661"
       y="-0.58983051"
       height="2.179661">
      <feGaussianBlur
         inkscape:collect="always"
         stdDeviation="15.738609"
         id="feGaussianBlur7267" />
    </filter>
  </defs>
  <sodipodi:namedview
     id="base"
     pagecolor="#000000"
     bordercolor="#666666"
     borderopacity="1.0"
     inkscape:pageopacity="0"
     inkscape:pageshadow="2"
     inkscape:zoom="0.5"
     inkscape:cx="-34.986193"
     inkscape:cy="217.94865"
     inkscape:document-units="px"
     inkscape:current-layer="layer1"
     showgrid="false"
     inkscape:window-width="1261"
     inkscape:window-height="805"
     inkscape:window-x="62"
     inkscape:window-y="11"
     inkscape:window-maximized="0" />
  <metadata
     id="metadata6642">
    <rdf:RDF>
      <cc:Work
         rdf:about="">
        <dc:format>image/svg+xml</dc:format>
        <dc:type
           rdf:resource="http://purl.org/dc/dcmitype/StillImage" />
        <dc:title></dc:title>
      </cc:Work>
    </rdf:RDF>
  </metadata>
  <g
     inkscape:label="Layer 1"
     inkscape:groupmode="layer"
     id="layer1"
     transform="translate(0,-452.36217)">
    <g
       transform="matrix(0.44102689,0,0,1,0.42399542,40)"
       id="g22987"
       inkscape:path-effect="#path-effect22999"
       style="filter:url(#filter7206)">
      <path
         inkscape:connector-curvature="0"
         id="path22989"
         d="m -54.009657,1214.6126 c 231.342487,-3.9714 462.616377,-10.6216 693.703577,-20.9486 195.11645,-8.7194 390.09748,-20.0819 584.81568,-34.7139 10e-5,0 2e-4,0 2e-4,0 167.8354,-12.6116 335.4836,-27.683 502.8646,-45.2759 0,0 10e-5,0 2e-4,0 149.4809,-15.7111 298.7708,-33.4531 447.8967,-52.6491 140.0451,-18.027 279.9745,-37.3218 419.9208,-56.844 139.5457,-19.46656 279.1208,-39.1148 418.8739,-57.85028 1e-4,-10e-6 2e-4,-10e-6 2e-4,-2e-5 148.0184,-19.84363 296.2148,-38.62901 444.651,-55.64124 165.4861,-18.96599 331.2287,-35.73521 497.1772,-50.20062 106.9559,-9.32536 214.2184,-16.27785 321.6938,-19.55834 86.1537,-2.63008 172.4668,-2.8622 258.75,0.21411 1e-4,10e-6 3e-4,10e-6 4e-4,2e-5 70.627,2.51957 141.1946,7.31154 211.5322,14.56466 1e-4,2e-5 2e-4,3e-5 4e-4,4e-5 60.2193,6.21249 120.164,14.24609 179.8487,23.41642 54.786,8.4173 109.27,17.7358 163.6519,26.69829 54.4222,8.96645 108.7807,17.50948 163.2093,24.49155 10e-5,2e-5 2e-4,4e-5 4e-4,6e-5 59.4817,7.63222 119.1673,13.40732 178.9515,16.95895 70.2123,4.1752 140.6473,5.35263 211.0833,4.10595 78.9591,-1.37409 157.9228,-10.8999 236.2225,-25.00262 77.9782,-14.05378 155.4608,-32.57996 233.2703,-51.1606 1e-4,-3e-5 2e-4,-6e-5 4e-4,-1e-4 80.8572,-19.32434 162.0997,-38.61854 244.476,-53.94233 2e-4,-3e-5 3e-4,-5e-5 5e-4,-8e-5 88.8373,-16.52622 178.8274,-28.23976 269.4482,-32.64139 280.3152,-13.57417 560.5662,-23.62121 840.2264,-40.24302 232.2799,-13.82761 464.2482,-31.38659 692.7883,-69.50361 l 6.6996,40.20028 c -230.9488,38.45968 -464.3444,56.17955 -697.0702,69.98627 -280.2983,16.65536 -560.6982,26.71042 -840.6729,40.2671 -88.4162,4.26786 -176.5805,15.76848 -263.9708,32.00263 -2e-4,2e-5 -3e-4,5e-5 -4e-4,7e-5 -81.0585,15.05845 -161.6272,34.20962 -242.4546,53.51325 0,10e-6 -1e-4,3e-5 -2e-4,4e-5 -77.8043,18.597 -156.0319,37.27927 -235.5055,51.62885 -79.8662,14.42942 -161.0009,24.16888 -242.7352,25.64358 -71.3729,1.26732 -142.8546,0.0681 -214.2236,-4.17134 -60.7898,-3.61446 -121.3987,-9.47614 -181.7212,-17.21867 -55.1881,-7.0853 -110.0265,-15.69865 -164.649,-24.70249 -54.5451,-8.98839 -108.8828,-18.28361 -163.213,-26.62842 -59.1704,-9.08784 -118.4461,-17.03561 -177.8418,-23.15893 0,-10e-6 -1e-4,-10e-6 -2e-4,-2e-5 -69.3919,-7.15709 -139.0504,-11.88603 -208.8048,-14.37558 -1e-4,0 -1e-4,-10e-6 -2e-4,-10e-6 -85.2405,-3.04403 -170.6549,-2.80959 -256.0542,-0.20713 -106.5451,3.24735 -213.042,10.15484 -319.3973,19.42332 -165.5725,14.43252 -330.948,31.16471 -496.0758,50.08953 -148.1129,16.97449 -296.051,35.72777 -443.8762,55.54493 -2e-4,2e-5 -3e-4,3e-5 -4e-4,5e-5 -139.5757,18.71129 -279.0789,38.34969 -418.6581,57.82079 -139.9888,19.5286 -280.0608,38.8425 -420.3484,56.9013 -149.3881,19.2303 -298.9923,37.0091 -448.8396,52.7593 -10e-5,0 -3e-4,0 -4e-4,10e-5 -167.788,17.6355 -335.8382,32.7432 -504.0707,45.3845 -10e-5,10e-5 -2e-4,10e-5 -4e-4,10e-5 -195.1732,14.6654 -390.5657,26.0526 -586.0501,34.7878 -231.51906,10.3454 -463.16626,17.0072 -694.823493,20.9833 -0.233155,-13.5829 -0.466309,-27.1659 -0.699464,-40.7488 z"
         style="opacity:0.85344825;fill:#841414;fill-opacity:1;stroke:none"
         inkscape:original-d="m 0.75852561,864.60968 8000.38477439,0 0,40.75472 -8000.38477439,0 z" />
      <path
         inkscape:connector-curvature="0"
         id="path22991"
         d="m -54.009657,1214.6126 c 231.342487,-3.9714 462.616377,-10.6216 693.703577,-20.9486 195.11645,-8.7194 390.09748,-20.0819 584.81568,-34.7139 10e-5,0 2e-4,0 2e-4,0 167.8354,-12.6116 335.4836,-27.683 502.8646,-45.2759 0,0 10e-5,0 2e-4,0 149.4809,-15.7111 298.7708,-33.4531 447.8967,-52.6491 140.0451,-18.027 279.9745,-37.3218 419.9208,-56.844 139.5457,-19.46656 279.1208,-39.1148 418.8739,-57.85028 1e-4,-10e-6 2e-4,-10e-6 2e-4,-2e-5 148.0184,-19.84363 296.2148,-38.62901 444.651,-55.64124 165.4861,-18.96599 331.2287,-35.73521 497.1772,-50.20062 106.9559,-9.32536 214.2184,-16.27785 321.6938,-19.55834 86.1537,-2.63008 172.4668,-2.8622 258.75,0.21411 1e-4,10e-6 3e-4,10e-6 4e-4,2e-5 70.627,2.51957 141.1946,7.31154 211.5322,14.56466 1e-4,2e-5 2e-4,3e-5 4e-4,4e-5 60.2193,6.21249 120.164,14.24609 179.8487,23.41642 54.786,8.4173 109.27,17.7358 163.6519,26.69829 54.4222,8.96645 108.7807,17.50948 163.2093,24.49155 10e-5,2e-5 2e-4,4e-5 4e-4,6e-5 59.4817,7.63222 119.1673,13.40732 178.9515,16.95895 70.2123,4.1752 140.6473,5.35263 211.0833,4.10595 78.9591,-1.37409 157.9228,-10.8999 236.2225,-25.00262 77.9782,-14.05378 155.4608,-32.57996 233.2703,-51.1606 1e-4,-3e-5 2e-4,-6e-5 4e-4,-1e-4 80.8572,-19.32434 162.0997,-38.61854 244.476,-53.94233 2e-4,-3e-5 3e-4,-5e-5 5e-4,-8e-5 88.8373,-16.52622 178.8274,-28.23976 269.4482,-32.64139 280.3152,-13.57417 560.5662,-23.62121 840.2264,-40.24302 232.2799,-13.82761 464.2482,-31.38659 692.7883,-69.50361 l 6.6996,40.20028 c -230.9488,38.45968 -464.3444,56.17955 -697.0702,69.98627 -280.2983,16.65536 -560.6982,26.71042 -840.6729,40.2671 -88.4162,4.26786 -176.5805,15.76848 -263.9708,32.00263 -2e-4,2e-5 -3e-4,5e-5 -4e-4,7e-5 -81.0585,15.05845 -161.6272,34.20962 -242.4546,53.51325 0,10e-6 -1e-4,3e-5 -2e-4,4e-5 -77.8043,18.597 -156.0319,37.27927 -235.5055,51.62885 -79.8662,14.42942 -161.0009,24.16888 -242.7352,25.64358 -71.3729,1.26732 -142.8546,0.0681 -214.2236,-4.17134 -60.7898,-3.61446 -121.3987,-9.47614 -181.7212,-17.21867 -55.1881,-7.0853 -110.0265,-15.69865 -164.649,-24.70249 -54.5451,-8.98839 -108.8828,-18.28361 -163.213,-26.62842 -59.1704,-9.08784 -118.4461,-17.03561 -177.8418,-23.15893 0,-10e-6 -1e-4,-10e-6 -2e-4,-2e-5 -69.3919,-7.15709 -139.0504,-11.88603 -208.8048,-14.37558 -1e-4,0 -1e-4,-10e-6 -2e-4,-10e-6 -85.2405,-3.04403 -170.6549,-2.80959 -256.0542,-0.20713 -106.5451,3.24735 -213.042,10.15484 -319.3973,19.42332 -165.5725,14.43252 -330.948,31.16471 -496.0758,50.08953 -148.1129,16.97449 -296.051,35.72777 -443.8762,55.54493 -2e-4,2e-5 -3e-4,3e-5 -4e-4,5e-5 -139.5757,18.71129 -279.0789,38.34969 -418.6581,57.82079 -139.9888,19.5286 -280.0608,38.8425 -420.3484,56.9013 -149.3881,19.2303 -298.9923,37.0091 -448.8396,52.7593 -10e-5,0 -3e-4,0 -4e-4,10e-5 -167.788,17.6355 -335.8382,32.7432 -504.0707,45.3845 -10e-5,10e-5 -2e-4,10e-5 -4e-4,10e-5 -195.1732,14.6654 -390.5657,26.0526 -586.0501,34.7878 -231.51906,10.3454 -463.16626,17.0072 -694.823493,20.9833 -0.233155,-13.5829 -0.466309,-27.1659 -0.699464,-40.7488 z"
         style="opacity:0.85344825;fill:url(#pattern22993);fill-opacity:1;stroke:none"
         inkscape:original-d="m 0.75852561,864.60968 8000.38477439,0 0,40.75472 -8000.38477439,0 z" />
    </g>
    <g
       id="g7202"
       style="filter:url(#filter7206)"
       transform="translate(0,272)">
      <rect
         y="932.60968"
         x="0.75852561"
         height="40.754719"
         width="8000.3848"
         id="rect6683"
         style="opacity:0.85344825;fill:#841414;fill-opacity:1;stroke:none" />
      <rect
         style="opacity:0.85344825;fill:url(#pattern23001);fill-opacity:1;stroke:none"
         id="rect6685"
         width="8000.3848"
         height="40.754719"
         x="0.75852561"
         y="932.60968" />
    </g>
    <path
       sodipodi:type="arc"
       style="opacity:0.85344825;fill:#f3db9e;fill-opacity:1;stroke:none;filter:url(#filter7265)"
       id="path7247"
       sodipodi:cx="189.98491"
       sodipodi:cy="188.01024"
       sodipodi:rx="32.019928"
       sodipodi:ry="32.019928"
       d="m 222.00484,188.01024 a 32.019928,32.019928 0 1 1 -64.03986,0 32.019928,32.019928 0 1 1 64.03986,0 z"
       transform="translate(128.07972,564.61641)" />
    <g
       id="g22973"
       inkscape:path-effect="#path-effect22977"
       style="filter:url(#filter7206)">
      <path
         id="rect22951"
         d="M 0.81443032,864.60976 C 102.8387,864.92798 205.02032,853.13301 306.35036,835.57487 410.99809,817.42089 514.8372,793.06522 618.8693,768.25218 c 106.71697,-25.46865 213.68329,-51.49865 321.98305,-72.82334 1.3e-4,-2e-5 2.7e-4,-5e-5 4e-4,-8e-5 110.03675,-21.67827 221.53095,-38.38829 334.11955,-44.90031 1e-4,0 1e-4,-10e-6 2e-4,-10e-6 195.7614,-11.27565 391.819,-12.69458 587.5299,-9.19007 200.622,3.58873 400.9665,12.3601 601.0954,21.96558 0,0 1e-4,0 2e-4,0 202.1071,9.69797 404.0391,20.2905 605.9662,27.61483 200.7468,7.27891 401.5144,11.37976 602.0631,7.86851 255.4054,-4.46857 511.0399,-3.78471 766.5007,5.57906 102.7523,3.76738 205.455,8.95356 308.0664,15.5897 10e-5,10e-6 3e-4,2e-5 4e-4,2e-5 92.9282,6.01021 185.7549,13.21432 278.4801,21.30505 1e-4,10e-6 3e-4,3e-5 4e-4,4e-5 88.1924,7.69527 176.2715,16.17798 264.283,24.89584 88.5567,8.77163 177.0466,17.75774 265.5281,26.3675 94.076,9.15403 188.1658,17.87106 282.2984,25.73687 2e-4,10e-6 3e-4,2e-5 4e-4,3e-5 104.8094,8.75814 209.6991,16.46965 314.6546,23.01546 29.0521,1.81259 58.186,3.16545 87.3817,4.29306 34.0283,1.31374 68.0968,2.30325 102.1972,3.10991 79.6694,1.8846 159.4114,2.79297 239.2058,3.33985 2e-4,0 3e-4,10e-6 4e-4,10e-6 183.7549,1.25888 367.5962,0.54973 551.5132,0.0179 91.5659,-0.26496 183.1508,-0.52421 274.7547,-0.52522 1e-4,0 2e-4,0 4e-4,0 83.0139,-0.001 166.063,0.18897 249.1415,0.98738 68.2311,0.65483 136.5568,1.64781 204.9391,3.90903 26.6768,0.88182 53.4128,1.96525 80.1888,3.50167 20.6958,1.18438 41.5519,2.61849 62.5047,4.81023 l -4.248,40.53272 c -19.9802,-2.09817 -40.1988,-3.48062 -60.5926,-4.65523 -26.3182,-1.51175 -52.7247,-2.58028 -79.2005,-3.45696 -67.8784,-2.24685 -135.8854,-3.23302 -203.9832,-3.88863 -82.8795,-0.79684 -165.7978,-0.98622 -248.7494,-0.98549 -1e-4,0 -3e-4,0 -4e-4,0 -91.5272,9.4e-4 -183.0729,0.26014 -274.6372,0.52505 -183.8908,0.53237 -367.8645,1.24126 -551.9102,-0.0187 -1e-4,0 -2e-4,0 -4e-4,0 -79.9179,-0.54689 -159.8881,-1.45875 -239.8902,-3.35029 -34.2471,-0.80973 -68.5184,-1.80554 -102.8057,-3.12885 -29.4087,-1.13458 -58.8642,-2.50367 -88.3465,-4.34177 -105.2566,-6.56475 -210.4319,-14.2971 -315.5116,-23.07797 -94.3766,-7.88664 -188.651,-16.62036 -282.852,-25.78693 -88.5951,-8.62096 -177.1084,-17.60936 -265.5982,-26.37438 -87.9383,-8.71017 -175.8592,-17.17814 -263.8086,-24.85165 0,-1e-5 -1e-4,-1e-5 -2e-4,-2e-5 -92.4661,-8.06766 -184.9888,-15.24867 -277.568,-21.23577 -1e-4,-10e-6 -2e-4,-10e-6 -2e-4,-2e-5 -102.2283,-6.61144 -204.552,-11.77842 -306.9295,-15.5321 -254.5377,-9.33527 -509.4369,-10.01209 -764.2948,-5.55791 -201.5783,3.52057 -403.0759,-0.58713 -604.2532,-7.88908 -202.3652,-7.34244 -404.4558,-17.94165 -606.442,-27.63487 -10e-5,0 -3e-4,-10e-6 -4e-4,-2e-5 -200.0154,-9.59621 -399.9516,-18.35413 -599.8703,-21.92524 -195.0295,-3.48014 -390.0627,-2.08154 -584.4567,9.12907 -110.1098,6.323 -219.7621,22.7998 -328.59396,44.20062 -1.3e-4,3e-5 -2.6e-4,6e-5 -3.9e-4,8e-5 -107.11858,21.07532 -213.55548,46.9901 -320.39478,72.47769 -104.13209,24.85662 -208.80047,49.38304 -315.00675,67.83493 -102.8585,17.89056 -207.40107,29.88569 -312.6187991,29.63535 0.0372698,-13.58485 0.0745396,-27.16971 0.11180942,-40.75456 z"
         style="opacity:0.85344825;fill:#841414;fill-opacity:1;stroke:none"
         inkscape:original-d="m 0.75852561,864.60968 8000.38477439,0 0,40.75472 -8000.38477439,0 z" />
      <path
         id="rect22953"
         d="M 0.81443032,864.60976 C 102.8387,864.92798 205.02032,853.13301 306.35036,835.57487 410.99809,817.42089 514.8372,793.06522 618.8693,768.25218 c 106.71697,-25.46865 213.68329,-51.49865 321.98305,-72.82334 1.3e-4,-2e-5 2.7e-4,-5e-5 4e-4,-8e-5 110.03675,-21.67827 221.53095,-38.38829 334.11955,-44.90031 1e-4,0 1e-4,-10e-6 2e-4,-10e-6 195.7614,-11.27565 391.819,-12.69458 587.5299,-9.19007 200.622,3.58873 400.9665,12.3601 601.0954,21.96558 0,0 1e-4,0 2e-4,0 202.1071,9.69797 404.0391,20.2905 605.9662,27.61483 200.7468,7.27891 401.5144,11.37976 602.0631,7.86851 255.4054,-4.46857 511.0399,-3.78471 766.5007,5.57906 102.7523,3.76738 205.455,8.95356 308.0664,15.5897 10e-5,10e-6 3e-4,2e-5 4e-4,2e-5 92.9282,6.01021 185.7549,13.21432 278.4801,21.30505 1e-4,10e-6 3e-4,3e-5 4e-4,4e-5 88.1924,7.69527 176.2715,16.17798 264.283,24.89584 88.5567,8.77163 177.0466,17.75774 265.5281,26.3675 94.076,9.15403 188.1658,17.87106 282.2984,25.73687 2e-4,10e-6 3e-4,2e-5 4e-4,3e-5 104.8094,8.75814 209.6991,16.46965 314.6546,23.01546 29.0521,1.81259 58.186,3.16545 87.3817,4.29306 34.0283,1.31374 68.0968,2.30325 102.1972,3.10991 79.6694,1.8846 159.4114,2.79297 239.2058,3.33985 2e-4,0 3e-4,10e-6 4e-4,10e-6 183.7549,1.25888 367.5962,0.54973 551.5132,0.0179 91.5659,-0.26496 183.1508,-0.52421 274.7547,-0.52522 1e-4,0 2e-4,0 4e-4,0 83.0139,-0.001 166.063,0.18897 249.1415,0.98738 68.2311,0.65483 136.5568,1.64781 204.9391,3.90903 26.6768,0.88182 53.4128,1.96525 80.1888,3.50167 20.6958,1.18438 41.5519,2.61849 62.5047,4.81023 l -4.248,40.53272 c -19.9802,-2.09817 -40.1988,-3.48062 -60.5926,-4.65523 -26.3182,-1.51175 -52.7247,-2.58028 -79.2005,-3.45696 -67.8784,-2.24685 -135.8854,-3.23302 -203.9832,-3.88863 -82.8795,-0.79684 -165.7978,-0.98622 -248.7494,-0.98549 -1e-4,0 -3e-4,0 -4e-4,0 -91.5272,9.4e-4 -183.0729,0.26014 -274.6372,0.52505 -183.8908,0.53237 -367.8645,1.24126 -551.9102,-0.0187 -1e-4,0 -2e-4,0 -4e-4,0 -79.9179,-0.54689 -159.8881,-1.45875 -239.8902,-3.35029 -34.2471,-0.80973 -68.5184,-1.80554 -102.8057,-3.12885 -29.4087,-1.13458 -58.8642,-2.50367 -88.3465,-4.34177 -105.2566,-6.56475 -210.4319,-14.2971 -315.5116,-23.07797 -94.3766,-7.88664 -188.651,-16.62036 -282.852,-25.78693 -88.5951,-8.62096 -177.1084,-17.60936 -265.5982,-26.37438 -87.9383,-8.71017 -175.8592,-17.17814 -263.8086,-24.85165 0,-1e-5 -1e-4,-1e-5 -2e-4,-2e-5 -92.4661,-8.06766 -184.9888,-15.24867 -277.568,-21.23577 -1e-4,-10e-6 -2e-4,-10e-6 -2e-4,-2e-5 -102.2283,-6.61144 -204.552,-11.77842 -306.9295,-15.5321 -254.5377,-9.33527 -509.4369,-10.01209 -764.2948,-5.55791 -201.5783,3.52057 -403.0759,-0.58713 -604.2532,-7.88908 -202.3652,-7.34244 -404.4558,-17.94165 -606.442,-27.63487 -10e-5,0 -3e-4,-10e-6 -4e-4,-2e-5 -200.0154,-9.59621 -399.9516,-18.35413 -599.8703,-21.92524 -195.0295,-3.48014 -390.0627,-2.08154 -584.4567,9.12907 -110.1098,6.323 -219.7621,22.7998 -328.59396,44.20062 -1.3e-4,3e-5 -2.6e-4,6e-5 -3.9e-4,8e-5 -107.11858,21.07532 -213.55548,46.9901 -320.39478,72.47769 -104.13209,24.85662 -208.80047,49.38304 -315.00675,67.83493 -102.8585,17.89056 -207.40107,29.88569 -312.6187991,29.63535 0.0372698,-13.58485 0.0745396,-27.16971 0.11180942,-40.75456 z"
         style="opacity:0.85344825;fill:url(#pattern22966);fill-opacity:1;stroke:none"
         inkscape:original-d="m 0.75852561,864.60968 8000.38477439,0 0,40.75472 -8000.38477439,0 z" />
    </g>
    <g
       id="g22979"
       transform="matrix(0.1560406,0,0,1,0.64016482,-320)"
       inkscape:path-effect="#path-effect22997"
       style="filter:url(#filter7206)">
      <path
         style="opacity:0.85344825;fill:#841414;fill-opacity:1;stroke:none"
         d="m -422.62564,1000.6139 8.19365,-0.1678 c 8.0195,-0.1647 16.03929,-0.3301 24.05938,-0.49605 30.88164,-0.63878 61.76372,-1.28393 92.6463,-1.93283 113.94747,-2.39426 227.89477,-4.83968 341.842179,-7.32115 7.4e-5,0 1.48e-4,0 2.22e-4,-10e-6 379.153699,-8.25697 758.298019,-16.91025 1137.431009,-26.00299 10e-5,-1e-5 2e-4,-1e-5 3e-4,-1e-5 471.3419,-11.3042 942.6601,-23.25516 1413.9349,-36.46227 10e-5,0 2e-4,0 3e-4,0 229.1711,-6.42235 458.3274,-13.14559 687.4605,-20.39476 202.945,-6.42068 405.8622,-13.22457 608.7311,-20.89821 797.4764,-30.16523 1594.7886,-63.96969 2391.562,-107.23715 2e-4,-10e-6 3e-4,-10e-6 5e-4,-2e-5 455.5661,-24.73979 910.9367,-51.98814 1365.5029,-88.54758 2e-4,-10e-6 3e-4,-2e-5 5e-4,-3e-5 128.2649,-10.31606 256.4213,-21.41274 384.3596,-34.2327 1e-4,-10e-6 3e-4,-2e-5 4e-4,-4e-5 77.3399,-7.75066 154.5421,-16.05198 231.4626,-25.91121 0,0 0,0 0,0 10e-5,-2e-5 2e-4,-4e-5 4e-4,-6e-5 37.945,-4.8667 75.6819,-9.9692 113.0228,-16.34735 10e-5,-2e-5 3e-4,-5e-5 4e-4,-7e-5 7.7318,-1.32137 15.3501,-2.67514 22.8286,-4.18401 1e-4,-2e-5 3e-4,-5e-5 4e-4,-8e-5 1.677,-0.33849 3.2986,-0.67342 4.8615,-1.01888 0,0 0,0 0,0 0.3685,-0.0815 0.7102,-0.15786 1.0247,-0.23082 0.8599,3.28519 1.7067,6.57337 2.5404,9.86434 0.6126,2.47281 1.2251,4.9456 1.8376,7.41835 0.1528,0.61652 0.3055,1.23304 0.4582,1.84956 0.056,0.20799 0.1056,0.41748 0.1553,0.62697 l 0,0 c 0.05,0.20949 0.099,0.41898 0.1491,0.62847 0.1343,0.62096 0.2749,1.24042 0.4154,1.85987 0.5636,2.4845 1.1272,4.96895 1.6908,7.45338 0.6353,3.33803 1.2836,6.67253 1.9449,10.0037 -0.5034,0.11642 -0.9811,0.22355 -1.4326,0.32305 -1e-4,4e-5 -3e-4,7e-5 -5e-4,1.1e-4 -1.9143,0.42197 -3.7799,0.80842 -5.5935,1.17343 -8.0865,1.62804 -16.1029,3.05587 -24.0227,4.4062 0,0 0,0 0,0 -1e-4,2e-5 -3e-4,5e-5 -4e-4,7e-5 -38.2683,6.52818 -76.5641,11.71417 -114.6997,16.59781 -2e-4,2e-5 -3e-4,4e-5 -5e-4,6e-5 -77.4688,9.92696 -155.0437,18.27081 -232.5803,26.03881 0,0 0,0 0,0 -128.3031,12.8555 -256.725,23.97614 -385.1558,34.30459 -1e-4,10e-6 -3e-4,2e-5 -4e-4,4e-5 -455.1214,36.60131 -910.8446,63.8734 -1366.5607,88.61881 -797.0957,43.28411 -1594.6311,77.09885 -2392.2315,107.26798 -202.9853,7.67794 -405.9864,14.48474 -608.9828,20.90695 -229.1954,7.25111 -458.4006,13.97582 -687.6074,20.39914 -1e-4,0 -2e-4,0 -4e-4,10e-6 -471.3472,13.2091 -942.7203,25.16148 -1414.0995,36.46658 -10e-5,0 -3e-4,0 -4e-4,0 -379.16448,9.0935 -758.33867,17.7474 -1137.520689,26.005 -1.48e-4,0 -2.95e-4,0 -4.43e-4,0 -113.955927,2.4817 -227.913538,4.9273 -341.873138,7.3218 -30.88586,0.649 -61.77239,1.2943 -92.65961,1.9332 -8.02187,0.1659 -16.04406,0.3314 -24.06657,0.4961 l -8.19465,0.1679 z"
         id="path22981"
         inkscape:connector-curvature="0"
         inkscape:original-d="m 0.75852561,864.60968 8000.38477439,0 0,40.75472 -8000.38477439,0 z" />
      <path
         style="opacity:0.85344825;fill:url(#pattern22995);fill-opacity:1;stroke:none"
         d="m -422.62564,1000.6139 8.19365,-0.1678 c 8.0195,-0.1647 16.03929,-0.3301 24.05938,-0.49605 30.88164,-0.63878 61.76372,-1.28393 92.6463,-1.93283 113.94747,-2.39426 227.89477,-4.83968 341.842179,-7.32115 7.4e-5,0 1.48e-4,0 2.22e-4,-10e-6 379.153699,-8.25697 758.298019,-16.91025 1137.431009,-26.00299 10e-5,-1e-5 2e-4,-1e-5 3e-4,-1e-5 471.3419,-11.3042 942.6601,-23.25516 1413.9349,-36.46227 10e-5,0 2e-4,0 3e-4,0 229.1711,-6.42235 458.3274,-13.14559 687.4605,-20.39476 202.945,-6.42068 405.8622,-13.22457 608.7311,-20.89821 797.4764,-30.16523 1594.7886,-63.96969 2391.562,-107.23715 2e-4,-10e-6 3e-4,-10e-6 5e-4,-2e-5 455.5661,-24.73979 910.9367,-51.98814 1365.5029,-88.54758 2e-4,-10e-6 3e-4,-2e-5 5e-4,-3e-5 128.2649,-10.31606 256.4213,-21.41274 384.3596,-34.2327 1e-4,-10e-6 3e-4,-2e-5 4e-4,-4e-5 77.3399,-7.75066 154.5421,-16.05198 231.4626,-25.91121 0,0 0,0 0,0 10e-5,-2e-5 2e-4,-4e-5 4e-4,-6e-5 37.945,-4.8667 75.6819,-9.9692 113.0228,-16.34735 10e-5,-2e-5 3e-4,-5e-5 4e-4,-7e-5 7.7318,-1.32137 15.3501,-2.67514 22.8286,-4.18401 1e-4,-2e-5 3e-4,-5e-5 4e-4,-8e-5 1.677,-0.33849 3.2986,-0.67342 4.8615,-1.01888 0,0 0,0 0,0 0.3685,-0.0815 0.7102,-0.15786 1.0247,-0.23082 0.8599,3.28519 1.7067,6.57337 2.5404,9.86434 0.6126,2.47281 1.2251,4.9456 1.8376,7.41835 0.1528,0.61652 0.3055,1.23304 0.4582,1.84956 0.056,0.20799 0.1056,0.41748 0.1553,0.62697 l 0,0 c 0.05,0.20949 0.099,0.41898 0.1491,0.62847 0.1343,0.62096 0.2749,1.24042 0.4154,1.85987 0.5636,2.4845 1.1272,4.96895 1.6908,7.45338 0.6353,3.33803 1.2836,6.67253 1.9449,10.0037 -0.5034,0.11642 -0.9811,0.22355 -1.4326,0.32305 -1e-4,4e-5 -3e-4,7e-5 -5e-4,1.1e-4 -1.9143,0.42197 -3.7799,0.80842 -5.5935,1.17343 -8.0865,1.62804 -16.1029,3.05587 -24.0227,4.4062 0,0 0,0 0,0 -1e-4,2e-5 -3e-4,5e-5 -4e-4,7e-5 -38.2683,6.52818 -76.5641,11.71417 -114.6997,16.59781 -2e-4,2e-5 -3e-4,4e-5 -5e-4,6e-5 -77.4688,9.92696 -155.0437,18.27081 -232.5803,26.03881 0,0 0,0 0,0 -128.3031,12.8555 -256.725,23.97614 -385.1558,34.30459 -1e-4,10e-6 -3e-4,2e-5 -4e-4,4e-5 -455.1214,36.60131 -910.8446,63.8734 -1366.5607,88.61881 -797.0957,43.28411 -1594.6311,77.09885 -2392.2315,107.26798 -202.9853,7.67794 -405.9864,14.48474 -608.9828,20.90695 -229.1954,7.25111 -458.4006,13.97582 -687.6074,20.39914 -1e-4,0 -2e-4,0 -4e-4,10e-6 -471.3472,13.2091 -942.7203,25.16148 -1414.0995,36.46658 -10e-5,0 -3e-4,0 -4e-4,0 -379.16448,9.0935 -758.33867,17.7474 -1137.520689,26.005 -1.48e-4,0 -2.95e-4,0 -4.43e-4,0 -113.955927,2.4817 -227.913538,4.9273 -341.873138,7.3218 -30.88586,0.649 -61.77239,1.2943 -92.65961,1.9332 -8.02187,0.1659 -16.04406,0.3314 -24.06657,0.4961 l -8.19465,0.1679 z"
         id="path22983"
         inkscape:connector-curvature="0"
         inkscape:original-d="m 0.75852561,864.60968 8000.38477439,0 0,40.75472 -8000.38477439,0 z" />
    </g>
  </g>
</svg>
