<?xml version="1.0" encoding="UTF-8" standalone="no"?>
<!-- Created with Inkscape (http://www.inkscape.org/) -->

<svg
   xmlns:dc="http://purl.org/dc/elements/1.1/"
   xmlns:cc="http://creativecommons.org/ns#"
   xmlns:rdf="http://www.w3.org/1999/02/22-rdf-syntax-ns#"
   xmlns:svg="http://www.w3.org/2000/svg"
   xmlns="http://www.w3.org/2000/svg"
   xmlns:xlink="http://www.w3.org/1999/xlink"
   xmlns:sodipodi="http://sodipodi.sourceforge.net/DTD/sodipodi-0.dtd"
   xmlns:inkscape="http://www.inkscape.org/namespaces/inkscape"
   width="8000"
   height="600"
   id="svg6637"
   version="1.1"
   inkscape:version="0.48.2 r9819"
   sodipodi:docname="DL3.svg"
   inkscape:export-filename="/Users/ld27/Desktop/Projects/LD27/dl3.png"
   inkscape:export-xdpi="90"
   inkscape:export-ydpi="90">
  <defs
     id="defs6639">
    <pattern
       inkscape:collect="always"
       xlink:href="#pattern3313"
       id="pattern3321"
       patternTransform="matrix(-735.46229,0,0,-10,103767.36,1750.1893)" />
    <pattern
       inkscape:collect="always"
       xlink:href="#pattern3299"
       id="pattern3313"
       patternTransform="matrix(0,-10.000001,438.10785,0,-35130.942,2171.5841)" />
    <pattern
       inkscape:collect="always"
       xlink:href="#pattern24893"
       id="pattern3305"
       patternTransform="matrix(107.18231,0,0,10,-6737.465,176)" />
    <pattern
       inkscape:collect="always"
       xlink:href="#pattern24911"
       id="pattern3303"
       patternTransform="matrix(438.10789,0,0,10,-51757.681,-102.35743)" />
    <pattern
       inkscape:collect="always"
       xlink:href="#pattern24911"
       id="pattern3299"
       patternTransform="matrix(0,-10.000001,438.10785,0,-38635.806,2311.5841)" />
    <pattern
       inkscape:collect="always"
       xlink:href="#pattern3249"
       id="pattern3267"
       patternTransform="matrix(-438.10789,0,0,7.3318262,-36887.3,208.67741)" />
    <pattern
       inkscape:collect="always"
       xlink:href="#pattern3251"
       id="pattern3265"
       patternTransform="matrix(-438.10789,0,0,7.3318262,-37938.759,166.52027)" />
    <pattern
       inkscape:collect="always"
       xlink:href="#pattern24911"
       id="pattern3251"
       patternTransform="matrix(438.10789,0,0,7.3318262,-55350.167,166.52027)" />
    <pattern
       inkscape:collect="always"
       xlink:href="#pattern24911"
       id="pattern3249"
       patternTransform="matrix(438.10789,0,0,7.3318262,-55350.167,208.67741)" />
    <pattern
       inkscape:collect="always"
       xlink:href="#pattern3219"
       id="pattern3247"
       patternTransform="matrix(22.525045,0,0,10,-10027.607,-2)" />
    <pattern
       inkscape:collect="always"
       xlink:href="#pattern3217"
       id="pattern3245"
       patternTransform="matrix(22.525045,0,0,10,-10027.607,-2)" />
    <pattern
       inkscape:collect="always"
       xlink:href="#pattern24911"
       id="pattern3235"
       patternTransform="matrix(-438.10789,0,0,10,213661.49,-102.35743)" />
    <pattern
       inkscape:collect="always"
       xlink:href="#pattern24911"
       id="pattern3233"
       patternTransform="matrix(-438.10789,0,0,10,212785.27,-102.35743)" />
    <pattern
       inkscape:collect="always"
       xlink:href="#pattern24891"
       id="pattern3219"
       patternTransform="matrix(28.434086,0,0,10,-4118.5982,-102)" />
    <pattern
       inkscape:collect="always"
       xlink:href="#pattern24891"
       id="pattern3217"
       patternTransform="matrix(28.434086,0,0,10,-4118.5982,-102)" />
    <pattern
       inkscape:collect="always"
       xlink:href="#pattern24891"
       id="pattern3215"
       patternTransform="matrix(24.7439,0,0,10,-3577.4193,-102)" />
    <pattern
       inkscape:collect="always"
       xlink:href="#pattern24891"
       id="pattern3213"
       patternTransform="matrix(24.7439,0,0,10,-3577.4193,-102)" />
    <inkscape:path-effect
       effect="bend_path"
       id="path-effect3189"
       is_visible="true"
       bendpath="M 4367.8719,839.59007 C 7239.1172,820.9234 6444.2216,783.65371 9315.4669,764.98704"
       prop_scale="1"
       scale_y_rel="false"
       vertical="false"
       bendpath-nodetypes="cc" />
    <inkscape:path-effect
       effect="bend_path"
       id="path-effect24915"
       is_visible="true"
       bendpath="M 0,0 1,0" />
    <inkscape:path-effect
       effect="bend_path"
       id="path-effect24913"
       is_visible="true"
       bendpath="m 82.153026,740.23473 c 2666.794974,0 5252.195374,144.75231 7918.990274,144.75231"
       prop_scale="1"
       scale_y_rel="false"
       vertical="false"
       bendpath-nodetypes="cc" />
    <pattern
       inkscape:collect="always"
       xlink:href="#pattern24901"
       id="pattern24911"
       patternTransform="matrix(438.10789,0,0,10,-55350.167,-102.35743)" />
    <pattern
       inkscape:collect="always"
       xlink:href="#pattern24893"
       id="pattern24901"
       patternTransform="matrix(216.64328,0,0,10,-23239.267,-98.357431)" />
    <pattern
       inkscape:collect="always"
       xlink:href="#pattern24883"
       id="pattern24893"
       patternTransform="matrix(95.378102,0,0,10,-5995.3705,176)" />
    <pattern
       inkscape:collect="always"
       xlink:href="#pattern24883"
       id="pattern24891"
       patternTransform="matrix(12.204902,0,0,10,-1764.1738,-102)" />
    <pattern
       inkscape:collect="always"
       xlink:href="#pattern22966"
       id="pattern24883"
       patternTransform="matrix(10.851696,0,0,10,-681.45435,136)" />
    <inkscape:path-effect
       effect="bend_path"
       id="path-effect24881"
       is_visible="true"
       bendpath="m -946.48624,828.4185 c 0,0 1636.12212,10.98436 2535.46634,47.85222 941.0964,38.57944 3755.4068,-31.3034 4590.5097,-26.63902 835.1029,4.66438 1821.6535,35.35534 1821.6535,35.35534"
       prop_scale="1"
       scale_y_rel="false"
       vertical="false"
       bendpath-nodetypes="cszc" />
    <pattern
       inkscape:collect="always"
       xlink:href="#pattern24869"
       id="pattern24879"
       patternTransform="matrix(0,10,-103.04665,0,10072.41,817.46463)" />
    <inkscape:path-effect
       effect="bend_path"
       id="path-effect24871"
       is_visible="true"
       bendpath="m 1312.3282,1176.315 c 620.7516,4.6067 945.5067,-17.1738 1806.4703,20.0993 373.4158,23.0978 784.5789,3.9333 1191.2087,75.0442 244.0267,42.6751 453.1986,94.7697 661.7204,127.6123 509.043,80.1753 3897.0788,100.0167 3897.0788,100.0167"
       prop_scale="1"
       scale_y_rel="false"
       vertical="false"
       bendpath-nodetypes="ccssc" />
    <pattern
       inkscape:collect="always"
       xlink:href="#pattern22966"
       id="pattern24869"
       patternTransform="matrix(103.04665,0,0,10,405.12877,416)" />
    <pattern
       inkscape:collect="always"
       xlink:href="#pattern7200"
       id="pattern23001"
       patternTransform="matrix(9.9999998,0,0,10,0,-272)" />
    <inkscape:path-effect
       effect="bend_path"
       id="path-effect22999"
       is_visible="true"
       bendpath="M -53.659925,1234.987 C 1966.6975,1200.307 2539.6289,984.39618 3957.6639,860.78932 c 953.1216,-83.08142 1063.0059,102.03328 1687.3136,90.96549 328.9955,-5.83247 606.6359,-144.49266 984.0423,-162.76777 606.0529,-29.34683 1123.3531,-41.33333 1535.3789,-110"
       prop_scale="1"
       scale_y_rel="false"
       vertical="false"
       bendpath-nodetypes="csssc" />
    <inkscape:path-effect
       effect="bend_path"
       id="path-effect22997"
       is_visible="true"
       bendpath="m -422.20832,1020.987 c 0,0 2839.72512,-57.8967 4314.65272,-113.68638 C 7888.6126,756.14411 8411.293,628.98704 8411.293,628.98704"
       prop_scale="1"
       scale_y_rel="false"
       vertical="false"
       bendpath-nodetypes="csc" />
    <inkscape:path-effect
       effect="bend_path"
       id="path-effect22977"
       is_visible="true"
       bendpath="M 0.75852561,884.98704 C 410.95623,886.11241 826.33928,696.79619 1276.1448,670.87205 c 767.7681,-44.24965 1597.5556,62.24871 2395.8388,48.28949 1195.5417,-20.9059 1580.8492,86.48769 2478.1878,142.45316 425.4124,26.53224 1575.2653,-5.52258 1850.9719,23.37234"
       prop_scale="1"
       scale_y_rel="false"
       vertical="false"
       bendpath-nodetypes="csssc" />
    <pattern
       inkscape:collect="always"
       xlink:href="#pattern22963"
       id="pattern22966"
       patternTransform="scale(9.9999998,10)" />
    <pattern
       inkscape:collect="always"
       xlink:href="#pattern22956"
       id="pattern22963"
       patternTransform="matrix(9.9999998,0,0,10,0,80)" />
    <pattern
       inkscape:collect="always"
       xlink:href="#pattern7200"
       id="pattern22956"
       patternTransform="scale(9.9999998,10)" />
    <pattern
       inkscape:collect="always"
       xlink:href="#Checkerboard"
       id="pattern7200"
       patternTransform="matrix(9.9999998,0,0,10,0,-12)" />
    <pattern
       inkscape:stockid="Checkerboard"
       id="Checkerboard"
       patternTransform="translate(0,0) scale(10,10)"
       height="2"
       width="2"
       patternUnits="userSpaceOnUse"
       inkscape:collect="always">
      <rect
         id="rect5904"
         height="1"
         width="1"
         y="0"
         x="0"
         style="fill:black;stroke:none" />
      <rect
         id="rect5906"
         height="1"
         width="1"
         y="1"
         x="1"
         style="fill:black;stroke:none" />
    </pattern>
    <filter
       id="filter7206"
       inkscape:menu-tooltip="Transparent plastic with deep colors"
       inkscape:menu="Bevels"
       inkscape:label="Deep colors plastic"
       color-interpolation-filters="sRGB">
      <feGaussianBlur
         id="feGaussianBlur7208"
         in="SourceGraphic"
         result="result6"
         stdDeviation="10" />
      <feComposite
         id="feComposite7210"
         in2="SourceGraphic"
         in="result6"
         operator="xor" />
      <feGaussianBlur
         id="feGaussianBlur7212"
         result="result2"
         stdDeviation="10" />
      <feComposite
         id="feComposite7214"
         in2="SourceGraphic"
         operator="atop"
         result="result91" />
      <feComposite
         id="feComposite7216"
         in2="result91"
         result="result4"
         in="result2"
         operator="xor" />
      <feGaussianBlur
         id="feGaussianBlur7218"
         in="result4"
         result="result3"
         stdDeviation="5" />
      <feSpecularLighting
         id="feSpecularLighting7220"
         lighting-color="rgb(255,255,255)"
         in="result3"
         result="result5"
         specularExponent="35"
         specularConstant="3"
         surfaceScale="12">
        <feDistantLight
           id="feDistantLight7222"
           elevation="45"
           azimuth="235" />
      </feSpecularLighting>
      <feComposite
         id="feComposite7224"
         in2="result5"
         in="SourceGraphic"
         k3="0.7"
         k2="0.8"
         operator="arithmetic"
         result="result7" />
      <feComposite
         id="feComposite7226"
         in2="SourceGraphic"
         in="result7"
         operator="in" />
    </filter>
    <filter
       inkscape:collect="always"
       id="filter7265"
       x="-0.58983051"
       width="2.179661"
       y="-0.58983051"
       height="2.179661">
      <feGaussianBlur
         inkscape:collect="always"
         stdDeviation="15.738609"
         id="feGaussianBlur7267" />
    </filter>
  </defs>
  <sodipodi:namedview
     id="base"
     pagecolor="#000000"
     bordercolor="#666666"
     borderopacity="1.0"
     inkscape:pageopacity="0"
     inkscape:pageshadow="2"
     inkscape:zoom="1"
     inkscape:cx="1253.7069"
     inkscape:cy="217.94865"
     inkscape:document-units="px"
     inkscape:current-layer="layer1"
     showgrid="false"
     inkscape:window-width="1261"
     inkscape:window-height="805"
     inkscape:window-x="62"
     inkscape:window-y="11"
     inkscape:window-maximized="0" />
  <metadata
     id="metadata6642">
    <rdf:RDF>
      <cc:Work
         rdf:about="">
        <dc:format>image/svg+xml</dc:format>
        <dc:type
           rdf:resource="http://purl.org/dc/dcmitype/StillImage" />
        <dc:title></dc:title>
      </cc:Work>
    </rdf:RDF>
  </metadata>
  <g
     inkscape:label="Layer 1"
     inkscape:groupmode="layer"
     id="layer1"
     transform="translate(0,-452.36217)">
    <g
       id="g7202"
       style="filter:url(#filter7206)"
       transform="translate(0,272)">
      <rect
         y="932.60968"
         x="0.75852561"
         height="40.754719"
         width="8000.3848"
         id="rect6683"
         style="opacity:0.85344825;fill:#841414;fill-opacity:1;stroke:none" />
      <rect
         style="opacity:0.85344825;fill:url(#pattern23001);fill-opacity:1;stroke:none"
         id="rect6685"
         width="8000.3848"
         height="40.754719"
         x="0.75852561"
         y="932.60968" />
    </g>
    <path
       sodipodi:type="arc"
       style="opacity:0.85344825;fill:#f3db9e;fill-opacity:1;stroke:none;filter:url(#filter7265)"
       id="path7247"
       sodipodi:cx="189.98491"
       sodipodi:cy="188.01024"
       sodipodi:rx="32.019928"
       sodipodi:ry="32.019928"
       d="m 222.00484,188.01024 c 0,17.68412 -14.33581,32.01993 -32.01993,32.01993 -17.68412,0 -32.01993,-14.33581 -32.01993,-32.01993 0,-17.68412 14.33581,-32.01993 32.01993,-32.01993 17.68412,0 32.01993,14.33581 32.01993,32.01993 z"
       transform="translate(504.07972,716.61641)" />
    <g
       id="g22973"
       transform="matrix(0.09329898,0,0,1,628.59857,-176)"
       style="filter:url(#filter7206)">
      <path
         id="rect22951"
         d="m 0.75852561,864.60968 8000.38477439,0 0,40.75472 -8000.38477439,0 z"
         style="opacity:0.85344825;fill:#841414;fill-opacity:1;stroke:none"
         inkscape:connector-curvature="0" />
      <path
         id="rect22953"
         d="m 0.75852561,864.60968 8000.38477439,0 0,40.75472 -8000.38477439,0 z"
         style="opacity:0.85344825;fill:url(#pattern3305);fill-opacity:1;stroke:none"
         inkscape:connector-curvature="0" />
    </g>
    <rect
       style="fill:#575747;fill-opacity:1;stroke:#4e515f;stroke-width:3.5;stroke-miterlimit:4;stroke-opacity:1;stroke-dasharray:none"
       id="rect24731"
       width="800"
       height="56"
       x="956"
       y="-98"
       transform="translate(0,452.36217)" />
    <g
       id="g24863"
       transform="matrix(0.09704343,0,0,1,-39.315084,-416)"
       inkscape:path-effect="#path-effect24871"
       style="filter:url(#filter7206)">
      <path
         style="opacity:0.85344825;fill:#841414;fill-opacity:1;stroke:none"
         d="m 1312.4794,1155.9382 c 140.8871,1.0459 281.8214,0.7142 422.7903,-0.1577 129.9943,-0.8045 260.0588,-1.9402 390.1981,-2.0431 145.1797,-0.1147 290.3769,1.1405 435.5569,4.0864 2e-4,0 3e-4,0 4e-4,0 186.3805,3.7847 372.6677,10.1812 558.8431,18.2421 193.4055,11.9761 387.9211,12.7009 582.7896,19.5006 203.9884,7.0816 408.7579,20.5172 610.8595,55.8192 10e-5,0 10e-5,10e-5 2e-4,10e-5 115.5838,20.2173 230.291,43.9815 344.7823,67.6091 1e-4,0 1e-4,10e-5 2e-4,10e-5 105.4924,21.7623 210.7785,43.2881 316.598,59.9466 18.1487,2.8617 36.5261,5.1411 55.0622,7.2192 10e-5,0 10e-5,0 2e-4,0 23.6291,2.646 47.362,4.8905 71.1702,6.9436 61.6225,5.3133 123.4448,9.339 185.3808,12.9399 78.1822,4.5442 156.4452,8.2945 234.7593,11.6701 91.5673,3.9465 183.1748,7.3495 274.8095,10.442 210.8857,7.117 421.8521,12.6247 632.8612,17.4213 1e-4,0 3e-4,0 4e-4,0 227.4861,5.1709 455.0026,9.4488 682.5381,13.1924 406.6937,6.6911 813.4235,11.6989 1220.1725,15.5879 10e-5,0 3e-4,0 4e-4,0 130.2413,1.2452 260.4821,2.371 390.7222,3.3435 10e-5,0 2e-4,0 4e-4,0 36.1302,0.2698 72.2591,0.5278 108.3867,0.7666 10e-5,0 3e-4,0 4e-4,0 9.4785,0.063 18.9562,0.1241 28.4331,0.1831 2e-4,0 3e-4,0 4e-4,0 2.4252,0.015 4.85,0.03 7.2743,0.045 0.6133,0 1.2263,0.01 1.8391,0.011 0.1541,9e-4 0.3081,0 0.462,0 l 0.1546,9e-4 c -0.04,6.7923 -0.08,13.5847 -0.1196,20.377 l 0,2e-4 c -0.04,6.7923 -0.08,13.5847 -0.1196,20.377 l -0.1556,-10e-4 c -0.1548,-9e-4 -0.3095,-0 -0.4641,-0 -0.6145,-0 -1.2287,-0.01 -1.8428,-0.011 -2.4278,-0.015 -4.8552,-0.03 -7.2823,-0.045 -9.4838,-0.059 -18.9668,-0.1204 -28.449,-0.1831 -1e-4,0 -2e-4,0 -4e-4,0 -36.1421,-0.239 -72.2827,-0.4971 -108.4219,-0.7669 -130.2721,-0.9727 -260.5413,-2.0988 -390.8075,-3.3443 -2e-4,0 -3e-4,0 -4e-4,0 -406.8237,-3.8896 -813.6472,-8.8986 -1220.4533,-15.5915 -227.5994,-3.7446 -455.2012,-8.0241 -682.794,-13.1974 -1e-4,0 -2e-4,0 -2e-4,0 -211.1008,-4.7983 -422.2167,-10.3103 -633.3097,-17.434 -91.7269,-3.0954 -183.4612,-6.5033 -275.1897,-10.4566 -78.4448,-3.3806 -156.9112,-7.1413 -235.3691,-11.7009 -62.1259,-3.6094 -124.3267,-7.6624 -186.5163,-13.0219 -24.0341,-2.071 -48.1116,-4.3497 -72.2042,-7.046 -1e-4,0 -2e-4,0 -3e-4,0 -18.8632,-2.1087 -37.8428,-4.4691 -56.8688,-7.4625 -107.0352,-16.8666 -212.9529,-38.5073 -318.4932,-60.2912 -1e-4,0 -2e-4,0 -3e-4,-10e-5 -114.5142,-23.6271 -228.8161,-47.3142 -343.5668,-67.3775 -1e-4,0 -2e-4,0 -4e-4,0 -199.2002,-34.8771 -402.103,-48.1179 -605.2591,-55.2347 -193.8981,-6.7579 -388.6533,-7.4938 -583.5086,-19.5338 -10e-5,0 -3e-4,0 -4e-4,0 -185.8069,-8.0431 -371.6565,-14.423 -557.5301,-18.1925 -2e-4,0 -3e-4,0 -4e-4,0 -144.8636,-2.9399 -289.7745,-4.1923 -434.698,-4.0781 -129.9234,0.1022 -259.9146,1.2377 -389.9781,2.0423 -141.0731,0.8731 -282.1923,1.2046 -423.3448,0.1574 0.1008,-13.5845 0.2016,-27.1691 0.3024,-40.7536 z"
         id="path24865"
         inkscape:connector-curvature="0"
         inkscape:original-d="m 0.75852561,864.60968 8000.38477439,0 0,40.75472 -8000.38477439,0 z" />
      <path
         style="opacity:0.85344825;fill:url(#pattern24869);fill-opacity:1;stroke:none"
         d="m 1312.4794,1155.9382 c 140.8871,1.0459 281.8214,0.7142 422.7903,-0.1577 129.9943,-0.8045 260.0588,-1.9402 390.1981,-2.0431 145.1797,-0.1147 290.3769,1.1405 435.5569,4.0864 2e-4,0 3e-4,0 4e-4,0 186.3805,3.7847 372.6677,10.1812 558.8431,18.2421 193.4055,11.9761 387.9211,12.7009 582.7896,19.5006 203.9884,7.0816 408.7579,20.5172 610.8595,55.8192 10e-5,0 10e-5,10e-5 2e-4,10e-5 115.5838,20.2173 230.291,43.9815 344.7823,67.6091 1e-4,0 1e-4,10e-5 2e-4,10e-5 105.4924,21.7623 210.7785,43.2881 316.598,59.9466 18.1487,2.8617 36.5261,5.1411 55.0622,7.2192 10e-5,0 10e-5,0 2e-4,0 23.6291,2.646 47.362,4.8905 71.1702,6.9436 61.6225,5.3133 123.4448,9.339 185.3808,12.9399 78.1822,4.5442 156.4452,8.2945 234.7593,11.6701 91.5673,3.9465 183.1748,7.3495 274.8095,10.442 210.8857,7.117 421.8521,12.6247 632.8612,17.4213 1e-4,0 3e-4,0 4e-4,0 227.4861,5.1709 455.0026,9.4488 682.5381,13.1924 406.6937,6.6911 813.4235,11.6989 1220.1725,15.5879 10e-5,0 3e-4,0 4e-4,0 130.2413,1.2452 260.4821,2.371 390.7222,3.3435 10e-5,0 2e-4,0 4e-4,0 36.1302,0.2698 72.2591,0.5278 108.3867,0.7666 10e-5,0 3e-4,0 4e-4,0 9.4785,0.063 18.9562,0.1241 28.4331,0.1831 2e-4,0 3e-4,0 4e-4,0 2.4252,0.015 4.85,0.03 7.2743,0.045 0.6133,0 1.2263,0.01 1.8391,0.011 0.1541,9e-4 0.3081,0 0.462,0 l 0.1546,9e-4 c -0.04,6.7923 -0.08,13.5847 -0.1196,20.377 l 0,2e-4 c -0.04,6.7923 -0.08,13.5847 -0.1196,20.377 l -0.1556,-10e-4 c -0.1548,-9e-4 -0.3095,-0 -0.4641,-0 -0.6145,-0 -1.2287,-0.01 -1.8428,-0.011 -2.4278,-0.015 -4.8552,-0.03 -7.2823,-0.045 -9.4838,-0.059 -18.9668,-0.1204 -28.449,-0.1831 -1e-4,0 -2e-4,0 -4e-4,0 -36.1421,-0.239 -72.2827,-0.4971 -108.4219,-0.7669 -130.2721,-0.9727 -260.5413,-2.0988 -390.8075,-3.3443 -2e-4,0 -3e-4,0 -4e-4,0 -406.8237,-3.8896 -813.6472,-8.8986 -1220.4533,-15.5915 -227.5994,-3.7446 -455.2012,-8.0241 -682.794,-13.1974 -1e-4,0 -2e-4,0 -2e-4,0 -211.1008,-4.7983 -422.2167,-10.3103 -633.3097,-17.434 -91.7269,-3.0954 -183.4612,-6.5033 -275.1897,-10.4566 -78.4448,-3.3806 -156.9112,-7.1413 -235.3691,-11.7009 -62.1259,-3.6094 -124.3267,-7.6624 -186.5163,-13.0219 -24.0341,-2.071 -48.1116,-4.3497 -72.2042,-7.046 -1e-4,0 -2e-4,0 -3e-4,0 -18.8632,-2.1087 -37.8428,-4.4691 -56.8688,-7.4625 -107.0352,-16.8666 -212.9529,-38.5073 -318.4932,-60.2912 -1e-4,0 -2e-4,0 -3e-4,-10e-5 -114.5142,-23.6271 -228.8161,-47.3142 -343.5668,-67.3775 -1e-4,0 -2e-4,0 -4e-4,0 -199.2002,-34.8771 -402.103,-48.1179 -605.2591,-55.2347 -193.8981,-6.7579 -388.6533,-7.4938 -583.5086,-19.5338 -10e-5,0 -3e-4,0 -4e-4,0 -185.8069,-8.0431 -371.6565,-14.423 -557.5301,-18.1925 -2e-4,0 -3e-4,0 -4e-4,0 -144.8636,-2.9399 -289.7745,-4.1923 -434.698,-4.0781 -129.9234,0.1022 -259.9146,1.2377 -389.9781,2.0423 -141.0731,0.8731 -282.1923,1.2046 -423.3448,0.1574 0.1008,-13.5845 0.2016,-27.1691 0.3024,-40.7536 z"
         id="path24867"
         inkscape:connector-curvature="0"
         inkscape:original-d="m 0.75852561,864.60968 8000.38477439,0 0,40.75472 -8000.38477439,0 z" />
    </g>
    <g
       transform="matrix(0,-0.09704343,1,0,-817.46462,977.46119)"
       id="g24873"
       inkscape:path-effect="#path-effect24881"
       style="filter:url(#filter7206)">
      <path
         inkscape:connector-curvature="0"
         id="path24875"
         d="m -946.34119,808.04165 18.60174,0.13242 c 17.82959,0.1307 35.65792,0.26902 53.485,0.41179 65.894,0.52774 131.7856,1.1168 197.67487,1.74873 1.5e-4,0 3e-4,0 4.5e-4,0 220.29595,2.1128 440.58863,4.70249 660.875291,7.80946 1.49e-4,10e-6 2.99e-4,10e-6 4.48e-4,10e-6 276.522581,3.90008 553.051981,8.58389 829.566961,14.72397 136.18548,3.02403 272.37563,6.40683 408.56073,10.39291 122.4558,3.58411 244.9281,7.62945 367.3905,12.64952 65.6234,2.69064 131.3268,4.53608 197.084,5.99519 10e-5,10e-6 10e-5,10e-6 2e-4,10e-6 78.4652,1.74072 156.9654,2.89564 235.4912,3.72941 187.7496,1.99345 375.5542,2.19905 563.3933,1.71578 216.2692,-0.55663 432.5514,-2.11967 648.8448,-4.16134 229.6922,-2.1682 459.3877,-4.90164 689.0886,-7.89578 439.3962,-5.72751 878.809,-12.54389 1318.2661,-18.41777 1e-4,-10e-6 3e-4,-10e-6 4e-4,-10e-6 179.6133,-2.40079 359.2497,-4.66049 538.9134,-6.23301 73.2139,-0.64082 146.4415,-1.1638 219.6827,-1.43411 59.6463,-0.22024 119.3219,-0.2875 179.0241,0.0458 212.4221,1.18659 424.8108,3.92034 637.1609,7.49444 195.7451,3.29454 391.471,7.33446 587.177,11.93727 1e-4,0 3e-4,0 4e-4,10e-6 143.5253,3.37555 287.0453,7.0508 430.5577,11.06246 2e-4,10e-6 3e-4,10e-6 5e-4,2e-5 41.0702,1.14805 82.1421,2.32364 123.2152,3.54161 1e-4,0 2e-4,10e-6 4e-4,10e-6 10.918,0.32377 21.8374,0.65055 32.758,0.98263 2e-4,10e-6 3e-4,10e-6 5e-4,10e-6 2.8115,0.0855 5.6238,0.17137 8.4367,0.25791 2e-4,0 3e-4,10e-6 5e-4,10e-6 0.7137,0.022 1.4278,0.044 2.1423,0.0661 0.1801,0.006 0.3604,0.0111 0.5409,0.0167 l 0.1817,0.006 c -0.2093,6.73609 -0.4187,13.47224 -0.6281,20.20846 l -0.01,0.31824 c -0.2094,6.73622 -0.4188,13.47237 -0.6281,20.20846 l -0.1801,-0.006 c -0.1787,-0.006 -0.3577,-0.0111 -0.5368,-0.0167 -0.7114,-0.022 -1.4231,-0.0439 -2.1352,-0.0659 -2.807,-0.0864 -5.6147,-0.17209 -8.4232,-0.25749 -10.9076,-0.33168 -21.8167,-0.65816 -32.7273,-0.9817 -2e-4,-10e-6 -3e-4,-10e-6 -5e-4,-2e-5 -41.0452,-1.21715 -82.0942,-2.39208 -123.1463,-3.53963 -143.4488,-4.00989 -286.9086,-7.68359 -430.3772,-11.05782 -2e-4,0 -3e-4,-1e-5 -5e-4,-1e-5 -195.6278,-4.60092 -391.2629,-8.63902 -586.9046,-11.93177 -212.2425,-3.57205 -424.4785,-6.30408 -636.7026,-7.48931 -59.5198,-0.33258 -119.0694,-0.2652 -178.6461,-0.0455 -73.1474,0.2699 -146.3063,0.79245 -219.4764,1.43283 -179.5599,1.57151 -359.1337,3.83051 -538.7256,6.23093 -1e-4,0 -2e-4,0 -3e-4,10e-6 -439.3987,5.87308 -878.816,12.68952 -1318.2795,18.41795 -229.7317,2.99457 -459.4761,5.72856 -689.2351,7.89742 -216.3535,2.04235 -432.729,3.60595 -649.1246,4.16303 -187.9388,0.48402 -375.9225,0.27771 -563.9308,-1.71795 -78.6371,-0.83469 -157.2943,-1.99219 -235.9622,-3.73713 -10e-5,0 -3e-4,-10e-6 -4e-4,-10e-6 -65.9178,-1.46181 -131.8763,-3.31531 -197.8496,-6.01937 -122.2464,-5.01156 -244.5597,-9.05132 -366.9135,-12.63276 -136.0648,-3.98266 -272.15909,-7.36299 -408.27308,-10.38551 -276.37194,-6.13705 -552.79134,-10.81886 -829.236968,-14.71798 -1.5e-4,-10e-6 -2.99e-4,-10e-6 -4.48e-4,-10e-6 -220.222874,-3.10608 -440.454244,-5.69504 -660.691384,-7.80728 -1.5e-4,0 -3e-4,-10e-6 -4.5e-4,-10e-6 -65.87159,-0.63175 -131.7417,-1.22062 -197.6104,-1.74815 -17.81884,-0.14271 -35.63652,-0.28094 -53.45304,-0.41155 l -18.59742,-0.13238 c 0.0967,-13.58457 0.1934,-27.16913 0.2901,-40.7537 z"
         style="opacity:0.85344825;fill:#841414;fill-opacity:1;stroke:none"
         inkscape:original-d="m 0.75852561,864.60968 8000.38477439,0 0,40.75472 -8000.38477439,0 z" />
      <path
         inkscape:connector-curvature="0"
         id="path24877"
         d="m -946.34119,808.04165 18.60174,0.13242 c 17.82959,0.1307 35.65792,0.26902 53.485,0.41179 65.894,0.52774 131.7856,1.1168 197.67487,1.74873 1.5e-4,0 3e-4,0 4.5e-4,0 220.29595,2.1128 440.58863,4.70249 660.875291,7.80946 1.49e-4,10e-6 2.99e-4,10e-6 4.48e-4,10e-6 276.522581,3.90008 553.051981,8.58389 829.566961,14.72397 136.18548,3.02403 272.37563,6.40683 408.56073,10.39291 122.4558,3.58411 244.9281,7.62945 367.3905,12.64952 65.6234,2.69064 131.3268,4.53608 197.084,5.99519 10e-5,10e-6 10e-5,10e-6 2e-4,10e-6 78.4652,1.74072 156.9654,2.89564 235.4912,3.72941 187.7496,1.99345 375.5542,2.19905 563.3933,1.71578 216.2692,-0.55663 432.5514,-2.11967 648.8448,-4.16134 229.6922,-2.1682 459.3877,-4.90164 689.0886,-7.89578 439.3962,-5.72751 878.809,-12.54389 1318.2661,-18.41777 1e-4,-10e-6 3e-4,-10e-6 4e-4,-10e-6 179.6133,-2.40079 359.2497,-4.66049 538.9134,-6.23301 73.2139,-0.64082 146.4415,-1.1638 219.6827,-1.43411 59.6463,-0.22024 119.3219,-0.2875 179.0241,0.0458 212.4221,1.18659 424.8108,3.92034 637.1609,7.49444 195.7451,3.29454 391.471,7.33446 587.177,11.93727 1e-4,0 3e-4,0 4e-4,10e-6 143.5253,3.37555 287.0453,7.0508 430.5577,11.06246 2e-4,10e-6 3e-4,10e-6 5e-4,2e-5 41.0702,1.14805 82.1421,2.32364 123.2152,3.54161 1e-4,0 2e-4,10e-6 4e-4,10e-6 10.918,0.32377 21.8374,0.65055 32.758,0.98263 2e-4,10e-6 3e-4,10e-6 5e-4,10e-6 2.8115,0.0855 5.6238,0.17137 8.4367,0.25791 2e-4,0 3e-4,10e-6 5e-4,10e-6 0.7137,0.022 1.4278,0.044 2.1423,0.0661 0.1801,0.006 0.3604,0.0111 0.5409,0.0167 l 0.1817,0.006 c -0.2093,6.73609 -0.4187,13.47224 -0.6281,20.20846 l -0.01,0.31824 c -0.2094,6.73622 -0.4188,13.47237 -0.6281,20.20846 l -0.1801,-0.006 c -0.1787,-0.006 -0.3577,-0.0111 -0.5368,-0.0167 -0.7114,-0.022 -1.4231,-0.0439 -2.1352,-0.0659 -2.807,-0.0864 -5.6147,-0.17209 -8.4232,-0.25749 -10.9076,-0.33168 -21.8167,-0.65816 -32.7273,-0.9817 -2e-4,-10e-6 -3e-4,-10e-6 -5e-4,-2e-5 -41.0452,-1.21715 -82.0942,-2.39208 -123.1463,-3.53963 -143.4488,-4.00989 -286.9086,-7.68359 -430.3772,-11.05782 -2e-4,0 -3e-4,-1e-5 -5e-4,-1e-5 -195.6278,-4.60092 -391.2629,-8.63902 -586.9046,-11.93177 -212.2425,-3.57205 -424.4785,-6.30408 -636.7026,-7.48931 -59.5198,-0.33258 -119.0694,-0.2652 -178.6461,-0.0455 -73.1474,0.2699 -146.3063,0.79245 -219.4764,1.43283 -179.5599,1.57151 -359.1337,3.83051 -538.7256,6.23093 -1e-4,0 -2e-4,0 -3e-4,10e-6 -439.3987,5.87308 -878.816,12.68952 -1318.2795,18.41795 -229.7317,2.99457 -459.4761,5.72856 -689.2351,7.89742 -216.3535,2.04235 -432.729,3.60595 -649.1246,4.16303 -187.9388,0.48402 -375.9225,0.27771 -563.9308,-1.71795 -78.6371,-0.83469 -157.2943,-1.99219 -235.9622,-3.73713 -10e-5,0 -3e-4,-10e-6 -4e-4,-10e-6 -65.9178,-1.46181 -131.8763,-3.31531 -197.8496,-6.01937 -122.2464,-5.01156 -244.5597,-9.05132 -366.9135,-12.63276 -136.0648,-3.98266 -272.15909,-7.36299 -408.27308,-10.38551 -276.37194,-6.13705 -552.79134,-10.81886 -829.236968,-14.71798 -1.5e-4,-10e-6 -2.99e-4,-10e-6 -4.48e-4,-10e-6 -220.222874,-3.10608 -440.454244,-5.69504 -660.691384,-7.80728 -1.5e-4,0 -3e-4,-10e-6 -4.5e-4,-10e-6 -65.87159,-0.63175 -131.7417,-1.22062 -197.6104,-1.74815 -17.81884,-0.14271 -35.63652,-0.28094 -53.45304,-0.41155 l -18.59742,-0.13238 c 0.0967,-13.58457 0.1934,-27.16913 0.2901,-40.7537 z"
         style="opacity:0.85344825;fill:url(#pattern24879);fill-opacity:1;stroke:none"
         inkscape:original-d="m 0.75852561,864.60968 8000.38477439,0 0,40.75472 -8000.38477439,0 z" />
    </g>
    <g
       transform="matrix(0.40414,0,0,1,1445.7782,102)"
       id="g24885"
       style="filter:url(#filter7206)">
      <path
         inkscape:connector-curvature="0"
         style="opacity:0.85344825;fill:#841414;fill-opacity:1;stroke:none"
         d="m 0.75852561,864.60968 8000.38477439,0 0,40.75472 -8000.38477439,0 z"
         id="path24887" />
      <path
         inkscape:connector-curvature="0"
         style="opacity:0.85344825;fill:url(#pattern3213);fill-opacity:1;stroke:none"
         d="m 0.75852561,864.60968 8000.38477439,0 0,40.75472 -8000.38477439,0 z"
         id="path24889" />
      <path
         id="path3191"
         d="m 0.75852561,864.60968 8000.38477439,0 0,40.75472 -8000.38477439,0 z"
         style="opacity:0.85344825;fill:url(#pattern3215);fill-opacity:1;stroke:none"
         inkscape:connector-curvature="0" />
    </g>
    <g
       id="use3181"
       transform="matrix(0.02282543,0,0,1,1171.3913,-55.64257)"
       inkscape:path-effect="#path-effect3189"
       style="filter:url(#filter7206)">
      <path
         id="path3185"
         d="m 4367.7394,819.21314 c 306.3808,-1.99188 612.7485,-4.43255 919.0961,-7.79855 220.4487,-2.4222 440.8808,-5.32873 661.2867,-9.10561 163.1551,-2.79581 326.2989,-6.10104 489.4268,-9.97664 134.5122,-3.1957 269.0332,-6.78934 403.5716,-10.41375 134.5446,-3.62463 269.1088,-7.21936 403.7012,-10.41705 163.2228,-3.87783 326.4565,-7.1849 489.6963,-9.98214 0,0 1e-4,0 2e-4,0 220.5132,-3.77865 441.0288,-6.68635 661.5372,-9.10914 306.4297,-3.36686 612.8584,-5.80806 919.2789,-7.80015 l 0.265,40.75386 c -306.3808,1.99188 -612.7485,4.43255 -919.0961,7.79855 -220.4487,2.4222 -440.8808,5.32873 -661.2867,9.10561 -163.1551,2.79581 -326.2989,6.10104 -489.4268,9.97664 -134.5122,3.1957 -269.0332,6.78934 -403.5716,10.41375 -134.5446,3.62463 -269.1088,7.21936 -403.7012,10.41705 -163.2228,3.87783 -326.4565,7.1849 -489.6963,9.98214 0,0 -1e-4,0 -2e-4,0 -220.5132,3.77865 -441.0288,6.68635 -661.5372,9.10914 -306.4297,3.36686 -612.8584,5.80806 -919.2789,7.80015 -0.088,-13.58462 -0.1767,-27.16924 -0.265,-40.75386 z"
         style="opacity:0.85344825;fill:#841414;fill-opacity:1;stroke:none"
         inkscape:connector-curvature="0"
         inkscape:original-d="m 0.75852561,864.60968 8000.38477439,0 0,40.75472 -8000.38477439,0 z" />
      <path
         id="path3187"
         d="m 4367.7394,819.21314 c 306.3808,-1.99188 612.7485,-4.43255 919.0961,-7.79855 220.4487,-2.4222 440.8808,-5.32873 661.2867,-9.10561 163.1551,-2.79581 326.2989,-6.10104 489.4268,-9.97664 134.5122,-3.1957 269.0332,-6.78934 403.5716,-10.41375 134.5446,-3.62463 269.1088,-7.21936 403.7012,-10.41705 163.2228,-3.87783 326.4565,-7.1849 489.6963,-9.98214 0,0 1e-4,0 2e-4,0 220.5132,-3.77865 441.0288,-6.68635 661.5372,-9.10914 306.4297,-3.36686 612.8584,-5.80806 919.2789,-7.80015 l 0.265,40.75386 c -306.3808,1.99188 -612.7485,4.43255 -919.0961,7.79855 -220.4487,2.4222 -440.8808,5.32873 -661.2867,9.10561 -163.1551,2.79581 -326.2989,6.10104 -489.4268,9.97664 -134.5122,3.1957 -269.0332,6.78934 -403.5716,10.41375 -134.5446,3.62463 -269.1088,7.21936 -403.7012,10.41705 -163.2228,3.87783 -326.4565,7.1849 -489.6963,9.98214 0,0 -1e-4,0 -2e-4,0 -220.5132,3.77865 -441.0288,6.68635 -661.5372,9.10914 -306.4297,3.36686 -612.8584,5.80806 -919.2789,7.80015 -0.088,-13.58462 -0.1767,-27.16924 -0.265,-40.75386 z"
         style="opacity:0.85344825;fill:url(#pattern3303);fill-opacity:1;stroke:none"
         inkscape:connector-curvature="0"
         inkscape:original-d="m 0.75852561,864.60968 8000.38477439,0 0,40.75472 -8000.38477439,0 z" />
    </g>
    <g
       id="g3193"
       transform="matrix(0.3316248,0,0,1,1822.3361,-78)"
       style="filter:url(#filter7206)">
      <path
         id="path3195"
         d="m 0.75852561,864.60968 8000.38477439,0 0,40.75472 -8000.38477439,0 z"
         style="opacity:0.85344825;fill:#841414;fill-opacity:1;stroke:none"
         inkscape:connector-curvature="0" />
      <path
         id="path3197"
         d="m 0.75852561,864.60968 8000.38477439,0 0,40.75472 -8000.38477439,0 z"
         style="opacity:0.85344825;fill:url(#pattern3217);fill-opacity:1;stroke:none"
         inkscape:connector-curvature="0" />
      <path
         inkscape:connector-curvature="0"
         style="opacity:0.85344825;fill:url(#pattern3219);fill-opacity:1;stroke:none"
         d="m 0.75852561,864.60968 8000.38477439,0 0,40.75472 -8000.38477439,0 z"
         id="path3199" />
    </g>
    <g
       inkscape:path-effect="#path-effect24913"
       id="g3201"
       transform="matrix(-0.02282543,0,0,1.3639167,2003.899,-407.11977)"
       style="filter:url(#filter7206)">
      <path
         inkscape:original-d="m 0.75852561,864.60968 8000.38477439,0 0,40.75472 -8000.38477439,0 z"
         id="path3203"
         d="m 82.153026,719.85737 c 1320.467574,0.003 2640.456874,36.01325 3960.056574,72.38389 1319.5922,36.3664 2639.2072,72.37146 3958.9337,72.36842 l 0,40.75472 C 6680.6757,905.36136 5360.6865,869.35115 4041.0868,832.98051 2721.4945,796.61411 1401.8795,760.60905 82.153026,760.61209 c 0,-13.58491 0,-27.16981 0,-40.75472 z"
         style="opacity:0.85344825;fill:#841414;fill-opacity:1;stroke:none"
         inkscape:connector-curvature="0" />
      <path
         inkscape:original-d="m 0.75852561,864.60968 8000.38477439,0 0,40.75472 -8000.38477439,0 z"
         id="path3205"
         d="m 82.153026,719.85737 c 1320.467574,0.003 2640.456874,36.01325 3960.056574,72.38389 1319.5922,36.3664 2639.2072,72.37146 3958.9337,72.36842 l 0,40.75472 C 6680.6757,905.36136 5360.6865,869.35115 4041.0868,832.98051 2721.4945,796.61411 1401.8795,760.60905 82.153026,760.61209 c 0,-13.58491 0,-27.16981 0,-40.75472 z"
         style="opacity:0.85344825;fill:url(#pattern3251);fill-opacity:1;stroke:none"
         inkscape:connector-curvature="0" />
    </g>
    <g
       inkscape:path-effect="#path-effect3189"
       transform="matrix(-0.02282543,0,0,1.3639167,2015.899,-622.6186)"
       id="g3207"
       style="filter:url(#filter7206)">
      <path
         inkscape:original-d="m 0.75852561,864.60968 8000.38477439,0 0,40.75472 -8000.38477439,0 z"
         inkscape:connector-curvature="0"
         style="opacity:0.85344825;fill:#841414;fill-opacity:1;stroke:none"
         d="m 4367.7394,819.21314 c 306.3808,-1.99188 612.7485,-4.43255 919.0961,-7.79855 220.4487,-2.4222 440.8808,-5.32873 661.2867,-9.10561 163.1551,-2.79581 326.2989,-6.10104 489.4268,-9.97664 134.5122,-3.1957 269.0332,-6.78934 403.5716,-10.41375 134.5446,-3.62463 269.1088,-7.21936 403.7012,-10.41705 163.2228,-3.87783 326.4565,-7.1849 489.6963,-9.98214 0,0 1e-4,0 2e-4,0 220.5132,-3.77865 441.0288,-6.68635 661.5372,-9.10914 306.4297,-3.36686 612.8584,-5.80806 919.2789,-7.80015 l 0.265,40.75386 c -306.3808,1.99188 -612.7485,4.43255 -919.0961,7.79855 -220.4487,2.4222 -440.8808,5.32873 -661.2867,9.10561 -163.1551,2.79581 -326.2989,6.10104 -489.4268,9.97664 -134.5122,3.1957 -269.0332,6.78934 -403.5716,10.41375 -134.5446,3.62463 -269.1088,7.21936 -403.7012,10.41705 -163.2228,3.87783 -326.4565,7.1849 -489.6963,9.98214 0,0 -1e-4,0 -2e-4,0 -220.5132,3.77865 -441.0288,6.68635 -661.5372,9.10914 -306.4297,3.36686 -612.8584,5.80806 -919.2789,7.80015 -0.088,-13.58462 -0.1767,-27.16924 -0.265,-40.75386 z"
         id="path3209" />
    </g>
    <g
       inkscape:path-effect="#path-effect24913"
       id="g3221"
       transform="matrix(-0.02282543,0,0,1,4856.9149,102.35743)"
       style="filter:url(#filter7206)">
      <path
         inkscape:original-d="m 0.75852561,864.60968 8000.38477439,0 0,40.75472 -8000.38477439,0 z"
         id="path3223"
         d="m 82.153026,719.85737 c 1320.467574,0.003 2640.456874,36.01325 3960.056574,72.38389 1319.5922,36.3664 2639.2072,72.37146 3958.9337,72.36842 l 0,40.75472 C 6680.6757,905.36136 5360.6865,869.35115 4041.0868,832.98051 2721.4945,796.61411 1401.8795,760.60905 82.153026,760.61209 c 0,-13.58491 0,-27.16981 0,-40.75472 z"
         style="opacity:0.85344825;fill:#841414;fill-opacity:1;stroke:none"
         inkscape:connector-curvature="0" />
      <path
         inkscape:original-d="m 0.75852561,864.60968 8000.38477439,0 0,40.75472 -8000.38477439,0 z"
         id="path3225"
         d="m 82.153026,719.85737 c 1320.467574,0.003 2640.456874,36.01325 3960.056574,72.38389 1319.5922,36.3664 2639.2072,72.37146 3958.9337,72.36842 l 0,40.75472 C 6680.6757,905.36136 5360.6865,869.35115 4041.0868,832.98051 2721.4945,796.61411 1401.8795,760.60905 82.153026,760.61209 c 0,-13.58491 0,-27.16981 0,-40.75472 z"
         style="opacity:0.85344825;fill:url(#pattern3233);fill-opacity:1;stroke:none"
         inkscape:connector-curvature="0" />
    </g>
    <g
       inkscape:path-effect="#path-effect3189"
       transform="matrix(-0.02282543,0,0,1,4866.9149,-55.64257)"
       id="g3227"
       style="filter:url(#filter7206)">
      <path
         inkscape:original-d="m 0.75852561,864.60968 8000.38477439,0 0,40.75472 -8000.38477439,0 z"
         inkscape:connector-curvature="0"
         style="opacity:0.85344825;fill:#841414;fill-opacity:1;stroke:none"
         d="m 4367.7394,819.21314 c 306.3808,-1.99188 612.7485,-4.43255 919.0961,-7.79855 220.4487,-2.4222 440.8808,-5.32873 661.2867,-9.10561 163.1551,-2.79581 326.2989,-6.10104 489.4268,-9.97664 134.5122,-3.1957 269.0332,-6.78934 403.5716,-10.41375 134.5446,-3.62463 269.1088,-7.21936 403.7012,-10.41705 163.2228,-3.87783 326.4565,-7.1849 489.6963,-9.98214 0,0 1e-4,0 2e-4,0 220.5132,-3.77865 441.0288,-6.68635 661.5372,-9.10914 306.4297,-3.36686 612.8584,-5.80806 919.2789,-7.80015 l 0.265,40.75386 c -306.3808,1.99188 -612.7485,4.43255 -919.0961,7.79855 -220.4487,2.4222 -440.8808,5.32873 -661.2867,9.10561 -163.1551,2.79581 -326.2989,6.10104 -489.4268,9.97664 -134.5122,3.1957 -269.0332,6.78934 -403.5716,10.41375 -134.5446,3.62463 -269.1088,7.21936 -403.7012,10.41705 -163.2228,3.87783 -326.4565,7.1849 -489.6963,9.98214 0,0 -1e-4,0 -2e-4,0 -220.5132,3.77865 -441.0288,6.68635 -661.5372,9.10914 -306.4297,3.36686 -612.8584,5.80806 -919.2789,7.80015 -0.088,-13.58462 -0.1767,-27.16924 -0.265,-40.75386 z"
         id="path3229" />
      <path
         inkscape:original-d="m 0.75852561,864.60968 8000.38477439,0 0,40.75472 -8000.38477439,0 z"
         inkscape:connector-curvature="0"
         style="opacity:0.85344825;fill:url(#pattern3235);fill-opacity:1;stroke:none"
         d="m 4367.7394,819.21314 c 306.3808,-1.99188 612.7485,-4.43255 919.0961,-7.79855 220.4487,-2.4222 440.8808,-5.32873 661.2867,-9.10561 163.1551,-2.79581 326.2989,-6.10104 489.4268,-9.97664 134.5122,-3.1957 269.0332,-6.78934 403.5716,-10.41375 134.5446,-3.62463 269.1088,-7.21936 403.7012,-10.41705 163.2228,-3.87783 326.4565,-7.1849 489.6963,-9.98214 0,0 1e-4,0 2e-4,0 220.5132,-3.77865 441.0288,-6.68635 661.5372,-9.10914 306.4297,-3.36686 612.8584,-5.80806 919.2789,-7.80015 l 0.265,40.75386 c -306.3808,1.99188 -612.7485,4.43255 -919.0961,7.79855 -220.4487,2.4222 -440.8808,5.32873 -661.2867,9.10561 -163.1551,2.79581 -326.2989,6.10104 -489.4268,9.97664 -134.5122,3.1957 -269.0332,6.78934 -403.5716,10.41375 -134.5446,3.62463 -269.1088,7.21936 -403.7012,10.41705 -163.2228,3.87783 -326.4565,7.1849 -489.6963,9.98214 0,0 -1e-4,0 -2e-4,0 -220.5132,3.77865 -441.0288,6.68635 -661.5372,9.10914 -306.4297,3.36686 -612.8584,5.80806 -919.2789,7.80015 -0.088,-13.58462 -0.1767,-27.16924 -0.265,-40.75386 z"
         id="path3231" />
    </g>
    <g
       transform="matrix(0.41862062,0,0,1,4654.2701,-178)"
       id="g3237"
       style="filter:url(#filter7206)">
      <path
         inkscape:connector-curvature="0"
         style="opacity:0.85344825;fill:#841414;fill-opacity:1;stroke:none"
         d="m 0.75852561,864.60968 8000.38477439,0 0,40.75472 -8000.38477439,0 z"
         id="path3239" />
      <path
         inkscape:connector-curvature="0"
         style="opacity:0.85344825;fill:url(#pattern3245);fill-opacity:1;stroke:none"
         d="m 0.75852561,864.60968 8000.38477439,0 0,40.75472 -8000.38477439,0 z"
         id="path3241" />
      <path
         id="path3243"
         d="m 0.75852561,864.60968 8000.38477439,0 0,40.75472 -8000.38477439,0 z"
         style="opacity:0.85344825;fill:url(#pattern3247);fill-opacity:1;stroke:none"
         inkscape:connector-curvature="0" />
    </g>
    <g
       transform="matrix(0.02282543,0,0,1.3639167,4133.2587,-407.11977)"
       id="g3253"
       inkscape:path-effect="#path-effect24913"
       style="filter:url(#filter7206)">
      <path
         inkscape:connector-curvature="0"
         style="opacity:0.85344825;fill:#841414;fill-opacity:1;stroke:none"
         d="m 82.153026,719.85737 c 1320.467574,0.003 2640.456874,36.01325 3960.056574,72.38389 1319.5922,36.3664 2639.2072,72.37146 3958.9337,72.36842 l 0,40.75472 C 6680.6757,905.36136 5360.6865,869.35115 4041.0868,832.98051 2721.4945,796.61411 1401.8795,760.60905 82.153026,760.61209 c 0,-13.58491 0,-27.16981 0,-40.75472 z"
         id="path3255"
         inkscape:original-d="m 0.75852561,864.60968 8000.38477439,0 0,40.75472 -8000.38477439,0 z" />
      <path
         inkscape:connector-curvature="0"
         style="opacity:0.85344825;fill:url(#pattern3265);fill-opacity:1;stroke:none"
         d="m 82.153026,719.85737 c 1320.467574,0.003 2640.456874,36.01325 3960.056574,72.38389 1319.5922,36.3664 2639.2072,72.37146 3958.9337,72.36842 l 0,40.75472 C 6680.6757,905.36136 5360.6865,869.35115 4041.0868,832.98051 2721.4945,796.61411 1401.8795,760.60905 82.153026,760.61209 c 0,-13.58491 0,-27.16981 0,-40.75472 z"
         id="path3257"
         inkscape:original-d="m 0.75852561,864.60968 8000.38477439,0 0,40.75472 -8000.38477439,0 z" />
    </g>
    <g
       id="g3259"
       transform="matrix(0.02282543,0,0,1.3639167,4121.2587,-622.6186)"
       inkscape:path-effect="#path-effect3189"
       style="filter:url(#filter7206)">
      <path
         id="path3261"
         d="m 4367.7394,819.21314 c 306.3808,-1.99188 612.7485,-4.43255 919.0961,-7.79855 220.4487,-2.4222 440.8808,-5.32873 661.2867,-9.10561 163.1551,-2.79581 326.2989,-6.10104 489.4268,-9.97664 134.5122,-3.1957 269.0332,-6.78934 403.5716,-10.41375 134.5446,-3.62463 269.1088,-7.21936 403.7012,-10.41705 163.2228,-3.87783 326.4565,-7.1849 489.6963,-9.98214 0,0 1e-4,0 2e-4,0 220.5132,-3.77865 441.0288,-6.68635 661.5372,-9.10914 306.4297,-3.36686 612.8584,-5.80806 919.2789,-7.80015 l 0.265,40.75386 c -306.3808,1.99188 -612.7485,4.43255 -919.0961,7.79855 -220.4487,2.4222 -440.8808,5.32873 -661.2867,9.10561 -163.1551,2.79581 -326.2989,6.10104 -489.4268,9.97664 -134.5122,3.1957 -269.0332,6.78934 -403.5716,10.41375 -134.5446,3.62463 -269.1088,7.21936 -403.7012,10.41705 -163.2228,3.87783 -326.4565,7.1849 -489.6963,9.98214 0,0 -1e-4,0 -2e-4,0 -220.5132,3.77865 -441.0288,6.68635 -661.5372,9.10914 -306.4297,3.36686 -612.8584,5.80806 -919.2789,7.80015 -0.088,-13.58462 -0.1767,-27.16924 -0.265,-40.75386 z"
         style="opacity:0.85344825;fill:#841414;fill-opacity:1;stroke:none"
         inkscape:connector-curvature="0"
         inkscape:original-d="m 0.75852561,864.60968 8000.38477439,0 0,40.75472 -8000.38477439,0 z" />
      <path
         id="path3263"
         d="m 4367.7394,819.21314 c 306.3808,-1.99188 612.7485,-4.43255 919.0961,-7.79855 220.4487,-2.4222 440.8808,-5.32873 661.2867,-9.10561 163.1551,-2.79581 326.2989,-6.10104 489.4268,-9.97664 134.5122,-3.1957 269.0332,-6.78934 403.5716,-10.41375 134.5446,-3.62463 269.1088,-7.21936 403.7012,-10.41705 163.2228,-3.87783 326.4565,-7.1849 489.6963,-9.98214 0,0 1e-4,0 2e-4,0 220.5132,-3.77865 441.0288,-6.68635 661.5372,-9.10914 306.4297,-3.36686 612.8584,-5.80806 919.2789,-7.80015 l 0.265,40.75386 c -306.3808,1.99188 -612.7485,4.43255 -919.0961,7.79855 -220.4487,2.4222 -440.8808,5.32873 -661.2867,9.10561 -163.1551,2.79581 -326.2989,6.10104 -489.4268,9.97664 -134.5122,3.1957 -269.0332,6.78934 -403.5716,10.41375 -134.5446,3.62463 -269.1088,7.21936 -403.7012,10.41705 -163.2228,3.87783 -326.4565,7.1849 -489.6963,9.98214 0,0 -1e-4,0 -2e-4,0 -220.5132,3.77865 -441.0288,6.68635 -661.5372,9.10914 -306.4297,3.36686 -612.8584,5.80806 -919.2789,7.80015 -0.088,-13.58462 -0.1767,-27.16924 -0.265,-40.75386 z"
         style="opacity:0.85344825;fill:url(#pattern3267);fill-opacity:1;stroke:none"
         inkscape:connector-curvature="0"
         inkscape:original-d="m 0.75852561,864.60968 8000.38477439,0 0,40.75472 -8000.38477439,0 z" />
    </g>
    <g
       style="filter:url(#filter7206)"
       id="g3293"
       transform="matrix(0,0.02282543,-1,0,2311.5841,881.87891)">
      <path
         id="path3295"
         d="m 0.75852561,864.60968 8000.38477439,0 0,40.75472 -8000.38477439,0 z"
         style="opacity:0.85344825;fill:#841414;fill-opacity:1;stroke:none"
         inkscape:connector-curvature="0" />
      <path
         id="path3297"
         d="m 0.75852561,864.60968 8000.38477439,0 0,40.75472 -8000.38477439,0 z"
         style="opacity:0.85344825;fill:url(#pattern3299);fill-opacity:1;stroke:none"
         inkscape:connector-curvature="0" />
    </g>
    <g
       transform="matrix(0,0.02282543,-1,0,2171.5841,801.87891)"
       id="g3307"
       style="filter:url(#filter7206)">
      <path
         inkscape:connector-curvature="0"
         style="opacity:0.85344825;fill:#841414;fill-opacity:1;stroke:none"
         d="m 0.75852561,864.60968 8000.38477439,0 0,40.75472 -8000.38477439,0 z"
         id="path3309" />
      <path
         inkscape:connector-curvature="0"
         style="opacity:0.85344825;fill:url(#pattern3313);fill-opacity:1;stroke:none"
         d="m 0.75852561,864.60968 8000.38477439,0 0,40.75472 -8000.38477439,0 z"
         id="path3311" />
    </g>
    <g
       style="filter:url(#filter7206)"
       id="g3315"
       transform="matrix(-0.01359689,0,0,-1,1410.9135,1750.1894)">
      <path
         id="path3317"
         d="m 0.75852561,864.60968 8000.38477439,0 0,40.75472 -8000.38477439,0 z"
         style="opacity:0.85344825;fill:#841414;fill-opacity:1;stroke:none"
         inkscape:connector-curvature="0" />
      <path
         id="path3319"
         d="m 0.75852561,864.60968 8000.38477439,0 0,40.75472 -8000.38477439,0 z"
         style="opacity:0.85344825;fill:url(#pattern3321);fill-opacity:1;stroke:none"
         inkscape:connector-curvature="0" />
    </g>
  </g>
</svg>
