<?xml version="1.0" encoding="UTF-8" standalone="no"?>
<!-- Created with Inkscape (http://www.inkscape.org/) -->

<svg
   xmlns:dc="http://purl.org/dc/elements/1.1/"
   xmlns:cc="http://creativecommons.org/ns#"
   xmlns:rdf="http://www.w3.org/1999/02/22-rdf-syntax-ns#"
   xmlns:svg="http://www.w3.org/2000/svg"
   xmlns="http://www.w3.org/2000/svg"
   xmlns:sodipodi="http://sodipodi.sourceforge.net/DTD/sodipodi-0.dtd"
   xmlns:inkscape="http://www.inkscape.org/namespaces/inkscape"
   width="800"
   height="600"
   id="svg13473"
   version="1.1"
   inkscape:version="0.48.2 r9819"
   sodipodi:docname="Thinking.svg"
   inkscape:export-filename="/Users/ld27/Desktop/Projects/LD27/thinking1.png"
   inkscape:export-xdpi="90"
   inkscape:export-ydpi="90">
  <defs
     id="defs13475">
    <filter
       color-interpolation-filters="sRGB"
       inkscape:label="Cutout Glow"
       inkscape:menu="Shadows and Glows"
       inkscape:menu-tooltip="In and out glow with a possible offset and colorizable flood"
       id="filter10120">
      <feOffset
         dx="3"
         dy="3"
         id="feOffset10122" />
      <feGaussianBlur
         stdDeviation="3"
         result="result8"
         id="feGaussianBlur10124" />
      <feBlend
         in2="result8"
         id="feBlend10136"
         blend="normal"
         mode="normal" />
      <feFlood
         result="result10"
         in="result8"
         flood-opacity="1"
         flood-color="rgb(0,0,0)"
         id="feFlood10126" />
      <feComposite
         result="result9"
         in="result10"
         operator="in"
         in2="SourceGraphic"
         id="feComposite10128" />
      <feBlend
         result="result11"
         in="result8"
         mode="darken"
         in2="result9"
         id="feBlend10130" />
    </filter>
    <filter
       color-interpolation-filters="sRGB"
       inkscape:menu-tooltip="Airy, fluffy, sparse white clouds"
       inkscape:menu="Overlays"
       height="1"
       width="1"
       y="0"
       x="0"
       inkscape:label="Clouds"
       id="filter9564">
      <feTurbulence
         type="fractalNoise"
         baseFrequency="0.002 0.013793103448275862"
         numOctaves="7"
         id="feTurbulence9566" />
      <feColorMatrix
         values="1 0 0 0 0 0 1 0 0 0 0 0 1 0 0 0 0 0 5 -2.7"
         result="result0"
         id="feColorMatrix9568" />
      <feFlood
         result="result1"
         flood-color="rgb(255,255,255)"
         flood-opacity="1"
         id="feFlood9570" />
      <feComposite
         result="result2"
         operator="in"
         in2="result0"
         id="feComposite9572" />
      <feComposite
         operator="atop"
         in2="SourceGraphic"
         id="feComposite9574" />
    </filter>
    <filter
       color-interpolation-filters="sRGB"
       x="-0.30000001"
       width="1.6"
       y="-0.5"
       height="2"
       inkscape:menu-tooltip="Cloudy watercolor effect"
       inkscape:label="Watercolor"
       inkscape:menu="Textures"
       id="filter9542">
      <feGaussianBlur
         result="result8"
         stdDeviation="15.525689655172414"
         id="feGaussianBlur9544" />
      <feTurbulence
         baseFrequency="0.0080000000000000002"
         numOctaves="5"
         type="fractalNoise"
         result="result7"
         seed="27"
         id="feTurbulence9546" />
      <feComposite
         in="result7"
         operator="over"
         result="result6"
         in2="result8"
         id="feComposite9548" />
      <feColorMatrix
         values="1 0 0 0 0 0 1 0 0 0 0 0 1 0 0 0 0 0 6 -4 "
         result="result9"
         id="feColorMatrix9550" />
      <feDisplacementMap
         result="result4"
         scale="50"
         yChannelSelector="A"
         xChannelSelector="A"
         in="result7"
         in2="result9"
         id="feDisplacementMap9552" />
      <feComposite
         in="result8"
         operator="in"
         result="result2"
         in2="result4"
         id="feComposite9554" />
      <feComposite
         operator="in"
         in="result2"
         result="fbSourceGraphic"
         in2="result9"
         id="feComposite9556" />
      <feComposite
         result="result91"
         in="fbSourceGraphic"
         k1="0.5"
         k2="1"
         operator="arithmetic"
         in2="fbSourceGraphic"
         id="feComposite9558"
         k3="0"
         k4="0" />
      <feBlend
         mode="multiply"
         in="fbSourceGraphic"
         in2="result91"
         id="feBlend9560" />
    </filter>
    <inkscape:path-effect
       effect="envelope"
       id="path-effect7955"
       is_visible="true"
       yy="true"
       xx="true"
       bendpath1="m 487.38435,392.56992 55.06756,-182.83761 175.26751,0"
       bendpath2="m 717.71942,209.73231 0,309.45549"
       bendpath3="m 418.69398,519.1878 299.02544,0"
       bendpath4="m 414.65337,399.64099 -6.06092,133.68895"
       bendpath1-nodetypes="ccc"
       bendpath4-nodetypes="cc" />
    <inkscape:path-effect
       effect="envelope"
       id="path-effect7319-9"
       is_visible="true"
       yy="true"
       xx="true"
       bendpath1="m 421.72444,427.92526 156.0925,31.24954 139.90248,-64.58458"
       bendpath2="m 716.70927,433.98617 1.01015,85.20163"
       bendpath3="m 418.69398,519.1878 299.02544,0"
       bendpath4="M 432.83612,342.06229 418.69398,519.1878"
       bendpath1-nodetypes="ccc"
       bendpath2-nodetypes="cc"
       bendpath4-nodetypes="cc" />
    <inkscape:path-effect
       effect="envelope"
       id="path-effect4101-3"
       is_visible="true"
       yy="false"
       xx="true"
       bendpath1="m 364.3004,221.98076 134.35028,0"
       bendpath2="m 498.65068,203.79801 0,308.10157"
       bendpath3="m 364.3004,499.77775 134.35028,0"
       bendpath4="m 364.3004,221.98076 0,277.79699"
       bendpath2-nodetypes="cc" />
    <inkscape:path-effect
       effect="envelope"
       id="path-effect4082-2"
       is_visible="true"
       yy="false"
       xx="true"
       bendpath1="m 364.3004,221.98076 134.35028,0"
       bendpath2="m 498.65068,221.98076 0,277.79699"
       bendpath3="m 364.3004,499.77775 134.35028,0"
       bendpath4="m 364.3004,221.98076 0,277.79699" />
    <inkscape:path-effect
       effect="envelope"
       id="path-effect4073-6"
       is_visible="true"
       yy="false"
       xx="true"
       bendpath1="m 364.66507,222.20296 134.35028,0"
       bendpath2="m 499.01535,222.20296 0,277.79699"
       bendpath3="m 364.66507,499.99995 134.35028,0"
       bendpath4="m 364.66507,222.20296 0,277.79699" />
    <inkscape:path-effect
       effect="envelope"
       id="path-effect4070-8"
       is_visible="true"
       yy="false"
       xx="true"
       bendpath1="m 499.01535,222.20295 219.20309,0"
       bendpath2="m 718.21844,222.20295 0,277.797"
       bendpath3="m 499.01535,499.99995 219.20309,0"
       bendpath4="m 499.01535,204.0202 0,308.10158"
       bendpath4-nodetypes="cc" />
    <inkscape:path-effect
       effect="envelope"
       id="path-effect4068-8"
       is_visible="true"
       yy="true"
       xx="false"
       bendpath1="m 498.0052,162.60395 220.21324,59.599"
       bendpath2="m 718.21844,222.20295 0,277.797"
       bendpath3="m 494.97474,558.5888 223.2437,-58.58885"
       bendpath4="m 501.03566,162.60395 0,398.00515"
       bendpath4-nodetypes="cc"
       bendpath1-nodetypes="cc"
       bendpath3-nodetypes="cc" />
    <inkscape:path-effect
       effect="sketch"
       id="path-effect4066-8"
       is_visible="true"
       nbiter_approxstrokes="5"
       strokelength="100"
       strokelength_rdm="0.3;1"
       strokeoverlap="0.3"
       strokeoverlap_rdm="0.3;1"
       ends_tolerance="0.1;1"
       parallel_offset="5;1"
       tremble_size="5;1"
       tremble_frequency="1"
       nbtangents="5"
       tgt_places_rdmness="1;1"
       tgtscale="10"
       tgtlength="100"
       tgtlength_rdm="0.3;1" />
    <inkscape:path-effect
       effect="bend_path"
       id="path-effect4064-9"
       is_visible="true"
       bendpath="m 499.01535,371.20298 c 73.0677,0.094 146.13539,-4.92154 219.20309,-10.10153"
       prop_scale="1"
       scale_y_rel="false"
       vertical="false"
       bendpath-nodetypes="cc" />
    <inkscape:path-effect
       effect="ruler"
       id="path-effect4062-8"
       is_visible="true"
       unit="px"
       mark_distance="20"
       mark_length="14"
       minor_mark_length="7"
       major_mark_steps="5"
       shift="0"
       offset="0"
       mark_dir="left"
       border_marks="both" />
    <inkscape:path-effect
       effect="construct_grid"
       id="path-effect4060-6"
       is_visible="true"
       nr_x="5"
       nr_y="5" />
    <inkscape:path-effect
       effect="envelope"
       id="path-effect4058-7"
       is_visible="true"
       yy="true"
       xx="false"
       bendpath1="M 553.56359,257.55829 718.21844,222.20295"
       bendpath2="m 718.21844,222.20295 0,277.797"
       bendpath3="m 499.01535,499.99995 219.20309,0"
       bendpath4="m 499.01535,222.20295 0,277.797"
       bendpath1-nodetypes="cc" />
    <inkscape:path-effect
       effect="bend_path"
       id="path-effect4024-9"
       is_visible="true"
       bendpath="m 499.01535,361.10145 219.20309,0"
       prop_scale="1"
       scale_y_rel="false"
       vertical="false" />
    <inkscape:path-effect
       effect="bend_path"
       id="path-effect4021-5"
       is_visible="true"
       bendpath="m 499.01535,361.10146 219.20309,0"
       prop_scale="1"
       scale_y_rel="false"
       vertical="false" />
    <inkscape:perspective
       sodipodi:type="inkscape:persp3d"
       inkscape:vp_x="174.75639 : 317.17259 : 1"
       inkscape:vp_y="0 : 1000 : 0"
       inkscape:vp_z="1481.853 : 247.47206 : 1"
       inkscape:persp3d-origin="400 : 200 : 1"
       id="perspective3905-0" />
    <filter
       id="filter7321-3"
       inkscape:label="Torn edges"
       inkscape:menu="Distort"
       inkscape:menu-tooltip="Displace the outside of shapes and pictures without altering their content"
       height="1.4"
       y="-0.2"
       width="1.4"
       x="-0.2"
       color-interpolation-filters="sRGB">
      <feTurbulence
         id="feTurbulence7323-6"
         baseFrequency="0.05"
         numOctaves="5"
         type="fractalNoise"
         result="result91" />
      <feDisplacementMap
         id="feDisplacementMap7325-8"
         in2="result91"
         scale="25"
         result="result5"
         xChannelSelector="R"
         in="SourceGraphic"
         yChannelSelector="A" />
      <feComposite
         id="feComposite7327-0"
         in2="result5"
         in="SourceGraphic"
         operator="atop" />
    </filter>
    <filter
       id="filter7622-4"
       inkscape:label="Air spray"
       inkscape:menu="Scatter"
       inkscape:menu-tooltip="Convert to small scattered particles with some thickness"
       width="2"
       height="2"
       y="-0.5"
       x="-0.5"
       color-interpolation-filters="sRGB">
      <feGaussianBlur
         id="feGaussianBlur7624-6"
         stdDeviation="0.01"
         result="result1" />
      <feBlend
         id="feBlend7626-2"
         in2="result1"
         result="fbSourceGraphic"
         mode="multiply" />
      <feTurbulence
         id="feTurbulence7628-5"
         baseFrequency="0.8"
         type="fractalNoise"
         seed="0"
         numOctaves="3"
         result="result3" />
      <feDisplacementMap
         id="feDisplacementMap7630-9"
         in2="result3"
         in="fbSourceGraphic"
         xChannelSelector="R"
         yChannelSelector="G"
         scale="50"
         result="result2" />
      <feMorphology
         id="feMorphology7632-4"
         radius="1"
         operator="dilate"
         result="result4" />
      <feBlend
         id="feBlend7634-4"
         in2="result2"
         mode="screen" />
    </filter>
    <filter
       id="filter7674-0"
       inkscape:menu="Textures"
       inkscape:label="Watercolor"
       inkscape:menu-tooltip="Cloudy watercolor effect"
       height="2"
       y="-0.5"
       width="1.6"
       x="-0.30000001"
       color-interpolation-filters="sRGB">
      <feGaussianBlur
         id="feGaussianBlur7676-0"
         stdDeviation="15"
         result="result8" />
      <feTurbulence
         id="feTurbulence7678-3"
         seed="27"
         result="result7"
         type="fractalNoise"
         numOctaves="5"
         baseFrequency="0.025" />
      <feComposite
         id="feComposite7680-9"
         in2="result8"
         result="result6"
         operator="over"
         in="result7" />
      <feColorMatrix
         id="feColorMatrix7682-7"
         result="result9"
         values="1 0 0 0 0 0 1 0 0 0 0 0 1 0 0 0 0 0 6 -4 " />
      <feDisplacementMap
         id="feDisplacementMap7684-0"
         in2="result9"
         in="result7"
         xChannelSelector="A"
         yChannelSelector="A"
         scale="50"
         result="result4" />
      <feComposite
         id="feComposite7686-8"
         in2="result4"
         result="result2"
         operator="in"
         in="result8" />
      <feComposite
         id="feComposite7688-5"
         in2="result9"
         result="fbSourceGraphic"
         in="result2"
         operator="in" />
      <feComposite
         id="feComposite7690-5"
         in2="fbSourceGraphic"
         operator="arithmetic"
         k2="1"
         k1="0.5"
         in="fbSourceGraphic"
         result="result91"
         k3="0"
         k4="0" />
      <feBlend
         id="feBlend7692-0"
         in2="result91"
         in="fbSourceGraphic"
         mode="multiply" />
    </filter>
    <filter
       id="filter7696-3"
       inkscape:menu="Textures"
       inkscape:label="Watercolor"
       inkscape:menu-tooltip="Cloudy watercolor effect"
       height="2"
       y="-0.5"
       width="1.6"
       x="-0.30000001"
       color-interpolation-filters="sRGB">
      <feGaussianBlur
         id="feGaussianBlur7698-8"
         stdDeviation="15"
         result="result8" />
      <feTurbulence
         id="feTurbulence7700-4"
         seed="27"
         result="result7"
         type="fractalNoise"
         numOctaves="5"
         baseFrequency="0.025" />
      <feComposite
         id="feComposite7702-6"
         in2="result8"
         result="result6"
         operator="over"
         in="result7" />
      <feColorMatrix
         id="feColorMatrix7704-3"
         result="result9"
         values="1 0 0 0 0 0 1 0 0 0 0 0 1 0 0 0 0 0 6 -4 " />
      <feDisplacementMap
         id="feDisplacementMap7706-1"
         in2="result9"
         in="result7"
         xChannelSelector="A"
         yChannelSelector="A"
         scale="50"
         result="result4" />
      <feComposite
         id="feComposite7708-3"
         in2="result4"
         result="result2"
         operator="in"
         in="result8" />
      <feComposite
         id="feComposite7710-2"
         in2="result9"
         result="fbSourceGraphic"
         in="result2"
         operator="in" />
      <feComposite
         id="feComposite7712-3"
         in2="fbSourceGraphic"
         operator="arithmetic"
         k2="1"
         k1="0.5"
         in="fbSourceGraphic"
         result="result91"
         k3="0"
         k4="0" />
      <feBlend
         id="feBlend7714-0"
         in2="result91"
         in="fbSourceGraphic"
         mode="multiply" />
    </filter>
    <filter
       id="filter8062"
       inkscape:label="Air spray"
       inkscape:menu="Scatter"
       inkscape:menu-tooltip="Convert to small scattered particles with some thickness"
       width="2"
       height="2"
       y="-0.5"
       x="-0.5"
       color-interpolation-filters="sRGB">
      <feGaussianBlur
         id="feGaussianBlur8064"
         stdDeviation="0.01"
         result="result1" />
      <feBlend
         id="feBlend8066"
         in2="result1"
         result="fbSourceGraphic"
         mode="multiply" />
      <feTurbulence
         id="feTurbulence8068"
         baseFrequency="0.8"
         type="fractalNoise"
         seed="0"
         numOctaves="3"
         result="result3" />
      <feDisplacementMap
         id="feDisplacementMap8070"
         in2="result3"
         in="fbSourceGraphic"
         xChannelSelector="R"
         yChannelSelector="G"
         scale="50"
         result="result2" />
      <feMorphology
         id="feMorphology8072"
         radius="1"
         operator="dilate"
         result="result4" />
      <feBlend
         id="feBlend8074"
         in2="result2"
         mode="screen" />
    </filter>
    <filter
       inkscape:collect="always"
       id="filter8080"
       x="-0.35381335"
       width="1.7076267"
       y="-0.20390904"
       height="1.4078181"
       color-interpolation-filters="sRGB">
      <feGaussianBlur
         inkscape:collect="always"
         stdDeviation="26.434001"
         id="feGaussianBlur8082" />
    </filter>
    <mask
       maskUnits="userSpaceOnUse"
       id="mask8084">
      <path
         style="fill:#c3c3c3;fill-opacity:1;stroke:none;filter:url(#filter8080)"
         d="m 351.53308,145.43135 179.30811,0 0,311.12698 -179.30811,0 z"
         id="path8086"
         inkscape:connector-curvature="0" />
    </mask>
    <inkscape:path-effect
       effect="envelope"
       id="path-effect7319"
       is_visible="true"
       yy="true"
       xx="true"
       bendpath1="m 421.72444,427.92526 156.0925,31.24954 139.90248,-64.58458"
       bendpath2="m 716.70927,433.98617 1.01015,85.20163"
       bendpath3="m 418.69398,519.1878 299.02544,0"
       bendpath4="M 432.83612,342.06229 418.69398,519.1878"
       bendpath1-nodetypes="ccc"
       bendpath2-nodetypes="cc"
       bendpath4-nodetypes="cc" />
    <inkscape:path-effect
       effect="envelope"
       id="path-effect4101"
       is_visible="true"
       yy="false"
       xx="true"
       bendpath1="m 364.3004,221.98076 134.35028,0"
       bendpath2="m 498.65068,203.79801 0,308.10157"
       bendpath3="m 364.3004,499.77775 134.35028,0"
       bendpath4="m 364.3004,221.98076 0,277.79699"
       bendpath2-nodetypes="cc" />
    <inkscape:path-effect
       effect="envelope"
       id="path-effect4082"
       is_visible="true"
       yy="false"
       xx="true"
       bendpath1="m 364.3004,221.98076 134.35028,0"
       bendpath2="m 498.65068,221.98076 0,277.79699"
       bendpath3="m 364.3004,499.77775 134.35028,0"
       bendpath4="m 364.3004,221.98076 0,277.79699" />
    <inkscape:path-effect
       effect="envelope"
       id="path-effect4073"
       is_visible="true"
       yy="false"
       xx="true"
       bendpath1="m 364.66507,222.20296 134.35028,0"
       bendpath2="m 499.01535,222.20296 0,277.79699"
       bendpath3="m 364.66507,499.99995 134.35028,0"
       bendpath4="m 364.66507,222.20296 0,277.79699" />
    <inkscape:path-effect
       effect="envelope"
       id="path-effect4070"
       is_visible="true"
       yy="false"
       xx="true"
       bendpath1="m 499.01535,222.20295 219.20309,0"
       bendpath2="m 718.21844,222.20295 0,277.797"
       bendpath3="m 499.01535,499.99995 219.20309,0"
       bendpath4="m 499.01535,204.0202 0,308.10158"
       bendpath4-nodetypes="cc" />
    <inkscape:path-effect
       effect="envelope"
       id="path-effect4068"
       is_visible="true"
       yy="true"
       xx="false"
       bendpath1="m 498.0052,162.60395 220.21324,59.599"
       bendpath2="m 718.21844,222.20295 0,277.797"
       bendpath3="m 494.97474,558.5888 223.2437,-58.58885"
       bendpath4="m 501.03566,162.60395 0,398.00515"
       bendpath4-nodetypes="cc"
       bendpath1-nodetypes="cc"
       bendpath3-nodetypes="cc" />
    <inkscape:path-effect
       effect="sketch"
       id="path-effect4066"
       is_visible="true"
       nbiter_approxstrokes="5"
       strokelength="100"
       strokelength_rdm="0.3;1"
       strokeoverlap="0.3"
       strokeoverlap_rdm="0.3;1"
       ends_tolerance="0.1;1"
       parallel_offset="5;1"
       tremble_size="5;1"
       tremble_frequency="1"
       nbtangents="5"
       tgt_places_rdmness="1;1"
       tgtscale="10"
       tgtlength="100"
       tgtlength_rdm="0.3;1" />
    <inkscape:path-effect
       effect="bend_path"
       id="path-effect4064"
       is_visible="true"
       bendpath="m 499.01535,371.20298 c 73.0677,0.094 146.13539,-4.92154 219.20309,-10.10153"
       prop_scale="1"
       scale_y_rel="false"
       vertical="false"
       bendpath-nodetypes="cc" />
    <inkscape:path-effect
       effect="ruler"
       id="path-effect4062"
       is_visible="true"
       unit="px"
       mark_distance="20"
       mark_length="14"
       minor_mark_length="7"
       major_mark_steps="5"
       shift="0"
       offset="0"
       mark_dir="left"
       border_marks="both" />
    <inkscape:path-effect
       effect="construct_grid"
       id="path-effect4060"
       is_visible="true"
       nr_x="5"
       nr_y="5" />
    <inkscape:path-effect
       effect="envelope"
       id="path-effect4058"
       is_visible="true"
       yy="true"
       xx="false"
       bendpath1="M 553.56359,257.55829 718.21844,222.20295"
       bendpath2="m 718.21844,222.20295 0,277.797"
       bendpath3="m 499.01535,499.99995 219.20309,0"
       bendpath4="m 499.01535,222.20295 0,277.797"
       bendpath1-nodetypes="cc" />
    <inkscape:path-effect
       effect="bend_path"
       id="path-effect4024"
       is_visible="true"
       bendpath="m 499.01535,361.10145 219.20309,0"
       prop_scale="1"
       scale_y_rel="false"
       vertical="false" />
    <inkscape:path-effect
       effect="bend_path"
       id="path-effect4021"
       is_visible="true"
       bendpath="m 499.01535,361.10146 219.20309,0"
       prop_scale="1"
       scale_y_rel="false"
       vertical="false" />
    <inkscape:perspective
       sodipodi:type="inkscape:persp3d"
       inkscape:vp_x="174.75639 : 317.17259 : 1"
       inkscape:vp_y="0 : 1000 : 0"
       inkscape:vp_z="1481.853 : 247.47206 : 1"
       inkscape:persp3d-origin="400 : 200 : 1"
       id="perspective3905" />
    <filter
       id="filter7321"
       inkscape:label="Torn edges"
       inkscape:menu="Distort"
       inkscape:menu-tooltip="Displace the outside of shapes and pictures without altering their content"
       height="1.4"
       y="-0.2"
       width="1.4"
       x="-0.2"
       color-interpolation-filters="sRGB">
      <feTurbulence
         id="feTurbulence7323"
         baseFrequency="0.05"
         numOctaves="5"
         type="fractalNoise"
         result="result91" />
      <feDisplacementMap
         id="feDisplacementMap7325"
         in2="result91"
         scale="25"
         result="result5"
         xChannelSelector="R"
         in="SourceGraphic"
         yChannelSelector="A" />
      <feComposite
         id="feComposite7327"
         in2="result5"
         in="SourceGraphic"
         operator="atop" />
    </filter>
    <filter
       id="filter7622"
       inkscape:label="Air spray"
       inkscape:menu="Scatter"
       inkscape:menu-tooltip="Convert to small scattered particles with some thickness"
       width="2"
       height="2"
       y="-0.5"
       x="-0.5"
       color-interpolation-filters="sRGB">
      <feGaussianBlur
         id="feGaussianBlur7624"
         stdDeviation="0.01"
         result="result1" />
      <feBlend
         id="feBlend7626"
         in2="result1"
         result="fbSourceGraphic"
         mode="multiply" />
      <feTurbulence
         id="feTurbulence7628"
         baseFrequency="0.8"
         type="fractalNoise"
         seed="0"
         numOctaves="3"
         result="result3" />
      <feDisplacementMap
         id="feDisplacementMap7630"
         in2="result3"
         in="fbSourceGraphic"
         xChannelSelector="R"
         yChannelSelector="G"
         scale="50"
         result="result2" />
      <feMorphology
         id="feMorphology7632"
         radius="1"
         operator="dilate"
         result="result4" />
      <feBlend
         id="feBlend7634"
         in2="result2"
         mode="screen" />
    </filter>
    <filter
       id="filter7674"
       inkscape:menu="Textures"
       inkscape:label="Watercolor"
       inkscape:menu-tooltip="Cloudy watercolor effect"
       height="2"
       y="-0.5"
       width="1.6"
       x="-0.30000001"
       color-interpolation-filters="sRGB">
      <feGaussianBlur
         id="feGaussianBlur7676"
         stdDeviation="15"
         result="result8" />
      <feTurbulence
         id="feTurbulence7678"
         seed="27"
         result="result7"
         type="fractalNoise"
         numOctaves="5"
         baseFrequency="0.025" />
      <feComposite
         id="feComposite7680"
         in2="result8"
         result="result6"
         operator="over"
         in="result7" />
      <feColorMatrix
         id="feColorMatrix7682"
         result="result9"
         values="1 0 0 0 0 0 1 0 0 0 0 0 1 0 0 0 0 0 6 -4 " />
      <feDisplacementMap
         id="feDisplacementMap7684"
         in2="result9"
         in="result7"
         xChannelSelector="A"
         yChannelSelector="A"
         scale="50"
         result="result4" />
      <feComposite
         id="feComposite7686"
         in2="result4"
         result="result2"
         operator="in"
         in="result8" />
      <feComposite
         id="feComposite7688"
         in2="result9"
         result="fbSourceGraphic"
         in="result2"
         operator="in" />
      <feComposite
         id="feComposite7690"
         in2="fbSourceGraphic"
         operator="arithmetic"
         k2="1"
         k1="0.5"
         in="fbSourceGraphic"
         result="result91"
         k3="0"
         k4="0" />
      <feBlend
         id="feBlend7692"
         in2="result91"
         in="fbSourceGraphic"
         mode="multiply" />
    </filter>
    <filter
       id="filter7696"
       inkscape:menu="Textures"
       inkscape:label="Watercolor"
       inkscape:menu-tooltip="Cloudy watercolor effect"
       height="2"
       y="-0.5"
       width="1.6"
       x="-0.30000001"
       color-interpolation-filters="sRGB">
      <feGaussianBlur
         id="feGaussianBlur7698"
         stdDeviation="15"
         result="result8" />
      <feTurbulence
         id="feTurbulence7700"
         seed="27"
         result="result7"
         type="fractalNoise"
         numOctaves="5"
         baseFrequency="0.025" />
      <feComposite
         id="feComposite7702"
         in2="result8"
         result="result6"
         operator="over"
         in="result7" />
      <feColorMatrix
         id="feColorMatrix7704"
         result="result9"
         values="1 0 0 0 0 0 1 0 0 0 0 0 1 0 0 0 0 0 6 -4 " />
      <feDisplacementMap
         id="feDisplacementMap7706"
         in2="result9"
         in="result7"
         xChannelSelector="A"
         yChannelSelector="A"
         scale="50"
         result="result4" />
      <feComposite
         id="feComposite7708"
         in2="result4"
         result="result2"
         operator="in"
         in="result8" />
      <feComposite
         id="feComposite7710"
         in2="result9"
         result="fbSourceGraphic"
         in="result2"
         operator="in" />
      <feComposite
         id="feComposite7712"
         in2="fbSourceGraphic"
         operator="arithmetic"
         k2="1"
         k1="0.5"
         in="fbSourceGraphic"
         result="result91"
         k3="0"
         k4="0" />
      <feBlend
         id="feBlend7714"
         in2="result91"
         in="fbSourceGraphic"
         mode="multiply" />
    </filter>
    <filter
       inkscape:collect="always"
       id="filter14532">
      <feGaussianBlur
         inkscape:collect="always"
         stdDeviation="4.1105715"
         id="feGaussianBlur14534" />
    </filter>
    <filter
       inkscape:collect="always"
       id="filter26656">
      <feGaussianBlur
         inkscape:collect="always"
         stdDeviation="5.1405586"
         id="feGaussianBlur26658" />
    </filter>
  </defs>
  <sodipodi:namedview
     id="base"
     pagecolor="#4d4d4d"
     bordercolor="#666666"
     borderopacity="1.0"
     inkscape:pageopacity="0"
     inkscape:pageshadow="2"
     inkscape:zoom="0.7"
     inkscape:cx="139.28572"
     inkscape:cy="321.88526"
     inkscape:document-units="px"
     inkscape:current-layer="layer9"
     showgrid="false"
     inkscape:window-width="980"
     inkscape:window-height="649"
     inkscape:window-x="70"
     inkscape:window-y="146"
     inkscape:window-maximized="0" />
  <metadata
     id="metadata13478">
    <rdf:RDF>
      <cc:Work
         rdf:about="">
        <dc:format>image/svg+xml</dc:format>
        <dc:type
           rdf:resource="http://purl.org/dc/dcmitype/StillImage" />
        <dc:title></dc:title>
      </cc:Work>
    </rdf:RDF>
  </metadata>
  <g
     inkscape:label="Layer 1"
     inkscape:groupmode="layer"
     id="layer1"
     transform="translate(0,-452.36218)">
    <g
       style="display:inline"
       inkscape:label="Speaking"
       id="layer9"
       transform="translate(-53.085843,178.44015)">
      <g
         style="font-size:100px;font-style:normal;font-variant:normal;font-weight:normal;font-stretch:normal;text-align:center;line-height:80.00000119000000609%;letter-spacing:0px;word-spacing:0px;writing-mode:lr-tb;text-anchor:middle;fill:#ffffff;fill-opacity:1;stroke:none;font-family:Adobe Arabic;-inkscape-font-specification:Adobe Arabic;filter:url(#filter26656)"
         id="text26022"
         inkscape:export-filename="/Users/ld27/Desktop/Projects/LD27/thinking1.png"
         inkscape:export-xdpi="90"
         inkscape:export-ydpi="90">
        <path
           d="m 734.125,481.59375 c -4.03779,1.20885 -8.30322,2.07645 -12.53125,2.71875 -1.10283,4.48687 0.86832,5.66774 4.71875,5.9375 -0.0129,13.0258 0.63445,26.79798 -0.25,39.625 -1.73387,0.54498 -5.72579,1.3445 -2.96875,-0.9375 1.6643,-3.27367 -3.44562,-7.713 -5.75,-2.96875 -5.99069,5.27228 -15.44188,-0.77761 -14.78125,-8.28125 -0.99106,-5.52184 3.63016,-12.13949 9.625,-9.3125 2.65772,1.60239 6.22597,5.34749 8.9375,1.59375 3.79785,-4.02363 -0.88132,-9.29642 -5.40625,-9.40625 -13.66535,-2.33158 -27.9781,12.29097 -22.4375,25.90625 3.41916,10.45824 18.22704,14.27692 26.09375,6.34375 3.9321,-4.62705 0.21975,7.69538 8.0625,3.46875 5.02014,-1.22986 16.039,3.539 13.84375,-4.90625 -0.60072,-1.85751 -5.90705,0.08 -4.59375,-3.84375 0.60799,-5.63212 -1.17524,-12.38824 0.8125,-17.375 3.16473,-3.06873 9.68926,-1.64911 9.3125,3.28125 -0.10735,5.24982 0.8208,11.57528 -0.3125,16.5 -5.01185,-1.37477 -6.53897,7.36348 -1.25,6.34375 5.06286,-1.16631 14.89706,2.43872 16.6875,-2 1.41927,-4.18436 -1.86928,-3.63147 -4.4375,-4.4375 -1.58294,-8.90514 2.98239,-21.16506 -5.53125,-27.65625 -4.64533,-3.03465 -10.98743,-2.17809 -15.28125,1.09375 0,-7.47917 0,-14.95833 0,-22.4375 -0.85417,0.25 -1.70833,0.5 -2.5625,0.75 z m -620.4375,6.25 c -1.49064,4.78587 2.5231,3.90267 5.65625,4.75 0.9559,11.90521 0.40732,24.24124 0.21875,36.25 -1.38878,2.95151 -8.28027,-0.74628 -6.5,4.40625 -0.21728,6.22769 10.41022,1.61061 15,3.03125 9.9504,0.52574 23.55402,-0.94026 26.84375,-12.15625 1.95616,-6.43469 -2.02471,-13.65 -8.5625,-15.375 8.77514,-4.43038 7.42757,-18.90448 -2,-21.59375 -9.86601,-2.78693 -20.49934,-0.62425 -30.65625,-1.3125 l 0,1 0,1 z m 123.34375,0 c -1.82477,5.34984 3.44694,3.41514 6.1875,5.03125 0.70684,11.94105 0.67876,24.42596 0.0312,36.375 -1.99092,2.00874 -7.77799,-0.72681 -6.21875,4 -0.21728,6.22769 10.41022,1.61061 15,3.03125 6.14588,2.9421 13.53797,-4.03986 6.09786,-6.12179 -5.63842,1.07696 -3.22783,-5.91019 -3.72286,-8.94071 0.46557,-9.38722 -0.85283,-19.38132 0.5,-28.5 2.95187,-1.28318 7.75127,0.42092 6.03125,-4.71875 -1.33309,-4.71899 -11.1591,-0.94507 -16,-2.15625 -2.23182,0.80871 -8.97437,-1.90674 -7.90625,2 z M 204.5,491.5 c -6.14645,2.71018 -4.34467,9.40561 -9.36754,10.98317 -6.79616,6.42482 6.80086,3.91717 3.43004,10.64183 1.11707,7.20366 -2.89515,17.33988 3.96875,22.53125 5.31028,3.62581 11.37915,-0.44532 16.09375,-3.0625 -0.64661,-4.55161 -2.23097,-6.44657 -6.125,-3.90625 -4.82278,1.39902 -3.56473,-6.08107 -3.65625,-8.625 0.30132,-5.8341 -2.43877,-14.70961 6.46875,-11.9375 3.89797,-2.34066 1.76139,-9.29685 -3.375,-7 -7.49472,1.82522 1.37337,-11.58942 -6.65625,-10.34375 l -0.73593,0.67706 L 204.5,491.5 z m 475.1875,0 c -6.14645,2.71018 -4.34467,9.40561 -9.36754,10.98317 -6.79616,6.42482 6.80086,3.91717 3.43004,10.64183 1.08975,7.19117 -2.86046,17.31674 3.96875,22.53125 5.35373,3.6385 11.3453,-0.46295 16.09375,-3.0625 -0.66264,-4.56777 -2.18776,-6.41502 -6.125,-3.90625 -4.77431,1.43724 -3.58265,-6.12516 -3.65625,-8.625 0.35812,-5.73563 -2.50431,-14.69181 6.34375,-11.9375 4.04738,-2.12154 2.00398,-9.38044 -3.21875,-7 -7.53571,1.85452 1.34508,-11.58051 -6.6875,-10.34375 l -0.73593,0.67706 -0.0453,0.0417 z m -546.21875,0.75 c 6.9862,-1.15015 10.28082,8.92816 5,12.75 -2.14244,1.1922 -6.9825,2.44284 -7.90625,0.40625 0.64526,-4.00527 -1.14589,-9.56087 0.625,-12.90625 0.74443,-0.15688 1.51677,-0.26024 2.28125,-0.25 z m 223.9375,7.9375 c -3.79611,1.57372 -7.84969,2.32749 -11.875,3.0625 -1.23537,4.30031 1.02567,5.26588 4.09375,6.25 0.17175,6.65495 0.62955,13.80615 -0.15625,20.28125 -4.1981,2.74092 -3.27715,-5.90054 -7.0625,-1.78125 -2.76571,1.20973 -1.06504,-4.80579 -1.5625,-6 0.18805,-7.16556 1.41669,-18.23354 -7.28125,-21.0625 -6.91733,-1.90548 -14.08151,2.51483 -18.96875,7.0625 -3.55085,5.20923 6.28338,10.77308 8.65625,4.8125 -0.16181,-3.4499 3.8175,-7.47224 6.375,-3.71875 1.58284,2.42927 1.39867,5.87255 -2.21875,6.03125 -5.67987,1.78096 -14.75381,3.91273 -13.90625,11.78125 -1.50376,-3.18552 -4.06565,-4.12236 -6.8125,-0.5625 -6.40249,4.85249 -15.36451,-1.95216 -14.28125,-9.40625 -0.90572,-5.72394 4.65982,-11.62113 10.3125,-8.25 2.45525,2.7212 7.13746,4.48395 9.03125,0.15625 2.831,-5.88934 -5.13261,-9.22197 -9.875,-8.53125 -12.45386,0.53963 -23.75479,13.78604 -18.75,26.15625 3.41916,10.45824 18.22704,14.27692 26.09375,6.34375 1.66434,-1.01102 3.53724,-4.1957 4.5,-4.375 1.12369,7.49492 11.13288,11.48849 16.84375,6.15625 2.16933,-2.34097 3.43528,2.83807 6.3125,2.375 4.86008,0.20871 7.50854,-5.20906 9.71875,-0.6875 6.04167,0 12.08333,0 18.125,0 0.81959,-4.26528 -0.16306,-6.37201 -4.34375,-6.3125 -0.60634,-6.13325 -0.1223,-12.62839 -0.1875,-18.78125 2.63092,-2.97676 9.49788,-3.79802 9.84375,1.4375 -0.0169,5.63082 0.82172,11.98032 -0.3125,17.3125 -4.03573,0.0183 -4.97625,2.22208 -4.1875,6.34375 6.51042,0 13.02083,0 19.53125,0 1.1164,-4.48786 -0.6309,-6.08713 -4.40625,-6.46875 -1.63557,-8.84242 3.12258,-20.90903 -5,-27.5 -4.73118,-3.47769 -11.3514,-2.06705 -15.53125,1.625 -0.47494,-2.6087 1.60799,-6.5002 -2.71875,-3.75 z m 59.75,0 c -3.79396,1.58267 -7.84783,2.33399 -11.875,3.0625 -0.88421,3.935 0.43736,5.61862 4.03125,6.0625 0.32296,6.64045 0.89257,14.14763 -0.1875,20.53125 -4.79526,-1.22855 -7.19434,5.80707 -2.78125,6.4375 6.04167,0 12.08333,0 18.125,0 0.8912,-4.34448 -0.29427,-6.29747 -4.34375,-6.375 -0.60973,-6.15318 -0.11969,-12.55104 -0.1875,-18.71875 2.68952,-2.97621 9.4642,-3.80672 9.8125,1.34375 0.0245,5.65964 0.90253,12.05914 -0.3125,17.40625 -4.21144,-0.55931 -5.7128,4.31785 -3.125,6.34375 6.17708,0 12.35417,0 18.53125,0 0.80734,-4.15492 -0.13283,-6.32445 -4.25,-6.34375 -2.11204,-8.71987 3.09842,-20.93034 -5.125,-27.5625 -4.70148,-3.57095 -11.40665,-2.12867 -15.59375,1.5625 -0.47494,-2.6087 1.60799,-6.5002 -2.71875,-3.75 z m 136.71875,0 c -3.81025,1.62795 -7.93908,2.45069 -12.03125,3.15625 -1.02286,4.09722 0.76173,5.41872 4.25,5.84375 0.24163,6.70644 0.74816,14.37714 -0.21875,20.71875 -2.85902,0.59027 -5.89586,0.24279 -4.59375,4.375 1.89378,4.43955 11.83458,0.83209 17,2 6.48133,2.19051 5.76292,-8.18777 -0.46875,-6.21875 -3.02129,-0.83889 -0.17872,-6.12651 -1.21875,-8.25 -0.26593,-3.82066 -0.78064,-10.78947 4.15625,-11.59375 3.84548,4.67209 10.95549,-1.02802 8.78125,-6 -2.16971,-5.5923 -10.08967,-4.57585 -12.9375,-0.125 -0.4192,-2.50077 1.51357,-6.67406 -2.71875,-3.90625 z m -385.53125,0.5 c -4.20343,0.69626 -8.35822,1.14741 -12.625,1.3125 -1.49184,4.60073 1.40735,5.39274 4.3125,6.71875 1.35299,8.46634 -3.10924,20.03054 4.59375,26.40625 4.69178,3.42283 11.29767,2.07063 15.5625,-1.46875 0.0427,6.57064 7.5273,1.51964 11.28125,1.34375 5.87976,1.30144 6.33458,-8.36282 0.0625,-6.46875 -2.62038,-0.56711 -0.10775,-5.46674 -1.03125,-7.34375 0,-6.95833 0,-13.91667 0,-20.875 -5.24697,0.91098 -10.54943,1.52277 -15.875,1.6875 -1.25803,4.68438 1.13155,6.14128 5.3125,6.3125 0.37541,5.81744 0.68519,12.8371 -0.21875,18.40625 -2.96025,2.76335 -9.40175,2.35478 -9.1875,-2.65625 -0.0219,-7.91086 -0.33396,-15.85436 0.3125,-23.75 -0.83333,0.125 -1.66667,0.25 -2.5,0.375 z M 460.75,500.40625 c -14.50287,1.88963 -21.43413,22.64656 -10.46875,32.625 6.9358,6.90977 18.81389,4.229 24.15625,-3.28125 3.10036,-2.77207 -2.77325,-8.6666 -5.0625,-3.6875 -5.26291,4.47718 -13.69708,0.46423 -13.96875,-6.375 1.30551,-2.3387 7.74349,-0.63989 10.93455,-1.60795 3.95504,0.37739 10.64093,-0.54504 9.25295,-6.1108 -0.80335,-7.07994 -7.72484,-12.61664 -14.84375,-11.5625 z m 66.15625,-0.0625 c -14.91438,1.25283 -22.33421,22.41624 -11.28125,32.59375 6.89028,7.00577 18.84928,4.38184 24.25,-3.1875 3.10036,-2.77207 -2.77325,-8.6666 -5.0625,-3.6875 -5.0172,4.30651 -13.30728,0.74218 -13.84375,-5.75 -0.38911,-3.60204 7.22704,-0.83524 9.8125,-2.15625 3.73949,-0.1179 11.15328,0.27496 10.28125,-5.53125 -0.35465,-7.06434 -7.10801,-12.98343 -14.15625,-12.28125 z m 127.59375,0 c -5.4135,1.68355 -12.34789,3.69282 -14.96875,9.1875 -1.08627,5.4175 8.02486,8.47892 9.5,2.71875 -0.10999,-3.20684 3.43337,-6.36903 5.875,-3.625 1.79941,2.38277 2.05501,6.39379 -1.90625,6.5 -5.51657,1.86569 -14.38205,3.64458 -13.9375,11.34375 -0.27058,8.42967 10.76931,14.09869 17.125,8.09375 2.17071,-2.2624 3.4724,2.90951 6.34375,2.40625 3.41473,-0.21163 11.50098,-3.28115 9.30345,-7.27945 -0.33859,-4.44747 -2.49709,-1.80368 -4.92845,-1.5018 -2.30134,-8.16461 3.09012,-20.41634 -5.625,-26.28125 -2.01423,-1.20274 -4.42289,-1.68644 -6.78125,-1.5625 z M 474,503.125 c -2.06315,5.59531 5.54243,2.4334 6.0625,7.15625 3.77558,8.88166 7.43909,17.818 11.03125,26.78125 6.16384,2.0548 6.26096,-4.81544 8.28125,-8.84375 3.39712,-6.77318 5.0906,-14.80078 9.84375,-20.65625 2.61687,-0.64109 5.33242,-0.7427 4.125,-4.4375 -1.89378,-4.43955 -11.83458,-0.83209 -17,-2 -0.70851,3.87061 -0.0102,6.23451 3.875,6.34375 -1.19935,4.46554 -3.10504,9.01928 -4.8125,13.46875 -1.588,-4.48941 -3.99729,-9.25569 -5.15625,-13.625 5.70304,0.4542 4.15174,-9.1116 -1.6875,-6.1875 -4.08465,1.13895 -13.88149,-2.39842 -14.5625,2 z m 112.59375,0 c -1.60072,4.38517 2.25328,3.1803 4.40625,4.875 3.84563,9.40235 6.69016,19.35195 9.875,29.0625 6.73507,2.25577 6.65374,-5.33739 8.87324,-9.6692 1.93698,-5.58813 3.95717,-12.29923 6.00176,-2.67455 2.36889,3.72188 2.71835,10.12861 6,12.34375 6.48987,1.68367 5.40707,-7.37726 7.92913,-11.30012 2.76409,-5.84859 3.33902,-13.28851 7.53962,-18.23113 4.33695,0.87796 5.63099,-6.4896 1.75,-6.40625 -4.65986,1.41305 -15.31832,-3.17249 -15.21875,3 -2.41313,4.70617 6.10328,1.26213 4.25,5.0625 -1.10532,2.61463 -2.24008,11.66255 -3.80979,9.13439 -2.29504,-5.57008 -4.40095,-11.21793 -6.59646,-16.85314 -6.26802,-2.06473 -6.22573,4.86818 -8.186,9.02321 -1.77949,3.92399 -3.69752,13.96225 -5.14719,4.35476 -0.24412,-2.26785 -2.80409,-5.76423 -1.82306,-7.44047 6.60067,0.0908 3.95614,-9.44465 -2.375,-6.28125 -3.71191,1.08937 -13.17831,-2.32196 -13.46875,2 z M 460.75,507 c 3.06918,-0.57863 6.37828,6.03913 1.46875,4.65625 -2.12215,-0.31074 -8.1108,1.50782 -5.25,-2.0625 0.82637,-1.32739 2.11253,-2.63131 3.78125,-2.59375 z m 65.4375,0 c 3.04666,-0.58202 6.43419,6.09414 1.4375,4.65625 -2.76904,0.0882 -8.09102,1.00117 -4.84375,-2.625 0.82378,-1.12891 1.97954,-2.06139 3.40625,-2.03125 z m -394.59375,5.90625 c 5.74197,-0.77951 13.24952,2.78173 11.8125,9.59375 0.14076,5.8624 -8.14857,9.18699 -12.3125,6.25 -1.24287,-5.11891 -0.17337,-10.603 -0.53125,-15.84375 l 1,0 0.0312,0 z m 199.03125,14.5 c -2.65153,2.89581 -7.8622,0.17658 -5.96875,-3.59375 1.49632,-1.8901 3.8642,-2.24521 5.96875,-3.4375 0,2.34375 0,4.6875 0,7.03125 z m 325.59375,0 c -2.86097,3.28966 -8.54187,-0.6314 -5.53125,-4.125 1.99471,-1.40882 7.11157,-5.12535 5.53125,0.0937 0,1.34375 0,2.6875 0,4.03125 z M 769.25,524.5 c -7.44234,0.15044 -7.46762,12.38025 -0.0937,12.59375 6.96945,1.24741 9.72259,-9.82627 3.125,-12.15625 -0.95045,-0.39218 -2.00887,-0.51953 -3.03125,-0.4375 z m -524.03125,37.09375 c -4.10808,1.30012 -8.35467,2.12267 -12.625,2.6875 -0.99058,4.31778 0.63957,5.9264 4.625,5.875 0.6828,12.91876 0.40987,26.3613 0.125,39.34375 -1.14565,1.12472 -6.27529,1.69976 -3.125,-0.53125 1.77755,-3.72863 -3.67823,-7.48692 -6.1875,-2.6875 -6.25482,4.95409 -15.48672,-1.80813 -14.34375,-9.34375 -0.76416,-5.33473 4.04716,-11.28566 9.625,-8.5625 2.70331,1.80699 6.59825,5.41303 9.1875,1.28125 3.70302,-4.60854 -2.18235,-9.41981 -6.75,-9.25 -13.3851,-1.38763 -26.75094,12.85222 -21.3125,26.125 3.45642,10.43248 18.22757,14.18379 26.0625,6.28125 3.95969,-4.67827 -0.33925,7.51474 6.875,3.46875 4.82489,-1.44594 15.76258,3.22091 15.8125,-3 2.12048,-5.2127 -6.81709,-0.7069 -5.375,-5.84375 0,-15.55208 0,-31.10417 0,-46.65625 -0.86458,0.27083 -1.72917,0.54167 -2.59375,0.8125 z m 481.125,0 c -4.30804,1.30844 -8.79702,2.11409 -13.34375,2.65625 -1.26096,4.94152 1.13015,5.92509 5.3125,6.03125 0.51889,3.05363 0.65084,7.82859 -0.0937,10.1875 -13.5721,-2.21408 -27.14536,11.76865 -22.4375,25.21875 2.43848,9.03762 14.50967,15.12627 22.39054,8.58227 -0.67521,4.72592 4.13435,2.46131 8.26571,1.35523 4.96404,0.52681 11.97441,-3.86237 6.1875,-7.0625 -2.84763,0.51391 -4.59301,-0.72611 -3.71875,-3.71875 0,-14.67708 0,-29.35417 0,-44.03125 -0.85417,0.26042 -1.70833,0.52083 -2.5625,0.78125 z m -568.03125,6.25 c -1.78449,5.3279 3.37086,3.42904 6.1875,5.03125 0.82364,11.90723 0.50465,24.18727 0.125,36.15625 -1.64907,2.50477 -8.00405,-0.71567 -6.3125,4.21875 -0.21728,6.22769 10.41022,1.61061 15,3.03125 6.16812,2.95433 13.57866,-4.06432 6.12887,-6.11914 -5.99525,1.00955 -3.06827,-6.73741 -3.75387,-9.94336 0.52815,-9.05839 -0.96555,-18.75574 0.5625,-27.53125 3.0452,-1.1861 7.74437,0.36588 6,-4.84375 -1.89378,-4.43955 -11.83458,-0.83209 -17,-2 -2.11511,0.75502 -7.9915,-1.83491 -6.9375,2 z m 508.84375,12.34375 c -3.79396,1.58267 -7.84783,2.33399 -11.875,3.0625 -0.88421,3.935 0.43736,5.61862 4.03125,6.0625 0.32296,6.64045 0.89257,14.14763 -0.1875,20.53125 -4.16033,2.59031 -3.09753,-6.01596 -6.875,-1.84375 -3.26696,0.96405 -0.90055,-5.40237 -1.65625,-7 0.37627,-6.92327 1.04746,-17.39 -7.25,-20.0625 -6.94498,-1.90268 -14.16683,2.51892 -19.0625,7.125 -3.48169,5.59855 7.17107,10.81223 8.9375,4.1875 -0.18315,-3.22983 3.54077,-6.47998 5.96875,-3.46875 1.75209,2.38318 1.85584,6.24144 -2,6.34375 -5.48103,1.88862 -14.24736,3.54458 -13.9375,11.1875 -0.41368,8.45844 10.6716,14.3008 17.0625,8.28125 2.19931,-2.31196 3.51763,2.8446 6.40625,2.375 5.61793,-0.78192 7.00881,-4.25223 10.625,-0.6875 5.35456,-0.6871 13.4516,1.36826 17.125,-1 1.22385,-4.34914 -1.1007,-4.91498 -4.375,-5.4375 -0.52257,-6.15112 -0.11948,-12.50401 -0.15625,-18.65625 2.68952,-2.97621 9.4642,-3.80672 9.8125,1.34375 0.0245,5.65964 0.90253,12.05914 -0.3125,17.40625 -4.21144,-0.55931 -5.7128,4.31785 -3.125,6.34375 6.17708,0 12.35417,0 18.53125,0 0.80734,-4.15492 -0.13283,-6.32445 -4.25,-6.34375 -2.11204,-8.71987 3.09842,-20.93034 -5.125,-27.5625 -4.70148,-3.57095 -11.40665,-2.12867 -15.59375,1.5625 -0.47494,-2.6087 1.60799,-6.5002 -2.71875,-3.75 z m -286.21875,0 c -3.76697,1.57724 -7.80412,2.34899 -11.875,3.03125 -0.91919,4.04785 0.50587,5.69153 4.1875,6.09375 0.0963,6.55163 0.80173,14.18012 -0.25,20.53125 -2.86492,0.76676 -6.32018,0.0895 -4.90625,4.4375 1.89378,4.43955 11.83458,0.83209 17,2 4.271,1.37568 3.79379,-7.57291 -0.625,-6.125 -2.00416,-3.12632 0.0128,-8.50398 -0.71875,-12.25 -0.41237,-3.76127 -0.65702,-7.97318 3.78125,-8.8125 4.41057,-2.03708 6.90798,3.07218 6,6.8125 -0.5823,4.40935 1.0311,10.17349 -0.59375,14.0625 -5.16008,-1.60241 -6.73555,7.35674 -1.40625,6.3125 5.1553,-1.16762 15.08508,2.43924 16.96875,-2 1.48689,-4.18596 -1.98382,-3.56271 -4.375,-4.5 -0.59152,-6.10216 -0.14776,-12.63055 -0.21875,-18.65625 2.68429,-2.9553 9.23892,-3.67871 9.53125,1.4375 -0.10059,5.59082 1.04288,12.17887 -0.375,17.375 -4.33281,-0.63239 -5.96347,4.13619 -3.3125,6.34375 6.30208,0 12.60417,0 18.90625,0 0.90416,-4.26199 -0.30432,-6.35193 -4.40625,-6.375 -1.78523,-8.87301 3.16439,-21.0088 -5.09375,-27.625 -5.56336,-4.21104 -12.90807,-0.88853 -17.46875,2.8125 -3.93622,-6.4595 -13.01902,-5.71159 -18.03125,-1.0625 -0.49184,-2.60474 1.63197,-6.56833 -2.71875,-3.84375 z m -111.375,0.1875 c -12.26001,0.68062 -20.8268,15.27637 -15.375,26.3125 5.12915,12.7409 25.09025,13.96726 32.0625,2.21875 7.05625,-10.22069 1.14385,-26.35569 -11.46875,-28.25 -1.72005,-0.33219 -3.46859,-0.45703 -5.21875,-0.28125 z m 34.125,-0.0312 c -8.19946,-0.14996 -15.27181,9.54359 -10.25,16.90625 2.82385,5.21474 10.48669,5.04933 13.125,9.875 0.84705,4.64606 -5.89566,4.36581 -7.40625,1 -2.70013,-2.50818 -1.62905,-8.64397 -6.6875,-6.125 -3.46705,0.46219 -0.86699,5.95768 -1.03125,8.75 1.78812,8.15518 14.19195,7.54615 20,3.8125 7.40106,-4.30981 6.49368,-16.2148 -1.46875,-19.3125 -2.75167,-1.99195 -10.04922,-2.51722 -8.34375,-7.40625 3.45529,-3.69057 7.58856,2.20644 8.13237,5.59258 3.99791,2.01536 7.05206,-2.23444 4.80513,-6.46758 -0.13342,-6.35836 -5.64905,-6.76334 -10.875,-6.625 z m 30.84375,0 c -15.02162,1.25425 -22.36496,22.56574 -11.1875,32.6875 6.92922,6.94805 18.81925,4.19555 24.15625,-3.28125 3.05312,-3.2445 -2.92101,-8.41586 -5.40625,-3.46875 -5.32239,4.25866 -13.48094,-0.13222 -13.65625,-6.6875 1.60996,-2.05314 7.66325,-0.66622 10.96573,-1.51519 3.70582,0.15731 10.20834,-0.22186 9.28427,-5.54731 -0.45012,-7.00952 -7.08712,-12.86378 -14.15625,-12.1875 z m 162.6875,0 c -14.91438,1.25283 -22.33421,22.41624 -11.28125,32.59375 6.89028,7.00577 18.84928,4.38184 24.25,-3.1875 3.10036,-2.77207 -2.77325,-8.6666 -5.0625,-3.6875 -5.0172,4.30651 -13.30728,0.74218 -13.84375,-5.75 -0.38911,-3.60204 7.22704,-0.83524 9.8125,-2.15625 3.73949,-0.1179 11.15328,0.27496 10.28125,-5.53125 -0.35465,-7.06434 -7.10801,-12.98343 -14.15625,-12.28125 z m 65.25,0 c -14.56012,1.17104 -22.23046,21.71448 -11.78125,32.09375 6.70852,7.52516 19.24129,5.17 24.71875,-2.6875 3.06134,-2.80456 -2.76425,-8.66136 -5.03125,-3.71875 -5.27666,4.5622 -13.67168,0.43937 -14,-6.34375 1.30551,-2.3387 7.74349,-0.63989 10.93455,-1.60795 3.91352,0.35177 10.62884,-0.47132 9.25295,-6.0483 -0.69481,-6.79998 -7.20592,-12.34073 -14.09375,-11.6875 z m 27.75,0 c -8.25558,-0.18243 -15.27345,9.62429 -10.25,16.90625 2.75398,5.18656 10.40752,4.98408 13.125,9.875 0.78455,4.6666 -5.92379,4.36298 -7.46875,0.9375 -2.5968,-2.51371 -1.70807,-8.52597 -6.65625,-6.0625 -3.53055,0.73497 -0.78928,6.57881 -0.82621,9.67228 1.35593,5.57612 9.28944,5.74657 14.01371,5.14022 8.25193,-0.53196 14.24174,-10.86086 9,-17.6875 -2.97757,-5.0147 -10.49303,-4.55346 -13.28125,-9.25 -0.71683,-4.45079 5.56597,-3.76283 6.625,-0.4375 1.3394,4.03514 3.20327,5.66447 7.46875,3.28125 -0.72005,-4.85116 -0.59352,-12.29236 -7.09375,-12.15625 -1.52912,-0.26407 -3.10352,-0.28659 -4.65625,-0.21875 z M 424.8125,583.125 c -2.08509,5.38622 4.94567,2.58635 5.875,6.6875 3.2277,8.13121 6.93235,16.34429 9.1875,24.71875 -1.44192,5.03116 -4.81419,8.96581 -8.96875,11.8125 -4.35415,5.64697 7.15787,12.26465 9.53125,5.4375 5.22881,-14.63941 11.59677,-29.24817 18.34375,-43.375 2.08255,-2.24824 6.8848,-0.52222 5.15625,-5.28125 -1.68081,-4.40252 -11.29512,-0.87155 -16.25,-2 -2.66376,1.97846 -0.97204,6.8626 3.0625,6.5 -1.35007,4.50712 -3.13787,8.80248 -4.75,13.21875 -1.0735,-4.31769 -4.57066,-9.72799 -4.625,-13.59375 4.8547,0.63926 3.7694,-8.6171 -1.21875,-6.125 -4.28727,1.16301 -14.50005,-2.43309 -15.34375,2 z m 85.15625,0 c -2.08509,5.38622 4.94567,2.58635 5.875,6.6875 3.2277,8.13121 6.93235,16.34429 9.1875,24.71875 -1.44192,5.03116 -4.81419,8.96581 -8.96875,11.8125 -4.35415,5.64697 7.15787,12.26465 9.53125,5.4375 5.22881,-14.63941 11.59677,-29.24817 18.34375,-43.375 2.08255,-2.24824 6.8848,-0.52222 5.15625,-5.28125 -1.68081,-4.40252 -11.29512,-0.87155 -16.25,-2 -2.66376,1.97846 -0.97204,6.8626 3.0625,6.5 -1.35007,4.50712 -3.13787,8.80248 -4.75,13.21875 -1.0735,-4.31769 -4.57066,-9.72799 -4.625,-13.59375 4.8547,0.63926 3.7694,-8.6171 -1.21875,-6.125 -4.28727,1.16301 -14.50005,-2.43309 -15.34375,2 z m -239.78125,3.5625 c 7.23245,0.6376 7.89754,9.90515 7.5,15.5625 0.53524,4.53569 -3.48355,10.55208 -8.40625,7.71875 -6.10181,-4.5928 -6.69261,-14.72635 -3.0625,-21.03125 0.83411,-1.17465 2.33067,-2.25472 3.96875,-2.25 z M 333.8125,587 c 3.10736,-0.53465 6.36763,6.0702 1.4375,4.65625 -2.22127,-0.22112 -7.99517,1.32621 -5.15625,-2.15625 0.80444,-1.32462 2.12161,-2.53944 3.71875,-2.5 z M 496.5,587 c 3.04666,-0.58202 6.43419,6.09414 1.4375,4.65625 -2.76904,0.0882 -8.09102,1.00117 -4.84375,-2.625 0.82378,-1.12891 1.97954,-2.06139 3.40625,-2.03125 z m 65.21875,0 c 3.10425,-0.56479 6.39837,6.05727 1.46875,4.65625 -2.93228,0.20881 -8.11541,0.86952 -4.75,-2.75 0.79252,-1.06296 1.90844,-1.92904 3.28125,-1.90625 z m 151.40625,0.0312 c 4.08838,-0.25695 7.13212,3.19399 5.5,7.40625 -1.2367,4.0742 2.48813,11.39394 -1.84375,13.46875 -6.90733,2.73166 -11.96888,-5.60711 -10.59375,-11.65625 0.11753,-4.03465 2.4138,-8.91805 6.9375,-9.21875 z m -72.71875,20.375 c -2.62607,2.82486 -7.81097,0.24543 -6.03125,-3.53125 1.45622,-1.93162 4.02104,-2.35156 6.03125,-3.5 0,2.34375 0,4.6875 0,7.03125 z m -549.5,39 C 84.573379,646.63302 83.563997,656.54125 89.75,658 c 6.147005,2.19248 10.43011,-7.15854 5.03125,-10.5625 -1.091737,-0.7985 -2.527596,-1.16622 -3.875,-1.03125 z m 146.875,0 c -6.33287,0.22677 -7.34225,10.135 -1.15625,11.59375 6.147,2.19248 10.43011,-7.15854 5.03125,-10.5625 -1.09174,-0.7985 -2.5276,-1.16622 -3.875,-1.03125 z m 59.96875,0 c -6.98694,0.26219 -7.07138,11.46775 -0.0937,11.8125 6.55396,0.99221 8.98203,-9.26477 2.78125,-11.4375 -0.85766,-0.30728 -1.7718,-0.48027 -2.6875,-0.375 z m 261.3125,0 c -6.3124,0.22231 -7.36849,10.14778 -1.15625,11.59375 6.12583,2.19327 10.47511,-7.18679 5.03125,-10.5625 -1.09174,-0.7985 -2.5276,-1.16622 -3.875,-1.03125 z m -444.96875,13.8125 c -3.79605,1.54197 -7.78175,2.32998 -11.84375,3 -0.89568,4.02201 0.45653,5.71059 4.1875,6.0625 0.16393,6.64015 0.83387,14.27454 -0.21875,20.53125 -2.66107,0.71272 -6.912619,1.36635 -9,-0.40625 -0.463146,-10.01118 -0.04569,-20.08969 -0.1875,-30.125 -4.756197,2.01145 -9.727792,3.14881 -14.84375,3.9375 -1.166666,4.29438 0.984312,5.43882 4.375,6.09375 -0.06486,6.58428 0.9403,14.40357 -0.375,20.625 -4.069617,0.0106 -5.487156,1.86485 -4.53125,6.34375 13.083333,0 26.16667,0 39.25,0 0.74305,-3.92442 -0.0545,-6.144 -3.65625,-6.34375 -0.78271,-6.12381 -0.0938,-12.51146 -0.28125,-18.6875 2.61663,-2.92328 9.32039,-3.99241 9.5625,1.25 0.0846,5.66039 0.7742,12.04291 -0.21875,17.40625 -4.72111,-1.17714 -6.86109,5.81105 -2.5625,6.375 5.66897,-0.65394 13.9624,1.31656 17.96875,-1 1.36411,-4.48235 -1.32473,-4.74 -4.375,-5.5 -0.68205,-6.08185 -0.16209,-12.66327 -0.21875,-18.65625 2.73165,-2.92959 9.28952,-3.7078 9.5625,1.5625 -0.0545,5.56278 0.89371,12.04606 -0.34375,17.21875 -4.15036,0.10066 -5.22415,2.02814 -4.375,6.375 6.63542,0 13.27083,0 19.90625,0 0.89493,-4.26942 -0.27763,-6.29491 -4.375,-6.375 -1.84346,-8.72588 3.08529,-21.02512 -5.0625,-27.59375 -5.55664,-4.22314 -12.97789,-0.95555 -17.53125,2.78125 -3.9083,-6.40213 -13.02821,-5.75483 -18.0625,-1.0625 -0.49571,-2.64136 1.64284,-6.69942 -2.75,-3.8125 z m 147,-0.0312 c -3.78044,1.58006 -7.83586,2.33171 -11.875,3.0625 -0.9616,4.00768 0.56851,5.5705 4.0625,6.09375 0.35712,6.67071 0.61979,13.90307 -0.0937,20.4375 -2.6415,0.5583 -7.55106,1.78424 -9.15625,-0.65625 -0.30454,-9.93272 -0.0335,-19.89884 -0.125,-29.84375 -4.51147,1.67223 -9.7675,3.67798 -14.28125,3.4375 -1.95888,-3.5705 -7.40199,-0.0102 -10.96875,-0.6875 -7.49489,-3.30548 -18.07628,-1.89159 -22.1875,5.96875 -2.91459,5.35559 -1.27921,12.70988 3.5625,16.1875 -2.64927,1.64284 -6.56382,2.53709 -4.71875,6.40625 0.25113,2.27913 3.55768,4.06413 3.71875,5.28125 -4.71627,2.32094 -7.50687,8.54538 -3.875,13.03125 9.42104,11.79505 32.71289,4.47854 33.46875,-10.65625 0.50339,-7.65789 -7.95266,-11.44621 -14.53125,-10.4375 -2.53415,-0.30359 -6.15728,1.0248 -8.15625,-0.65625 2.02211,-1.21343 5.85931,0.37022 8.4375,-0.96875 7.34001,-1.53367 12.1412,-9.76614 9.53125,-16.84375 2.34095,0.31645 3.8846,-2.0581 5.15625,-3.65625 -1.84593,4.65218 6.30942,1.2326 4.53125,6.0625 -0.55069,5.84643 0.99143,12.84564 -0.5625,18.21875 -4.26467,-0.74877 -6.2986,3.95194 -3.5,6.3125 12.95833,0 25.91667,0 38.875,0 0.83216,-4.2916 -0.20033,-6.29926 -4.28125,-6.3125 -0.80872,-5.93976 -0.10241,-12.66726 -0.25,-18.78125 2.65248,-2.88074 9.3202,-3.86519 9.8125,1.21875 -0.10645,5.58857 1.02471,12.37382 -0.3125,17.53125 -4.17228,-0.60521 -5.73127,4.30962 -3.125,6.34375 19.375,0 38.75,0 58.125,0 0.8912,-4.34448 -0.29427,-6.29747 -4.34375,-6.375 -0.60973,-6.15318 -0.11969,-12.55104 -0.1875,-18.71875 2.68952,-2.97621 9.4642,-3.80672 9.8125,1.34375 0.0245,5.65964 0.90253,12.05914 -0.3125,17.40625 -4.21144,-0.55931 -5.7128,4.31785 -3.125,6.34375 6.17708,0 12.35417,0 18.53125,0 0.80734,-4.15492 -0.13283,-6.32445 -4.25,-6.34375 -2.11204,-8.71987 3.09842,-20.93034 -5.125,-27.5625 -4.70148,-3.57095 -11.40665,-2.12867 -15.59375,1.5625 1.88006,-7.21591 -3.71658,-2.92367 -7.75,-2.09375 -4.13939,0.77518 -8.64923,0.93037 -6.84375,6.5 2.77047,-0.0929 5.20491,0.87752 4.3125,4.03125 -0.44761,5.67964 0.81124,12.10669 -0.46875,17.46875 -2.61482,0.40961 -7.49656,1.66974 -9.03125,-0.625 -0.30472,-9.96687 -0.0334,-19.96076 -0.125,-29.9375 -4.75532,2.01358 -9.72932,3.14527 -14.84375,3.9375 -0.95669,4.08695 0.60979,5.59667 4.3125,6 0.17927,6.73001 0.81976,14.27752 -0.25,20.71875 -2.55424,0.33028 -7.26087,1.73779 -8.84375,-0.6875 -1.33835,-8.63007 2.94301,-19.95754 -4.46875,-26.59375 -4.67484,-3.89975 -11.66574,-2.51932 -15.96875,1.28125 -0.47494,-2.6087 1.60799,-6.5002 -2.71875,-3.75 z m 221.3125,0 c -3.79611,1.57372 -7.84969,2.32749 -11.875,3.0625 -1.23537,4.30031 1.02567,5.26588 4.09375,6.25 0.17175,6.65495 0.62955,13.80615 -0.15625,20.28125 -4.10506,1.91715 -4.07932,-2.15002 -8.59375,-1.28125 -2.18608,-1.31179 0.0437,-6.04198 -0.78125,-8.3125 0,-6.625 0,-13.25 0,-19.875 -5.24668,0.89606 -10.54709,1.55993 -15.875,1.65625 -1.39568,4.92603 1.37571,5.94618 5.40625,6.46875 0.0532,5.9946 0.90456,12.84941 -0.40625,18.375 -3.14776,2.86997 -9.72376,1.90966 -9.09375,-3.25 -0.0227,-7.74425 -0.3094,-15.52132 0.34375,-23.25 -5.02899,0.78391 -9.98898,1.51241 -15.125,1.6875 0.68972,4.09169 -1.79379,-1.79782 -3.96875,-1.4375 -3.37491,-1.02013 -6.76459,0.99413 -8.84375,3.53125 1.76581,-7.13688 -3.69526,-3.23173 -7.90625,-2.15625 -3.5371,1.00721 -8.57128,0.42764 -6.84375,5.65625 0.51859,1.77663 5.71259,0.0894 4.4375,3.6875 -0.35966,5.98946 0.80768,13.09519 -0.4375,18.625 -3.51429,0.33994 -5.7293,1.02568 -4.5625,5.375 4.01824,2.31509 12.3197,0.34697 18,1 6.11875,0.91388 3.73851,-8.19738 -1.9375,-6.34375 -2.15165,-2.18277 0.0772,-7.20227 -0.75,-10.125 -0.56282,-3.32589 0.0614,-9.09095 4.15625,-9.59375 2.89007,3.47377 8.31862,1.16726 9,-2.9375 3.15154,-0.0623 4.82774,1.41786 4.03125,4.53125 0.58357,7.99988 -2.72052,20.30335 6.5,24.4375 4.55429,1.94169 9.84905,0.43046 13.59375,-2.625 0.0345,6.63551 7.56337,1.48336 11.34375,1.375 4.39676,-0.49191 7.23679,2.62368 13.4375,1.28125 5.55885,1.83169 14.77303,-1.43745 8.28125,-5.90625 -4.98619,0.77848 -1.85731,-6.00489 -2.75,-8.59375 0.68907,-4.33657 -2.33363,-11.24932 3.40625,-12.59375 3.76557,-1.94232 7.53555,1.64098 6.65625,5.59375 -0.40151,4.90465 0.73068,10.54836 -0.46875,15.15625 -4.03573,0.0183 -4.97625,2.22208 -4.1875,6.34375 13.07292,0 26.14583,0 39.21875,0 0.81959,-4.26528 -0.16306,-6.37201 -4.34375,-6.3125 -0.60634,-6.13325 -0.1223,-12.62839 -0.1875,-18.78125 2.7135,-2.97458 9.43319,-3.84048 9.8125,1.34375 0.0275,5.65198 0.89572,12.05753 -0.3125,17.40625 -4.21144,-0.55931 -5.7128,4.31785 -3.125,6.34375 19.375,0 38.75,0 58.125,0 0.81959,-4.26528 -0.16306,-6.37201 -4.34375,-6.3125 -0.60634,-6.13325 -0.1223,-12.62839 -0.1875,-18.78125 2.63092,-2.97676 9.49788,-3.79802 9.84375,1.4375 -0.0169,5.63082 0.82172,11.98032 -0.3125,17.3125 -4.03573,0.0183 -4.97625,2.22208 -4.1875,6.34375 6.51042,0 13.02083,0 19.53125,0 1.1164,-4.48786 -0.6309,-6.08713 -4.40625,-6.46875 -1.63557,-8.84242 3.12258,-20.90903 -5,-27.5 -4.73118,-3.47769 -11.3514,-2.06705 -15.53125,1.625 1.8837,-7.23222 -3.73976,-2.90174 -7.78125,-2.09375 -4.13478,0.77034 -8.60974,0.95056 -6.8125,6.5 2.62896,-0.001 5.33151,0.74342 4.28125,3.96875 -0.4825,5.67517 0.85808,12.20571 -0.46875,17.53125 -2.63776,0.44033 -7.28258,1.67441 -9,-0.625 -0.38798,-9.96226 -0.0366,-19.96181 -0.15625,-29.9375 -4.75648,2.00803 -9.72747,3.15514 -14.84375,3.9375 -0.8493,3.8811 0.41516,5.6687 4.0625,5.875 1.41209,5.42385 0.0277,12.41655 0.46875,18.3125 0.89443,4.73847 -5.7787,2.78279 -8.40625,2.71875 -2.58012,-1.0959 -0.0557,-6.15647 -1,-8.34375 0.47036,-7.34367 0.92048,-18.4574 -7.90625,-21 -4.39408,-1.44604 -8.97196,0.40932 -12.40625,3.15625 1.88006,-7.21591 -3.71658,-2.92367 -7.75,-2.09375 -4.13934,0.77106 -8.64915,0.93394 -6.84375,6.5 2.65713,0.007 5.31005,0.73586 4.28125,3.96875 -0.46418,5.68386 0.82039,12.17429 -0.4375,17.53125 -2.49794,0.35814 -7.45653,1.86431 -8.875,-0.59375 -1.29564,-8.68327 3.07597,-20.51063 -4.875,-26.9375 -4.73118,-3.47769 -11.3514,-2.06705 -15.53125,1.625 -0.47494,-2.6087 1.60799,-6.5002 -2.71875,-3.75 z m -305.0625,0.15625 c -5.38338,1.70446 -12.25021,3.66339 -14.9375,9.09375 -1.27318,5.4364 8.035,8.60169 9.46875,2.8125 -0.0355,-3.07157 3.27673,-6.48894 5.875,-3.59375 1.84608,2.32635 1.988,6.34545 -1.90625,6.46875 -5.67987,1.78096 -14.75381,3.91273 -13.90625,11.78125 0.0522,8.21258 10.85872,13.50583 17.0625,7.6875 2.16933,-2.34097 3.43528,2.83807 6.3125,2.375 3.40269,0.0542 10.23283,-3.21663 9.75,-6.34375 -0.70117,-3.28008 -1.83756,-4.65316 -4.46875,-2.53125 -2.48983,0.64843 -0.75301,-4.90675 -1.3125,-6.09375 0.18805,-7.16556 1.41669,-18.23354 -7.28125,-21.0625 -1.49257,-0.4756 -3.0819,-0.69166 -4.65625,-0.59375 z m 186.1875,0 c -9.31295,0.0436 -17.16051,10.18501 -12.90625,19 0.5402,1.97762 3.15573,3.73242 3.6875,4.96875 -2.69092,1.51862 -6.28797,2.64064 -4.46875,6.34375 0.22152,2.25539 3.56694,3.99651 3.65625,5.21875 -5.04852,2.46817 -7.56597,9.17927 -3.40625,13.625 9.97516,11.13262 33.081,3.34763 33,-12 -0.11682,-8.16868 -9.66458,-10.80202 -16.375,-9.625 -0.88207,-0.073 -7.43993,0.72654 -5.75,-1.28125 8.90349,1.99762 19.68041,-4.93932 17.96875,-14.84375 -1.64298,-3.24394 2.33492,-2.10736 3.5625,-4.71875 3.22123,-2.30039 1.68489,-7.74238 -2.70195,-5.61632 -4.84605,1.44258 -9.27318,-0.1954 -13.98555,-1.07118 -0.75942,-0.0293 -1.52235,-0.061 -2.28125,0 z m 261.34375,0 c -9.36861,0.008 -17.15718,10.24656 -12.90625,19.03125 0.0814,2.11742 4.48341,4.00758 3.21875,5.25 -2.77237,1.15163 -5.63529,2.65467 -4.03125,6.03125 0.25245,2.22032 3.5808,4.03286 3.6875,5.21875 -5.01913,2.43936 -7.53256,9.09736 -3.5,13.5625 10.00216,11.20674 33.13123,3.44797 33.09375,-11.9375 -0.10839,-7.81156 -8.9744,-10.71536 -15.53068,-9.65362 -1.7864,-0.37186 -6.31741,1.05645 -7.03182,-0.87763 3.36629,-0.45844 7.99417,0.21937 11.375,-1.96875 5.73634,-2.61053 8.57721,-9.77937 6.46875,-15.65625 3.54216,-0.0892 7.99023,-5.35048 4.71875,-8.375 -5.55375,1.02373 -11.0261,1.48156 -16.34375,-0.5625 -1.06959,-0.0791 -2.14711,-0.13833 -3.21875,-0.0625 z m 54.40625,0 c -5.40048,1.71129 -12.34143,3.69284 -14.9375,9.1875 -1.11511,5.37684 8.01458,8.49376 9.5,2.71875 -0.18315,-3.22983 3.54077,-6.47998 5.96875,-3.46875 1.75209,2.38318 1.85584,6.24144 -2,6.34375 -5.48103,1.88862 -14.24736,3.54458 -13.9375,11.1875 -0.41368,8.45844 10.6716,14.3008 17.0625,8.28125 2.19931,-2.31196 3.51763,2.8446 6.40625,2.375 3.40068,-0.23844 11.50826,-3.27346 9.30345,-7.27945 -0.34131,-4.46587 -2.51343,-1.77661 -4.92845,-1.5018 -2.29905,-8.09748 3.08645,-20.43527 -5.625,-26.28125 -2.04038,-1.21094 -4.44791,-1.69237 -6.8125,-1.5625 z m 81.46875,0 c -5.4135,1.68355 -12.34789,3.69282 -14.96875,9.1875 -1.08627,5.4175 8.02486,8.47892 9.5,2.71875 -0.10999,-3.20684 3.43337,-6.36903 5.875,-3.625 1.79941,2.38277 2.05501,6.39379 -1.90625,6.5 -5.51657,1.86569 -14.38205,3.64458 -13.9375,11.34375 -0.27058,8.42967 10.76931,14.09869 17.125,8.09375 2.17071,-2.2624 3.4724,2.90951 6.34375,2.40625 3.41473,-0.21163 11.50098,-3.28115 9.30345,-7.27945 -0.33859,-4.44747 -2.49709,-1.80368 -4.92845,-1.5018 -2.30134,-8.16461 3.09012,-20.41634 -5.625,-26.28125 -2.01423,-1.20274 -4.42289,-1.68644 -6.78125,-1.5625 z m -67.90625,2.78125 c -1.60072,4.38517 2.25328,3.1803 4.40625,4.875 3.84563,9.40235 6.69016,19.35195 9.875,29.0625 6.73507,2.25577 6.65374,-5.33739 8.87324,-9.6692 1.93698,-5.58813 3.95717,-12.29923 6.00176,-2.67455 2.36889,3.72188 2.71835,10.12861 6,12.34375 6.48987,1.68367 5.40707,-7.37726 7.92913,-11.30012 2.76409,-5.84859 3.33902,-13.28851 7.53962,-18.23113 4.33695,0.87796 5.63099,-6.4896 1.75,-6.40625 -4.65986,1.41305 -15.31832,-3.17249 -15.21875,3 -2.41313,4.70617 6.10328,1.26213 4.25,5.0625 -1.10532,2.61463 -2.24008,11.66255 -3.80979,9.13439 -2.29504,-5.57008 -4.40095,-11.21793 -6.59646,-16.85314 -6.26802,-2.06473 -6.22573,4.86818 -8.186,9.02321 -1.77949,3.92399 -3.69752,13.96225 -5.14719,4.35476 -0.24412,-2.26785 -2.80409,-5.76423 -1.82306,-7.44047 6.60067,0.0908 3.95614,-9.44465 -2.375,-6.28125 -3.71191,1.08937 -13.17831,-2.32196 -13.46875,2 z m 80.8125,0 c -2.04799,5.46407 4.99121,2.48242 5.90625,6.78125 3.16832,8.12735 6.97777,16.32181 9.125,24.6875 -1.4743,4.97609 -4.82872,8.99695 -9.03125,11.8125 -4.23283,5.8341 7.59275,12.22121 9.6875,5.15625 5.30027,-14.69026 11.5595,-29.17652 18.3125,-43.21875 2.16274,-2.13228 6.7798,-0.53684 5.09375,-5.21875 -1.67163,-4.40129 -11.27311,-0.87272 -16.21875,-2 -2.60127,1.91293 -1.06656,6.91234 3.03125,6.40625 -1.28062,4.43247 -3.06958,8.88838 -4.75,13.28125 -1.07263,-4.30569 -4.573,-9.70797 -4.625,-13.5625 4.8547,0.63926 3.7694,-8.6171 -1.21875,-6.125 -4.27812,1.16273 -14.47744,-2.43287 -15.3125,2 z m -564.0625,3.4375 c 5.32235,0.8176 5.49504,8.61321 3.375,12.375 -2.72835,4.02331 -7.69125,-0.88937 -7.09375,-4.5625 -0.24191,-2.76133 0.20287,-7.55786 3.71875,-7.8125 z m 154.46875,0 c 5.41863,0.79674 5.67198,8.98693 3.15625,12.71875 -3.55515,3.71011 -7.65067,-2.35358 -6.90625,-5.90625 -0.0792,-2.49789 0.62578,-6.64066 3.75,-6.8125 z m 261.34375,0 c 5.31899,0.81653 5.49285,8.64283 3.40625,12.375 -2.25771,3.5538 -7.02865,0.14723 -6.9375,-3.4375 -0.58071,-2.95663 -0.28675,-8.67824 3.53125,-8.9375 z M 179.0625,687.40625 c -2.65153,2.89581 -7.8622,0.17658 -5.96875,-3.59375 1.49632,-1.8901 3.8642,-2.24521 5.96875,-3.4375 0,2.34375 0,4.6875 0,7.03125 z m 501.96875,0 c -2.62607,2.82486 -7.81097,0.24543 -6.03125,-3.53125 1.45622,-1.93162 4.02104,-2.35156 6.03125,-3.5 0,2.34375 0,4.6875 0,7.03125 z m 81.4375,0 c -2.86097,3.28966 -8.54187,-0.6314 -5.53125,-4.125 1.99471,-1.40882 7.11157,-5.12535 5.53125,0.0937 0,1.34375 0,2.6875 0,4.03125 z m -552.625,9.96875 c 3.78747,-0.64069 11.42028,0.18413 9.09375,5.8125 -2.81305,5.40275 -12.97001,5.33965 -15.28125,-0.40625 -0.41804,-3.14496 3.20771,-5.84558 6.1875,-5.40625 z m 154.5,0 c 3.53896,-0.42224 10.95845,-0.10875 9.25,5.34375 -2.34262,5.79937 -12.42985,5.85697 -15.3125,0.5625 -1.04088,-3.2892 2.97544,-6.37379 6.0625,-5.90625 z m 261.34375,0 c 3.55112,-0.29859 10.74953,-0.28117 9.28125,5.21875 -2.24885,6.01555 -12.94873,6.04475 -15.46875,0.34375 -0.52845,-3.27348 3.11971,-5.97709 6.1875,-5.5625 z m -197.75,67.125 c -7.03952,0.1311 -7.6892,11.68366 -0.65625,12.5 6.50502,1.77709 10.4443,-8.08381 4.75,-11.5 -1.18432,-0.80363 -2.67845,-1.1116 -4.09375,-1 z m 16.78125,0 c -7.02025,0.1263 -7.63879,11.69153 -0.65625,12.5 6.53172,1.7757 10.46245,-8.10798 4.75,-11.5 -1.18293,-0.80051 -2.6753,-1.11828 -4.09375,-1 z m 16.8125,0 c -7.03952,0.1311 -7.6892,11.68366 -0.65625,12.5 6.50502,1.77709 10.4443,-8.08381 4.75,-11.5 -1.18432,-0.80363 -2.67845,-1.1116 -4.09375,-1 z"
           id="path26143"
           inkscape:connector-curvature="0"
           style="fill:#ffffff;fill-opacity:1" />
      </g>
      <text
         xml:space="preserve"
         style="font-size:100px;font-style:normal;font-variant:normal;font-weight:normal;font-stretch:normal;text-align:center;line-height:80.00000119%;letter-spacing:0px;word-spacing:0px;writing-mode:lr-tb;text-anchor:middle;fill:#000000;fill-opacity:1;stroke:none;font-family:Adobe Arabic;-inkscape-font-specification:Adobe Arabic"
         x="445.32281"
         y="534.28564"
         id="text10367"
         sodipodi:linespacing="80.000001%"
         inkscape:export-filename="/Users/ld27/Desktop/Projects/LD27/thinking1.png"
         inkscape:export-xdpi="90"
         inkscape:export-ydpi="90"><tspan
           style="font-size:100px;text-align:center;text-anchor:middle"
           sodipodi:role="line"
           x="445.32281"
           y="534.28564"
           id="tspan10371">But I can never watch.</tspan><tspan
           style="font-size:100px;text-align:center;text-anchor:middle"
           sodipodi:role="line"
           x="445.32281"
           y="614.28564"
           id="tspan26016">I close my eyes and</tspan><tspan
           style="font-size:100px;text-align:center;text-anchor:middle"
           sodipodi:role="line"
           x="445.32281"
           y="694.28564"
           id="tspan26018">imagining running away</tspan><tspan
           style="font-size:100px;text-align:center;text-anchor:middle"
           sodipodi:role="line"
           x="445.32281"
           y="774.28564"
           id="tspan13930">...</tspan></text>
    </g>
  </g>
</svg>
