<?xml version="1.0" encoding="UTF-8" standalone="no"?>
<!-- Created with Inkscape (http://www.inkscape.org/) -->

<svg
   xmlns:dc="http://purl.org/dc/elements/1.1/"
   xmlns:cc="http://creativecommons.org/ns#"
   xmlns:rdf="http://www.w3.org/1999/02/22-rdf-syntax-ns#"
   xmlns:svg="http://www.w3.org/2000/svg"
   xmlns="http://www.w3.org/2000/svg"
   xmlns:sodipodi="http://sodipodi.sourceforge.net/DTD/sodipodi-0.dtd"
   xmlns:inkscape="http://www.inkscape.org/namespaces/inkscape"
   width="800"
   height="600"
   id="svg8149"
   version="1.1"
   inkscape:version="0.48.2 r9819"
   sodipodi:docname="_Text.svg"
   inkscape:export-filename="/Users/ld27/Desktop/Projects/LD27/title.png"
   inkscape:export-xdpi="90"
   inkscape:export-ydpi="90">
  <defs
     id="defs8151">
    <filter
       color-interpolation-filters="sRGB"
       x="-0.3"
       width="1.6"
       y="-0.5"
       height="2"
       inkscape:menu-tooltip="Cloudy watercolor effect"
       inkscape:label="Watercolor"
       inkscape:menu="Textures"
       id="filter7696">
      <feGaussianBlur
         result="result8"
         stdDeviation="15"
         id="feGaussianBlur7698" />
      <feTurbulence
         baseFrequency="0.025"
         numOctaves="5"
         type="fractalNoise"
         result="result7"
         seed="27"
         id="feTurbulence7700" />
      <feComposite
         in="result7"
         operator="over"
         result="result6"
         in2="result8"
         id="feComposite7702" />
      <feColorMatrix
         values="1 0 0 0 0 0 1 0 0 0 0 0 1 0 0 0 0 0 6 -4 "
         result="result9"
         id="feColorMatrix7704" />
      <feDisplacementMap
         result="result4"
         scale="50"
         yChannelSelector="A"
         xChannelSelector="A"
         in="result7"
         in2="result9"
         id="feDisplacementMap7706" />
      <feComposite
         in="result8"
         operator="in"
         result="result2"
         in2="result4"
         id="feComposite7708" />
      <feComposite
         operator="in"
         in="result2"
         result="fbSourceGraphic"
         in2="result9"
         id="feComposite7710" />
      <feComposite
         result="result91"
         in="fbSourceGraphic"
         k1="0.5"
         k2="1"
         operator="arithmetic"
         in2="fbSourceGraphic"
         id="feComposite7712" />
      <feBlend
         mode="multiply"
         in="fbSourceGraphic"
         in2="result91"
         id="feBlend7714" />
    </filter>
    <filter
       color-interpolation-filters="sRGB"
       x="-0.3"
       width="1.6"
       y="-0.5"
       height="2"
       inkscape:menu-tooltip="Cloudy watercolor effect"
       inkscape:label="Watercolor"
       inkscape:menu="Textures"
       id="filter7674">
      <feGaussianBlur
         result="result8"
         stdDeviation="15"
         id="feGaussianBlur7676" />
      <feTurbulence
         baseFrequency="0.025"
         numOctaves="5"
         type="fractalNoise"
         result="result7"
         seed="27"
         id="feTurbulence7678" />
      <feComposite
         in="result7"
         operator="over"
         result="result6"
         in2="result8"
         id="feComposite7680" />
      <feColorMatrix
         values="1 0 0 0 0 0 1 0 0 0 0 0 1 0 0 0 0 0 6 -4 "
         result="result9"
         id="feColorMatrix7682" />
      <feDisplacementMap
         result="result4"
         scale="50"
         yChannelSelector="A"
         xChannelSelector="A"
         in="result7"
         in2="result9"
         id="feDisplacementMap7684" />
      <feComposite
         in="result8"
         operator="in"
         result="result2"
         in2="result4"
         id="feComposite7686" />
      <feComposite
         operator="in"
         in="result2"
         result="fbSourceGraphic"
         in2="result9"
         id="feComposite7688" />
      <feComposite
         result="result91"
         in="fbSourceGraphic"
         k1="0.5"
         k2="1"
         operator="arithmetic"
         in2="fbSourceGraphic"
         id="feComposite7690" />
      <feBlend
         mode="multiply"
         in="fbSourceGraphic"
         in2="result91"
         id="feBlend7692" />
    </filter>
    <filter
       color-interpolation-filters="sRGB"
       x="-0.5"
       y="-0.5"
       height="2"
       width="2"
       inkscape:menu-tooltip="Convert to small scattered particles with some thickness"
       inkscape:menu="Scatter"
       inkscape:label="Air spray"
       id="filter7622">
      <feGaussianBlur
         result="result1"
         stdDeviation="0.01"
         id="feGaussianBlur7624" />
      <feBlend
         mode="multiply"
         result="fbSourceGraphic"
         in2="result1"
         id="feBlend7626" />
      <feTurbulence
         result="result3"
         numOctaves="3"
         seed="0"
         type="fractalNoise"
         baseFrequency="0.8"
         id="feTurbulence7628" />
      <feDisplacementMap
         result="result2"
         scale="50"
         yChannelSelector="G"
         xChannelSelector="R"
         in="fbSourceGraphic"
         in2="result3"
         id="feDisplacementMap7630" />
      <feMorphology
         result="result4"
         operator="dilate"
         radius="1"
         id="feMorphology7632" />
      <feBlend
         mode="screen"
         in2="result2"
         id="feBlend7634" />
    </filter>
    <filter
       color-interpolation-filters="sRGB"
       x="-0.2"
       width="1.4"
       y="-0.2"
       height="1.4"
       inkscape:menu-tooltip="Displace the outside of shapes and pictures without altering their content"
       inkscape:menu="Distort"
       inkscape:label="Torn edges"
       id="filter7321">
      <feTurbulence
         result="result91"
         type="fractalNoise"
         numOctaves="5"
         baseFrequency="0.05"
         id="feTurbulence7323" />
      <feDisplacementMap
         in="SourceGraphic"
         xChannelSelector="R"
         result="result5"
         scale="25"
         in2="result91"
         id="feDisplacementMap7325" />
      <feComposite
         operator="atop"
         in="SourceGraphic"
         in2="result5"
         id="feComposite7327" />
    </filter>
    <inkscape:perspective
       id="perspective3905"
       inkscape:persp3d-origin="400 : 200 : 1"
       inkscape:vp_z="1481.853 : 247.47206 : 1"
       inkscape:vp_y="0 : 1000 : 0"
       inkscape:vp_x="174.75639 : 317.17259 : 1"
       sodipodi:type="inkscape:persp3d" />
    <inkscape:path-effect
       vertical="false"
       scale_y_rel="false"
       prop_scale="1"
       bendpath="m 499.01535,361.10146 219.20309,0"
       is_visible="true"
       id="path-effect4021"
       effect="bend_path" />
    <inkscape:path-effect
       vertical="false"
       scale_y_rel="false"
       prop_scale="1"
       bendpath="m 499.01535,361.10145 219.20309,0"
       is_visible="true"
       id="path-effect4024"
       effect="bend_path" />
    <inkscape:path-effect
       bendpath1-nodetypes="cc"
       bendpath4="m 499.01535,222.20295 0,277.797"
       bendpath3="m 499.01535,499.99995 219.20309,0"
       bendpath2="m 718.21844,222.20295 0,277.797"
       bendpath1="M 553.56359,257.55829 718.21844,222.20295"
       xx="false"
       yy="true"
       is_visible="true"
       id="path-effect4058"
       effect="envelope" />
    <inkscape:path-effect
       nr_y="5"
       nr_x="5"
       is_visible="true"
       id="path-effect4060"
       effect="construct_grid" />
    <inkscape:path-effect
       border_marks="both"
       mark_dir="left"
       offset="0"
       shift="0"
       major_mark_steps="5"
       minor_mark_length="7"
       mark_length="14"
       mark_distance="20"
       unit="px"
       is_visible="true"
       id="path-effect4062"
       effect="ruler" />
    <inkscape:path-effect
       bendpath-nodetypes="cc"
       vertical="false"
       scale_y_rel="false"
       prop_scale="1"
       bendpath="m 499.01535,371.20298 c 73.0677,0.094 146.13539,-4.92154 219.20309,-10.10153"
       is_visible="true"
       id="path-effect4064"
       effect="bend_path" />
    <inkscape:path-effect
       tgtlength_rdm="0.3;1"
       tgtlength="100"
       tgtscale="10"
       tgt_places_rdmness="1;1"
       nbtangents="5"
       tremble_frequency="1"
       tremble_size="5;1"
       parallel_offset="5;1"
       ends_tolerance="0.1;1"
       strokeoverlap_rdm="0.3;1"
       strokeoverlap="0.3"
       strokelength_rdm="0.3;1"
       strokelength="100"
       nbiter_approxstrokes="5"
       is_visible="true"
       id="path-effect4066"
       effect="sketch" />
    <inkscape:path-effect
       bendpath3-nodetypes="cc"
       bendpath1-nodetypes="cc"
       bendpath4-nodetypes="cc"
       bendpath4="m 501.03566,162.60395 0,398.00515"
       bendpath3="m 494.97474,558.5888 223.2437,-58.58885"
       bendpath2="m 718.21844,222.20295 0,277.797"
       bendpath1="m 498.0052,162.60395 220.21324,59.599"
       xx="false"
       yy="true"
       is_visible="true"
       id="path-effect4068"
       effect="envelope" />
    <inkscape:path-effect
       bendpath4-nodetypes="cc"
       bendpath4="m 499.01535,204.0202 0,308.10158"
       bendpath3="m 499.01535,499.99995 219.20309,0"
       bendpath2="m 718.21844,222.20295 0,277.797"
       bendpath1="m 499.01535,222.20295 219.20309,0"
       xx="true"
       yy="false"
       is_visible="true"
       id="path-effect4070"
       effect="envelope" />
    <inkscape:path-effect
       bendpath4="m 364.66507,222.20296 0,277.79699"
       bendpath3="m 364.66507,499.99995 134.35028,0"
       bendpath2="m 499.01535,222.20296 0,277.79699"
       bendpath1="m 364.66507,222.20296 134.35028,0"
       xx="true"
       yy="false"
       is_visible="true"
       id="path-effect4073"
       effect="envelope" />
    <inkscape:path-effect
       bendpath4="m 364.3004,221.98076 0,277.79699"
       bendpath3="m 364.3004,499.77775 134.35028,0"
       bendpath2="m 498.65068,221.98076 0,277.79699"
       bendpath1="m 364.3004,221.98076 134.35028,0"
       xx="true"
       yy="false"
       is_visible="true"
       id="path-effect4082"
       effect="envelope" />
    <inkscape:path-effect
       bendpath2-nodetypes="cc"
       bendpath4="m 364.3004,221.98076 0,277.79699"
       bendpath3="m 364.3004,499.77775 134.35028,0"
       bendpath2="m 498.65068,203.79801 0,308.10157"
       bendpath1="m 364.3004,221.98076 134.35028,0"
       xx="true"
       yy="false"
       is_visible="true"
       id="path-effect4101"
       effect="envelope" />
    <inkscape:path-effect
       bendpath4-nodetypes="cc"
       bendpath2-nodetypes="cc"
       bendpath1-nodetypes="ccc"
       bendpath4="M 432.83612,342.06229 418.69398,519.1878"
       bendpath3="m 418.69398,519.1878 299.02544,0"
       bendpath2="m 716.70927,433.98617 1.01015,85.20163"
       bendpath1="m 421.72444,427.92526 156.0925,31.24954 139.90248,-64.58458"
       xx="true"
       yy="true"
       is_visible="true"
       id="path-effect7319"
       effect="envelope" />
    <mask
       id="mask8084"
       maskUnits="userSpaceOnUse">
      <path
         inkscape:connector-curvature="0"
         id="path8086"
         d="m 351.53308,145.43135 179.30811,0 0,311.12698 -179.30811,0 z"
         style="fill:#c3c3c3;fill-opacity:1;stroke:none;filter:url(#filter8080)" />
    </mask>
    <filter
       height="1.4078181"
       y="-0.20390904"
       width="1.7076267"
       x="-0.35381335"
       id="filter8080"
       inkscape:collect="always">
      <feGaussianBlur
         id="feGaussianBlur8082"
         stdDeviation="26.434001"
         inkscape:collect="always" />
    </filter>
    <filter
       color-interpolation-filters="sRGB"
       x="-0.5"
       y="-0.5"
       height="2"
       width="2"
       inkscape:menu-tooltip="Convert to small scattered particles with some thickness"
       inkscape:menu="Scatter"
       inkscape:label="Air spray"
       id="filter8062">
      <feGaussianBlur
         result="result1"
         stdDeviation="0.01"
         id="feGaussianBlur8064" />
      <feBlend
         mode="multiply"
         result="fbSourceGraphic"
         in2="result1"
         id="feBlend8066" />
      <feTurbulence
         result="result3"
         numOctaves="3"
         seed="0"
         type="fractalNoise"
         baseFrequency="0.8"
         id="feTurbulence8068" />
      <feDisplacementMap
         result="result2"
         scale="50"
         yChannelSelector="G"
         xChannelSelector="R"
         in="fbSourceGraphic"
         in2="result3"
         id="feDisplacementMap8070" />
      <feMorphology
         result="result4"
         operator="dilate"
         radius="1"
         id="feMorphology8072" />
      <feBlend
         mode="screen"
         in2="result2"
         id="feBlend8074" />
    </filter>
    <filter
       color-interpolation-filters="sRGB"
       x="-0.3"
       width="1.6"
       y="-0.5"
       height="2"
       inkscape:menu-tooltip="Cloudy watercolor effect"
       inkscape:label="Watercolor"
       inkscape:menu="Textures"
       id="filter7696-3">
      <feGaussianBlur
         result="result8"
         stdDeviation="15"
         id="feGaussianBlur7698-8" />
      <feTurbulence
         baseFrequency="0.025"
         numOctaves="5"
         type="fractalNoise"
         result="result7"
         seed="27"
         id="feTurbulence7700-4" />
      <feComposite
         in="result7"
         operator="over"
         result="result6"
         in2="result8"
         id="feComposite7702-6" />
      <feColorMatrix
         values="1 0 0 0 0 0 1 0 0 0 0 0 1 0 0 0 0 0 6 -4 "
         result="result9"
         id="feColorMatrix7704-3" />
      <feDisplacementMap
         result="result4"
         scale="50"
         yChannelSelector="A"
         xChannelSelector="A"
         in="result7"
         in2="result9"
         id="feDisplacementMap7706-1" />
      <feComposite
         in="result8"
         operator="in"
         result="result2"
         in2="result4"
         id="feComposite7708-3" />
      <feComposite
         operator="in"
         in="result2"
         result="fbSourceGraphic"
         in2="result9"
         id="feComposite7710-2" />
      <feComposite
         result="result91"
         in="fbSourceGraphic"
         k1="0.5"
         k2="1"
         operator="arithmetic"
         in2="fbSourceGraphic"
         id="feComposite7712-3" />
      <feBlend
         mode="multiply"
         in="fbSourceGraphic"
         in2="result91"
         id="feBlend7714-0" />
    </filter>
    <filter
       color-interpolation-filters="sRGB"
       x="-0.3"
       width="1.6"
       y="-0.5"
       height="2"
       inkscape:menu-tooltip="Cloudy watercolor effect"
       inkscape:label="Watercolor"
       inkscape:menu="Textures"
       id="filter7674-0">
      <feGaussianBlur
         result="result8"
         stdDeviation="15"
         id="feGaussianBlur7676-0" />
      <feTurbulence
         baseFrequency="0.025"
         numOctaves="5"
         type="fractalNoise"
         result="result7"
         seed="27"
         id="feTurbulence7678-3" />
      <feComposite
         in="result7"
         operator="over"
         result="result6"
         in2="result8"
         id="feComposite7680-9" />
      <feColorMatrix
         values="1 0 0 0 0 0 1 0 0 0 0 0 1 0 0 0 0 0 6 -4 "
         result="result9"
         id="feColorMatrix7682-7" />
      <feDisplacementMap
         result="result4"
         scale="50"
         yChannelSelector="A"
         xChannelSelector="A"
         in="result7"
         in2="result9"
         id="feDisplacementMap7684-0" />
      <feComposite
         in="result8"
         operator="in"
         result="result2"
         in2="result4"
         id="feComposite7686-8" />
      <feComposite
         operator="in"
         in="result2"
         result="fbSourceGraphic"
         in2="result9"
         id="feComposite7688-5" />
      <feComposite
         result="result91"
         in="fbSourceGraphic"
         k1="0.5"
         k2="1"
         operator="arithmetic"
         in2="fbSourceGraphic"
         id="feComposite7690-5" />
      <feBlend
         mode="multiply"
         in="fbSourceGraphic"
         in2="result91"
         id="feBlend7692-0" />
    </filter>
    <filter
       color-interpolation-filters="sRGB"
       x="-0.5"
       y="-0.5"
       height="2"
       width="2"
       inkscape:menu-tooltip="Convert to small scattered particles with some thickness"
       inkscape:menu="Scatter"
       inkscape:label="Air spray"
       id="filter7622-4">
      <feGaussianBlur
         result="result1"
         stdDeviation="0.01"
         id="feGaussianBlur7624-6" />
      <feBlend
         mode="multiply"
         result="fbSourceGraphic"
         in2="result1"
         id="feBlend7626-2" />
      <feTurbulence
         result="result3"
         numOctaves="3"
         seed="0"
         type="fractalNoise"
         baseFrequency="0.8"
         id="feTurbulence7628-5" />
      <feDisplacementMap
         result="result2"
         scale="50"
         yChannelSelector="G"
         xChannelSelector="R"
         in="fbSourceGraphic"
         in2="result3"
         id="feDisplacementMap7630-9" />
      <feMorphology
         result="result4"
         operator="dilate"
         radius="1"
         id="feMorphology7632-4" />
      <feBlend
         mode="screen"
         in2="result2"
         id="feBlend7634-4" />
    </filter>
    <filter
       color-interpolation-filters="sRGB"
       x="-0.2"
       width="1.4"
       y="-0.2"
       height="1.4"
       inkscape:menu-tooltip="Displace the outside of shapes and pictures without altering their content"
       inkscape:menu="Distort"
       inkscape:label="Torn edges"
       id="filter7321-3">
      <feTurbulence
         result="result91"
         type="fractalNoise"
         numOctaves="5"
         baseFrequency="0.05"
         id="feTurbulence7323-6" />
      <feDisplacementMap
         in="SourceGraphic"
         xChannelSelector="R"
         result="result5"
         scale="25"
         in2="result91"
         id="feDisplacementMap7325-8" />
      <feComposite
         operator="atop"
         in="SourceGraphic"
         in2="result5"
         id="feComposite7327-0" />
    </filter>
    <inkscape:perspective
       id="perspective3905-0"
       inkscape:persp3d-origin="400 : 200 : 1"
       inkscape:vp_z="1481.853 : 247.47206 : 1"
       inkscape:vp_y="0 : 1000 : 0"
       inkscape:vp_x="174.75639 : 317.17259 : 1"
       sodipodi:type="inkscape:persp3d" />
    <inkscape:path-effect
       vertical="false"
       scale_y_rel="false"
       prop_scale="1"
       bendpath="m 499.01535,361.10146 219.20309,0"
       is_visible="true"
       id="path-effect4021-5"
       effect="bend_path" />
    <inkscape:path-effect
       vertical="false"
       scale_y_rel="false"
       prop_scale="1"
       bendpath="m 499.01535,361.10145 219.20309,0"
       is_visible="true"
       id="path-effect4024-9"
       effect="bend_path" />
    <inkscape:path-effect
       bendpath1-nodetypes="cc"
       bendpath4="m 499.01535,222.20295 0,277.797"
       bendpath3="m 499.01535,499.99995 219.20309,0"
       bendpath2="m 718.21844,222.20295 0,277.797"
       bendpath1="M 553.56359,257.55829 718.21844,222.20295"
       xx="false"
       yy="true"
       is_visible="true"
       id="path-effect4058-7"
       effect="envelope" />
    <inkscape:path-effect
       nr_y="5"
       nr_x="5"
       is_visible="true"
       id="path-effect4060-6"
       effect="construct_grid" />
    <inkscape:path-effect
       border_marks="both"
       mark_dir="left"
       offset="0"
       shift="0"
       major_mark_steps="5"
       minor_mark_length="7"
       mark_length="14"
       mark_distance="20"
       unit="px"
       is_visible="true"
       id="path-effect4062-8"
       effect="ruler" />
    <inkscape:path-effect
       bendpath-nodetypes="cc"
       vertical="false"
       scale_y_rel="false"
       prop_scale="1"
       bendpath="m 499.01535,371.20298 c 73.0677,0.094 146.13539,-4.92154 219.20309,-10.10153"
       is_visible="true"
       id="path-effect4064-9"
       effect="bend_path" />
    <inkscape:path-effect
       tgtlength_rdm="0.3;1"
       tgtlength="100"
       tgtscale="10"
       tgt_places_rdmness="1;1"
       nbtangents="5"
       tremble_frequency="1"
       tremble_size="5;1"
       parallel_offset="5;1"
       ends_tolerance="0.1;1"
       strokeoverlap_rdm="0.3;1"
       strokeoverlap="0.3"
       strokelength_rdm="0.3;1"
       strokelength="100"
       nbiter_approxstrokes="5"
       is_visible="true"
       id="path-effect4066-8"
       effect="sketch" />
    <inkscape:path-effect
       bendpath3-nodetypes="cc"
       bendpath1-nodetypes="cc"
       bendpath4-nodetypes="cc"
       bendpath4="m 501.03566,162.60395 0,398.00515"
       bendpath3="m 494.97474,558.5888 223.2437,-58.58885"
       bendpath2="m 718.21844,222.20295 0,277.797"
       bendpath1="m 498.0052,162.60395 220.21324,59.599"
       xx="false"
       yy="true"
       is_visible="true"
       id="path-effect4068-8"
       effect="envelope" />
    <inkscape:path-effect
       bendpath4-nodetypes="cc"
       bendpath4="m 499.01535,204.0202 0,308.10158"
       bendpath3="m 499.01535,499.99995 219.20309,0"
       bendpath2="m 718.21844,222.20295 0,277.797"
       bendpath1="m 499.01535,222.20295 219.20309,0"
       xx="true"
       yy="false"
       is_visible="true"
       id="path-effect4070-8"
       effect="envelope" />
    <inkscape:path-effect
       bendpath4="m 364.66507,222.20296 0,277.79699"
       bendpath3="m 364.66507,499.99995 134.35028,0"
       bendpath2="m 499.01535,222.20296 0,277.79699"
       bendpath1="m 364.66507,222.20296 134.35028,0"
       xx="true"
       yy="false"
       is_visible="true"
       id="path-effect4073-6"
       effect="envelope" />
    <inkscape:path-effect
       bendpath4="m 364.3004,221.98076 0,277.79699"
       bendpath3="m 364.3004,499.77775 134.35028,0"
       bendpath2="m 498.65068,221.98076 0,277.79699"
       bendpath1="m 364.3004,221.98076 134.35028,0"
       xx="true"
       yy="false"
       is_visible="true"
       id="path-effect4082-2"
       effect="envelope" />
    <inkscape:path-effect
       bendpath2-nodetypes="cc"
       bendpath4="m 364.3004,221.98076 0,277.79699"
       bendpath3="m 364.3004,499.77775 134.35028,0"
       bendpath2="m 498.65068,203.79801 0,308.10157"
       bendpath1="m 364.3004,221.98076 134.35028,0"
       xx="true"
       yy="false"
       is_visible="true"
       id="path-effect4101-3"
       effect="envelope" />
    <inkscape:path-effect
       bendpath4-nodetypes="cc"
       bendpath2-nodetypes="cc"
       bendpath1-nodetypes="ccc"
       bendpath4="M 432.83612,342.06229 418.69398,519.1878"
       bendpath3="m 418.69398,519.1878 299.02544,0"
       bendpath2="m 716.70927,433.98617 1.01015,85.20163"
       bendpath1="m 421.72444,427.92526 156.0925,31.24954 139.90248,-64.58458"
       xx="true"
       yy="true"
       is_visible="true"
       id="path-effect7319-9"
       effect="envelope" />
    <inkscape:path-effect
       bendpath4-nodetypes="cc"
       bendpath1-nodetypes="ccc"
       bendpath4="m 414.65337,399.64099 -6.06092,133.68895"
       bendpath3="m 418.69398,519.1878 299.02544,0"
       bendpath2="m 717.71942,209.73231 0,309.45549"
       bendpath1="m 487.38435,392.56992 55.06756,-182.83761 175.26751,0"
       xx="true"
       yy="true"
       is_visible="true"
       id="path-effect7955"
       effect="envelope" />
    <filter
       id="filter9542"
       inkscape:menu="Textures"
       inkscape:label="Watercolor"
       inkscape:menu-tooltip="Cloudy watercolor effect"
       height="2"
       y="-0.5"
       width="1.6"
       x="-0.3"
       color-interpolation-filters="sRGB">
      <feGaussianBlur
         id="feGaussianBlur9544"
         stdDeviation="15.525689655172414"
         result="result8" />
      <feTurbulence
         id="feTurbulence9546"
         seed="27"
         result="result7"
         type="fractalNoise"
         numOctaves="5"
         baseFrequency="0.0080000000000000002" />
      <feComposite
         id="feComposite9548"
         in2="result8"
         result="result6"
         operator="over"
         in="result7" />
      <feColorMatrix
         id="feColorMatrix9550"
         result="result9"
         values="1 0 0 0 0 0 1 0 0 0 0 0 1 0 0 0 0 0 6 -4 " />
      <feDisplacementMap
         id="feDisplacementMap9552"
         in2="result9"
         in="result7"
         xChannelSelector="A"
         yChannelSelector="A"
         scale="50"
         result="result4" />
      <feComposite
         id="feComposite9554"
         in2="result4"
         result="result2"
         operator="in"
         in="result8" />
      <feComposite
         id="feComposite9556"
         in2="result9"
         result="fbSourceGraphic"
         in="result2"
         operator="in" />
      <feComposite
         id="feComposite9558"
         in2="fbSourceGraphic"
         operator="arithmetic"
         k2="1"
         k1="0.5"
         in="fbSourceGraphic"
         result="result91" />
      <feBlend
         id="feBlend9560"
         in2="result91"
         in="fbSourceGraphic"
         mode="multiply" />
    </filter>
    <filter
       id="filter9564"
       inkscape:label="Clouds"
       x="0"
       y="0"
       width="1"
       height="1"
       inkscape:menu="Overlays"
       inkscape:menu-tooltip="Airy, fluffy, sparse white clouds"
       color-interpolation-filters="sRGB">
      <feTurbulence
         id="feTurbulence9566"
         numOctaves="7"
         baseFrequency="0.002 0.013793103448275862"
         type="fractalNoise" />
      <feColorMatrix
         id="feColorMatrix9568"
         result="result0"
         values="1 0 0 0 0 0 1 0 0 0 0 0 1 0 0 0 0 0 5 -2.7" />
      <feFlood
         id="feFlood9570"
         flood-opacity="1"
         flood-color="rgb(255,255,255)"
         result="result1" />
      <feComposite
         id="feComposite9572"
         in2="result0"
         operator="in"
         result="result2" />
      <feComposite
         id="feComposite9574"
         in2="SourceGraphic"
         operator="atop" />
    </filter>
    <filter
       id="filter10120"
       inkscape:menu-tooltip="In and out glow with a possible offset and colorizable flood"
       inkscape:menu="Shadows and Glows"
       inkscape:label="Cutout Glow"
       color-interpolation-filters="sRGB">
      <feOffset
         id="feOffset10122"
         dy="3"
         dx="3" />
      <feGaussianBlur
         id="feGaussianBlur10124"
         result="result8"
         stdDeviation="3" />
      <feBlend
         blend="normal"
         id="feBlend10136"
         in2="result8" />
      <feFlood
         id="feFlood10126"
         flood-color="rgb(0,0,0)"
         flood-opacity="1"
         in="result8"
         result="result10" />
      <feComposite
         id="feComposite10128"
         in2="SourceGraphic"
         operator="in"
         in="result10"
         result="result9" />
      <feBlend
         id="feBlend10130"
         in2="result9"
         mode="darken"
         in="result8"
         result="result11" />
    </filter>
    <filter
       inkscape:collect="always"
       id="filter10473">
      <feGaussianBlur
         inkscape:collect="always"
         stdDeviation="3.5556141"
         id="feGaussianBlur10475" />
    </filter>
  </defs>
  <sodipodi:namedview
     id="base"
     pagecolor="#808080"
     bordercolor="#666666"
     borderopacity="1.0"
     inkscape:pageopacity="0.55294118"
     inkscape:pageshadow="2"
     inkscape:zoom="0.7"
     inkscape:cx="190.08404"
     inkscape:cy="294.57475"
     inkscape:document-units="px"
     inkscape:current-layer="layer9"
     showgrid="false"
     inkscape:snap-page="false"
     inkscape:window-width="1125"
     inkscape:window-height="761"
     inkscape:window-x="-3"
     inkscape:window-y="54"
     inkscape:window-maximized="0" />
  <metadata
     id="metadata8154">
    <rdf:RDF>
      <cc:Work
         rdf:about="">
        <dc:format>image/svg+xml</dc:format>
        <dc:type
           rdf:resource="http://purl.org/dc/dcmitype/StillImage" />
        <dc:title />
      </cc:Work>
    </rdf:RDF>
  </metadata>
  <g
     inkscape:groupmode="layer"
     id="layer9"
     inkscape:label="Speaking"
     style="display:inline">
    <g
       style="font-size:64px;font-style:normal;font-variant:normal;font-weight:normal;font-stretch:normal;text-align:start;line-height:80.00000119%;letter-spacing:0px;word-spacing:0px;writing-mode:lr-tb;text-anchor:start;fill:#000000;fill-opacity:1;stroke:none;filter:url(#filter10473);font-family:Adobe Arabic;-inkscape-font-specification:Adobe Arabic"
       id="text10377"
       transform="translate(14,-52.36218)">
      <path
         style="font-size:72px;fill:#ffffff;fill-opacity:1"
         d="m 580.875,516.75 c -2.92737,1.56459 -7.93121,0.74967 -9.46875,2.90625 -2.20254,5.05083 4.04967,2.34739 3.59375,5.96875 -0.43166,8.50806 0.78989,18.00954 -0.46875,26.03125 -2.27145,1.95225 -1.85984,-8.2159 -5.71875,-3.40625 -3.31752,3.88201 -10.23652,1.04044 -9.78125,-3.71875 4.50422,-1.01077 11.00916,1.2904 14.15625,-2.78125 1.99128,-8.22851 -8.73696,-14.83963 -15.5,-9.9375 -9.8014,4.84719 -10.31665,21.85346 0.8125,25.40625 4.51517,2.00829 10.04901,-0.97108 12.78125,-3.375 -0.82214,6.64505 9.65667,1.98917 14.09375,3.375 5.63542,0 11.27083,0 16.90625,0 1.57211,-4.78933 -1.70946,-5.06655 -4.4375,-6.15625 1.23212,-4.3149 -3.18729,-14.58908 2.9375,-14.125 4.53421,0.56722 4.43928,-8.61366 -0.8125,-6.15625 -3.82925,1.02886 -2.17474,-4.85816 -1.3125,-6.96875 2.85528,-1.45425 5.45482,4.59373 8.28125,0.96875 4.66282,-4.12431 -2.37659,-9.70328 -6.8125,-7.84375 -6.00125,1.66825 -10.77141,7.51746 -10.84375,13.84375 -7.36203,1.69109 -1.83345,6.57211 0,8.15625 -0.61146,3.94674 1.09455,9.56486 -0.59375,12.78125 -2.47697,0.38235 -6.52409,0.91092 -5.1875,-2.96875 0,-10.94792 0,-21.89583 0,-32.84375 -0.875,0.28125 -1.75,0.5625 -2.625,0.84375 z m -317.03125,0 c -3.05079,1.57671 -8.3821,0.6633 -10,2.90625 -1.53721,4.29473 2.13004,3.55846 4.03125,4.78125 -0.18532,2.83642 1.42602,7.13518 -2.90625,5.8125 -10.32857,0.38757 -18.1326,12.96538 -12.0625,21.96875 3.0125,4.90191 10.05204,7.45519 14.96875,3.8125 -0.59189,4.88463 6.33236,-0.46527 9.43213,0.0878 3.37432,0.0368 2.68148,-3.00406 4.78662,-0.11905 3.09914,2.72782 7.75784,1.98067 10.6875,-0.40625 3.18434,4.36446 8.34356,0.70363 11.71875,-1.59375 -0.79624,-3.03223 -1.75252,-6.01303 -4.65625,-3.8125 -0.59237,-6.37589 2.31584,-16.96507 -5.96875,-19.59375 -5.22753,-1.11773 -11.30454,1.94209 -14.375,6.09375 -2.02732,5.12774 7.21985,8.00431 7.9375,2.1875 -0.16607,-3.19722 4.05543,-2.69621 3.78125,0.21875 -0.5276,2.74387 -5.59858,2.46736 -7.84375,3.9375 -3.43461,0.77616 -4.43399,5.24448 -4.75,7.53125 -4.9605,0.36184 -0.91868,-7.55815 -2.21875,-10.5 0,-8.03125 0,-16.0625 0,-24.09375 -0.85417,0.26042 -1.70833,0.52083 -2.5625,0.78125 z M 432,516.71875 c -3.00259,2.19487 -10.32946,-0.1498 -9.40625,4.71875 -1.31898,3.90248 5.67468,0.42164 3.46875,5.1875 -0.17801,8.25578 0.3359,16.88018 -0.21875,24.9375 -3.81954,1.76661 -0.59699,-2.76328 -1.6875,-4.625 -0.49117,-2.49315 -2.33831,-4.50302 -4.53125,-5.6875 5.95878,0.015 3.13711,-6.05136 2.125,-9.6875 -6.25246,-3.55502 -16.83362,-0.37957 -16.375,7.90625 0.14424,2.38729 1.43244,4.5979 3.34375,6 -5.20032,-0.98638 -2.52994,3.91125 -6.46875,4.78125 -0.66307,-6.42909 2.29167,-17.02783 -6.0625,-19.6875 -5.24118,-1.03994 -11.20226,1.99985 -14.34375,6.125 -2.00199,5.11098 7.28753,8.07685 7.9375,2.15625 -0.0702,-3.1028 4.00173,-2.72146 3.8125,0.1875 -1.07569,3.15042 -6.79617,2.65425 -9.40625,4.8125 -6.84301,4.62786 -0.28663,16.21087 7.21875,13.65625 2.20307,-0.96415 3.76135,-2.68544 5.59375,-0.34375 3.09396,2.01717 6.14343,-1.44847 8.65625,-2.28125 4.16708,4.33255 12.5338,3.84171 16.59375,-0.625 -0.0742,6.09504 10.44274,1.59892 15.09375,2.96875 0.99534,-5.0036 1.37946,-4.48364 5,0.0937 5.11505,1.38423 15.14666,-0.97813 8.65625,-5.46875 -5.05233,-0.99987 -7.23594,-7.04426 -10.90625,-10.21875 2.53437,-3.55574 6.13878,-6.14421 10.6875,-6.125 2.45138,-7.96623 -6.3449,-4.18398 -11.08554,-4.64699 -7.65607,-1.08237 -0.85905,5.35812 -4.10196,7.42824 -2.50902,1.18956 -0.33451,-10.20636 -1.0625,-13.78125 -0.90187,-2.32382 2.22873,-10.7963 -2.53125,-7.78125 z m 228.8125,0 c -2.89281,1.49313 -7.95399,0.80514 -9.4375,2.96875 -2.18966,4.93926 3.92087,2.29823 3.49998,5.71826 -0.21191,8.68211 0.39592,17.7252 -0.24998,26.21924 -6.34728,-0.18475 -3.30869,8.6413 2.65625,5.59375 8.08333,0 16.16667,0 24.25,0 0.53838,-3.30465 0.1116,-5.85823 -3.28125,-5.65625 -0.67525,-6.75114 2.3346,-17.30559 -5.75,-20.75 -2.98186,-1.17258 -6.48072,-0.64054 -9.125,1.0625 -1.14561,-4.44719 2.37534,-15.04993 -1.92568,-15.33487 l -0.63682,0.17862 z m -538.84375,2.3125 c -8.24496,-0.53532 -15.47456,8.98389 -10.9375,16.46875 2.75106,5.99797 11.54844,5.88017 14.09375,11.75 1.37286,5.53988 -6.76247,6.29703 -8.8125,2.125 -2.48023,-2.0753 -1.09982,-8.44461 -5.52187,-5.56158 -4.3212,0.80339 -0.74936,6.90629 -0.69688,10.31158 3.12792,4.54144 10.96017,4.63999 16.09375,2.78125 8.17708,-2.43689 10.58958,-14.57185 3.375,-19.40625 -3.30701,-3.47725 -11.42982,-3.71392 -11.4375,-9.5 0.45368,-4.81678 7.88148,-3.7796 8.28125,0.71875 0.77849,6.74155 9.30285,1.83536 5.46875,-3.625 1.13948,-6.24476 -5.58932,-5.70362 -9.90625,-6.0625 z m 226.9375,2.75 c -1.75415,4.62125 2.94107,2.61326 4.625,4.375 0.0307,8.31308 0.55151,17.09414 -0.1875,25.21875 -5.60787,-1.45655 -6.57227,7.75008 -0.4375,5.84375 4.53479,-1.40271 15.19632,3.32132 14.34375,-3.46875 1.31871,-3.93362 -6.04026,-0.0939 -4.71875,-4.375 0.28119,-7.83091 -0.51881,-16.09505 0.3125,-23.71875 5.06071,1.63799 6.72045,-6.84265 1.40625,-5.875 -4.28727,1.16301 -14.50005,-2.43309 -15.34375,2 z m -178.65625,8.375 c -3.48369,2.18224 -10.70359,0.25195 -8.9375,6.1875 3.57652,0.20582 3.78845,3.38221 3.15625,7.0625 -0.77927,2.88658 2.2586,9.66262 -3.08629,8.55939 -4.44689,6.91418 6.25401,5.24893 11.21129,5.25311 10.91667,0 21.83333,0 32.75,0 1.57262,-4.47585 -1.57454,-4.57382 -3.34375,-6.25 -0.47681,-6.5363 2.36087,-17.29835 -5.8125,-20.3125 -3.69309,-1.56725 -7.8909,0.87682 -10.75,2.6875 -2.84167,-4.45214 -9.47383,-3.20735 -12.5,-1.3125 0.10102,-3.07258 0.46755,-3.29663 -2.6875,-1.875 z m 302.8125,0 c -2.92076,2.28465 -10.17437,0.0928 -9,5.1875 -1.16323,3.1854 4.55928,0.67519 3.1875,4.125 -0.43126,3.8345 0.74963,8.74218 -0.375,12.15625 -5.74402,-0.91406 -4.39183,8.45302 1.5,5.59375 13.25,0 26.5,0 39.75,0 1.63489,-4.5873 -1.70342,-4.52144 -3.375,-6.3125 -0.29117,-6.54661 2.29331,-17.66823 -6.125,-20.34375 -3.76308,-1.4175 -7.58676,1.09067 -10.40625,2.78125 -2.92116,-4.00566 -8.85922,-3.92858 -12.5,-0.96875 0.14003,-2.91534 0.43083,-3.83621 -2.65625,-2.21875 z m -325.40625,0.0625 c -10.84504,0.0912 -17.31015,14.24914 -10.40625,22.5 6.36901,8.73094 22.03816,5.57908 24.15625,-5.09375 2.69348,-8.85835 -4.51369,-18.12686 -13.75,-17.40625 z m 69.15625,0 c -12.05455,0.79205 -17.32613,18.8058 -7.125,25.625 6.19731,4.42297 14.50249,0.74519 18.15625,-5.15625 -1.83583,-3.58485 -3.61734,-4.45476 -6.15625,-1.5625 -3.54109,2.79185 -8.9979,-0.64762 -8.59375,-4.59375 4.50422,-1.01077 11.00916,1.2904 14.15625,-2.78125 1.49061,-6.02003 -4.40992,-12.12214 -10.4375,-11.53125 z m 108.71875,0 c -2.58773,0.24468 -5.15768,1.23229 -6.90625,3.21875 0.69007,-4.43632 -13.20895,-3.77266 -13.53125,-0.65625 -1.58259,4.28779 5.1325,2.17813 1.84375,6.4375 0.0531,10.38285 -7.75941,-3.54667 -2.34375,-3.4375 1.71128,-8.22494 -8.19505,-3.99088 -13.21875,-5 -3.69672,-0.51054 -2.67663,6.58148 1.125,5.6875 3.79906,5.12532 4.95802,12.42404 7.65625,18.3125 -0.21925,4.2551 -4.31793,6.70743 -6.78125,9.59375 -2.34163,5.54969 8.28528,8.99278 8.6875,2.34375 4.07971,-10.07938 7.91156,-20.53018 13.03125,-30.0625 3.20088,-1.91664 0.63676,2.31986 1.59375,4.0625 -0.17161,2.63442 5.40964,5.34524 0.71875,5.125 -3.30319,0.64344 -1.09385,6.18064 -0.625,9.03125 5.6709,6.17849 19.67246,2.40224 18.625,-7.125 -0.22227,-2.75913 -2.19775,-5.21676 -4.65625,-6.5 5.95878,0.015 3.13711,-6.05136 2.125,-9.6875 -2.30806,-1.04309 -4.81018,-1.52033 -7.34375,-1.34375 z m 214.875,0 c -2.58773,0.24468 -5.15768,1.23229 -6.90625,3.21875 0.69007,-4.43632 -13.20895,-3.77266 -13.53125,-0.65625 -1.58259,4.28779 5.1325,2.17813 1.84375,6.4375 0.0531,10.38285 -7.75941,-3.54667 -2.34375,-3.4375 1.71128,-8.22494 -8.19505,-3.99088 -13.21875,-5 -3.69672,-0.51054 -2.67663,6.58148 1.125,5.6875 3.79906,5.12532 4.95802,12.42404 7.65625,18.3125 -0.21925,4.2551 -4.31793,6.70743 -6.78125,9.59375 -2.34163,5.54969 8.28528,8.99278 8.6875,2.34375 4.07971,-10.07938 7.91156,-20.53018 13.03125,-30.0625 3.20088,-1.91664 0.63676,2.31986 1.59375,4.0625 -0.17161,2.63442 5.40964,5.34524 0.71875,5.125 -3.30319,0.64344 -1.09385,6.18064 -0.625,9.03125 5.6709,6.17849 19.67246,2.40224 18.625,-7.125 -0.22227,-2.75913 -2.19775,-5.21676 -4.65625,-6.5 5.95878,0.015 3.13711,-6.05136 2.125,-9.6875 -2.30806,-1.04309 -4.81018,-1.52033 -7.34375,-1.34375 z m 73.96875,2.5625 c -1.29393,3.57039 1.823,2.60952 3.40625,4.0625 2.56284,6.88701 4.81481,13.88352 7.03125,20.9375 5.76766,1.94879 5.7018,-4.40123 7.62613,-8.10557 1.72377,-8.11591 3.56913,1.1897 5.34767,4.64507 1.61131,7.33667 8.48705,1.96739 8.15461,-3.5389 2.12417,-4.5676 2.74518,-10.37057 5.71534,-14.34435 5.43164,0.008 3.42566,-8.41154 -2,-5.65625 -5.51913,-2.50801 -13.07708,3.22139 -5.8125,5.53125 1.2547,1.14128 -1.37124,4.95123 -1.4375,6.84375 -2.32531,-3.67209 -2.36813,-10.60449 -6.125,-12.125 -5.53704,-0.75825 -4.51503,7.89568 -7.19139,11.36488 -2.93849,-2.33996 -1.88422,-6.97973 0.41014,-9.23988 -0.79038,-5.04296 -10.47698,-1.18968 -15.125,-2.375 l 0,1 0,1 z m 63.25,0 c -1.69962,4.50812 4.27072,2.11361 4.65625,5.9375 2.02725,5.51162 4.84546,11.13554 6.125,16.75 -0.75084,4.23035 -4.79112,6.02966 -6.875,9.21875 -1.82192,5.53956 8.422,8.44181 8.8125,2.03125 4.08788,-10.11377 7.95961,-20.74419 13.125,-30.15625 2.91814,-0.27704 4.2111,-1.49638 3.4375,-4.78125 -2.24708,-0.89552 -14.88368,-3.66307 -13.53125,2.375 1.15895,2.33232 4.3456,1.98882 1.4672,6.00099 -0.60457,8.79438 -6.76945,-5.33096 -2.09729,-5.37533 1.29975,-7.26383 -8.65997,-2.76278 -13.11991,-4.00066 -2.05622,-0.2704 -2.2704,-0.0562 -2,2 z M 326,535.90625 c 2.23286,0.0905 5.02312,6.3493 1.46875,3.75 -2.00381,-0.0183 -4.92485,-3.63021 -1.46875,-3.75 z m 88.875,0 c 2.23286,0.0905 5.02312,6.3493 1.46875,3.75 -2.00381,-0.0183 -4.92485,-3.63021 -1.46875,-3.75 z m 126,0 c 2.23286,0.0905 5.02312,6.3493 1.46875,3.75 -2.00381,-0.0183 -4.92485,-3.63021 -1.46875,-3.75 z m -393.15625,0 c 5.53289,1.096 5.26786,8.90147 4.3125,13.21875 -0.70173,4.82575 -7.29812,2.7939 -7.53125,-1.375 -0.97853,-3.53354 -1.63239,-11.19604 3.21875,-11.84375 z M 216.25,536.125 c 2.21356,-0.0358 3.31183,3.51415 -0.0311,2.26515 -4.35964,0.98718 -2.09637,-1.78669 0.0311,-2.26515 z m 345.9375,0 c 2.21356,-0.0358 3.31183,3.51415 -0.0311,2.26515 -4.35964,0.98718 -2.09637,-1.78669 0.0311,-2.26515 z m -307.90625,0.0625 c 4.30384,-0.62752 4.10336,4.22333 3.59375,7.3125 0.14984,2.94995 1.12862,7.76533 -3.25,6.90625 -6.2212,-1.00214 -6.26436,-13.03151 -0.34375,-14.21875 z m 412.1875,1.0625 c 5.40989,0.14473 2.31854,8.09939 3.15625,11.25 1.84931,4.34608 -4.29901,4.19455 -6.21875,2.78125 0.67485,-4.19368 -1.37665,-9.79571 0.75,-13.3125 0.71139,-0.38619 1.49481,-0.69476 2.3125,-0.71875 z m -490.3125,0.15625 c 4.74376,-0.0127 2.01022,7.23457 2.78125,9.90625 0.50952,2.96615 0.0998,5.54798 -3.59375,4.75 -4.75982,0.29878 -1.27865,-6.44105 -2.34375,-9.15625 -0.51581,-3.3221 0.0438,-4.91436 3.15625,-5.5 z m 14.5,0 c 4.97976,0.51014 1.82733,7.91482 2.75,11.03125 1.08398,3.25423 -1.38457,4.30831 -4.3125,3.4375 -3.60135,-0.0341 -0.59423,-5.75008 -1.59375,-7.90625 -0.11468,-3.33338 -0.83868,-6.11268 3.15625,-6.5625 z m 288.25,0 c 4.73845,0.0643 2.04211,7.17817 2.78125,9.90625 0.59434,3.06138 0.10851,5.54232 -3.59375,4.75 -4.72416,0.30427 -1.23845,-6.45324 -2.3125,-9.15625 -0.40285,-3.32294 -0.1778,-4.88837 3.125,-5.5 z m 14.625,0 c 4.5507,0.39172 1.90026,7.25266 2.65625,10.03125 0.20538,2.46317 0.42024,5.43002 -3.09375,4.59375 -5.38301,0.89913 -1.83714,-6.19035 -2.84375,-9.0625 -0.5176,-3.24888 -0.11647,-5.20715 3.28125,-5.5625 z m -212.21875,12.5625 c -2.4062,2.48332 -5.12188,-2.11516 -1.96875,-3 3.31878,-2.30419 1.52845,0.87098 1.96875,3 z m 112.34375,0 c -2.35055,2.46496 -5.14924,-2.0638 -2,-2.96875 3.35547,-2.31118 1.56137,0.78122 2,2.96875 z m -72.4375,-3.5625 c 1.82157,1.26354 7.95873,2.60037 5.125,5.5 -2.97378,1.23967 -5.73361,-4.4844 -5.125,-5.5 z m 88.875,0 c 1.82157,1.26354 7.95873,2.60037 5.125,5.5 -2.97378,1.23967 -5.73361,-4.4844 -5.125,-5.5 z m 126,0 c 1.82157,1.26354 7.95873,2.60037 5.125,5.5 -2.97378,1.23967 -5.73361,-4.4844 -5.125,-5.5 z m -100.6875,2.625 c 3.55837,2.44761 1.44356,3.76908 -0.8125,2.28125 0.10831,-0.95964 -0.78072,-5.21712 0.8125,-2.28125 z m 96,25.3125 c -3.10488,2.05754 -10.38406,-0.15096 -9.34375,4.9375 -1.3484,3.58332 4.80959,0.30884 3.4375,3.96875 0,9.88542 0,19.77083 0,29.65625 8.48902,5.03791 21.5375,2.35935 24.59375,-7.78125 3.76776,-8.85881 -5.5652,-20.30142 -14.9375,-16.59375 -3.29235,-1.04822 0.90589,-13.05 -2.07368,-14.74627 l -0.94869,0.31623 -0.72763,0.24254 z m -381.9375,0 c -3.11156,2.13456 -10.46479,-0.1475 -9.40625,4.9375 -1.36627,3.62947 4.88082,0.25561 3.5,4 -0.13206,8.58707 0.24699,17.40514 -0.15625,25.875 -5.95477,-0.8896 -4.64459,8.46194 1.3125,5.65625 5.13643,0.2557 12.78128,1.02938 11.46875,-4.09375 2.67442,5.82545 8.86978,3.99062 14.125,4.0625 -0.84082,-4.37996 0.57666,-2.55438 2.65625,-1 6.16539,3.95962 14.00524,0.14864 17.65625,-5.46875 -1.74705,-3.25089 -3.54733,-4.7458 -6,-1.71875 -3.47175,2.9703 -9.31055,-0.43717 -8.75,-4.4375 4.41001,-1.20024 11.10595,1.37901 14.09375,-2.875 1.98638,-8.17872 -8.74383,-14.75368 -15.46875,-9.875 -7.24416,3.58516 -9.1667,13.79881 -6.03125,20.03125 -5.01902,-0.95097 -7.29143,-7.11569 -10.90625,-10.21875 2.58382,-3.51472 6.11011,-6.15729 10.6875,-6.125 2.45138,-7.96623 -6.3449,-4.18398 -11.08554,-4.64699 -7.64992,-1.04981 -0.87656,5.25738 -4.07071,7.42824 -2.6029,1.79029 -0.26885,-9.72756 -1.0625,-12.78125 -0.9981,-2.53905 2.3971,-11.71098 -2.5625,-8.75 z m 127.75,0 c -3.05821,1.57947 -8.4009,0.68496 -10.03125,2.96875 -1.76575,4.5061 2.60391,3.20089 4.03125,4.8125 -0.005,2.96019 1.27156,6.94774 -3,5.75 -10.4987,0.4411 -18.16193,13.45323 -11.6875,22.375 3.14101,4.62571 10.0007,6.93958 14.71875,3.34375 -0.68209,4.96428 6.30921,-0.43635 9.40088,0.11905 5.14108,2.23272 1.5548,-8.11044 4.19287,-3.49405 6.50037,9.14691 22.8663,5.42843 24.40625,-5.78125 2.75888,-9.85525 -7.87448,-19.58746 -17.375,-15.96875 -8.17804,2.24186 -12.2968,12.53585 -8.25,19.875 -6.11811,1.50619 -3.27617,-5.13793 -3.84375,-8.65625 0,-8.70833 0,-17.41667 0,-26.125 -0.85417,0.26042 -1.70833,0.52083 -2.5625,0.78125 z m 138.46875,0 c -3.0811,2.04625 -10.47726,-0.15956 -9.40625,4.9375 0.46563,2.85961 6.06894,1.09208 3.46875,6.71875 -0.3599,7.60391 0.65155,16.09324 -0.375,23.28125 -2.00185,-1.09489 -2.35923,-3.32316 -5.46875,-1.0625 -3.42948,0.90227 -1.45243,-5.27372 -2.03125,-6.8125 -1.26297,-5.87811 0.78643,-6.7459 5.3125,-7.875 2.46268,-2.89612 -0.84974,-6.9378 -4.46875,-5.15625 -0.0291,-3.37862 -2.23004,-11.47398 -7.09764,-4.73239 -1.30435,4.14495 -7.63254,5.79805 -5.28402,10.58659 5.84656,-0.2507 1.82826,8.87496 3.00666,13.11455 -0.96018,6.22833 6.6481,10.42618 11.48318,6.66793 2.72016,1.05293 10.46347,0.84175 15.73557,0.80082 10.11458,0 20.22917,0 30.34375,0 -0.99993,-4.06853 2.3384,0.64433 4.46875,0.1875 7.04379,2.61768 16.93337,-4.05606 13.40625,-12 -0.21516,-2.51069 -6.54038,-4.38377 -1.6875,-4.875 3.00042,-1.24902 0.37485,-6.06609 -0.15625,-8.875 -6.34471,-3.93424 -17.48389,-0.0868 -16.375,8.375 0.28133,2.18278 1.56419,4.14377 3.3125,5.4375 -7.21253,-2.17586 -1.33679,7.08591 -5.65625,6.28125 -2.51135,-0.92459 -0.13476,-5.98616 -1,-8.1875 -1.34153,-4.11045 3.22769,-16.59341 -3.5,-13.0625 -3.3892,1.75747 -9.99717,0.12347 -8.28125,5.78125 4.56044,0.12532 3.25074,5.20686 3.25,9.03125 -0.43105,2.58319 1.6895,7.92346 -3.03125,6.65625 -4.9486,0.97168 -1.57812,-5.69823 -2.59375,-8.1875 1.1642,-6.1428 -2.30546,-14.14567 -9.4375,-13.59375 -2.67662,-0.46776 -6.74901,3.85712 -5.375,-1.3125 -1.19948,-3.13107 2.66917,-14.67858 -2.5625,-12.125 z m -307.125,5.03125 c -1.72972,4.52888 3.00264,2.72864 4.65625,4.40625 -0.0531,8.28567 0.55201,17.17651 -0.21875,25.1875 -5.60738,-1.45361 -6.57291,7.74743 -0.4375,5.84375 4.53479,-1.40271 15.19632,3.32132 14.34375,-3.46875 1.30036,-3.95761 -6.08735,-0.0776 -4.6875,-4.375 0.32877,-7.76332 -0.59698,-16.30853 0.34375,-23.71875 5.6058,1.55792 6.41006,-7.87764 0.34375,-5.875 -4.02656,1.13243 -13.71225,-2.38955 -14.34375,2 z m 206.8125,-1.53125 c -5.76202,0.49346 -5.13597,9.85073 0.65625,9.59375 6.76899,-0.12865 6.09824,-10.45428 -0.65625,-9.59375 z m 126.5625,0 c -5.76202,0.49346 -5.13597,9.85073 0.65625,9.59375 6.76899,-0.12865 6.09824,-10.45428 -0.65625,-9.59375 z m 47.46875,0 c -5.6856,0.55059 -5.07244,9.83783 0.6875,9.59375 5.79764,0.33314 6.42621,-9.10918 0.71875,-9.625 -0.45947,-0.0372 -0.95829,-0.0884 -1.40625,0.0312 z M 220.9375,587.375 c -2.80187,1.68952 -7.81506,1.21559 -9.25,3.4375 0.66311,4.45867 -1.68379,-1.27224 -3.53125,-1.5625 -9.5197,-5.50491 -20.58726,6.0413 -18.1875,15.75 0.83562,9.08932 12.92075,13.87253 19.5625,7.375 3.39238,-2.29578 4.56794,-5.3157 0.71875,-8.125 -2.55634,3.63009 -9.05406,5.11258 -11.09375,0.28125 -1.70945,-2.47051 0.16574,-3.03094 2.74832,-2.55787 3.64029,-0.59839 11.52578,1.07043 11.09543,-4.81713 -0.87828,-2.19719 0.0783,-3.2495 2.0625,-1.9375 -0.20232,8.68893 0.52054,17.98459 -0.28125,26.375 -5.15905,-1.38929 -4.92256,8.03901 0.5,5.59375 5.08073,-0.91927 15.14092,3.14092 12.78125,-5.21875 -1.85916,-0.36401 -5.4731,0.53485 -4.4375,-2.625 -1.46325,-4.57634 1.04768,-3.90572 4.1875,-4.46875 9.61946,-2.0521 16.36665,-14.17458 10.21875,-22.71875 -3.11945,-4.31498 -10.01658,-5.99875 -14.40625,-2.28125 0.019,-2.86351 0.6716,-4.38893 -2.6875,-2.5 z m 111.34375,0.375 c -3.47083,2.22685 -10.71274,0.22193 -8.90625,6.21875 3.45281,0.19243 3.72557,3.43829 3.09375,7.03125 -0.9504,2.76362 2.45935,9.53659 -2.8125,8.5625 -5.22212,1.0319 -2.19493,-5.60715 -3,-8.40625 -1.34153,-4.11045 3.22769,-16.59341 -3.5,-13.0625 -3.3892,1.75747 -9.99717,0.12347 -8.28125,5.78125 4.56044,0.12532 3.25074,5.20686 3.25,9.03125 -0.50001,2.47289 1.72493,7.82839 -2.86754,6.65314 -4.44689,6.91418 6.25401,5.24893 11.21129,5.25311 10.83333,0 21.66667,0 32.5,0 -0.2457,-3.6622 -0.29487,-4.28687 1.6875,-1.46875 -0.33232,1.68797 -4.6955,4.45802 -3.1875,7.78125 2.83096,8.80419 15.479,8.50318 21.5625,3.3125 5.66051,-3.52514 6.79954,-13.84507 -0.46875,-16.15625 -1.6218,-0.74063 -4.72057,-0.67469 -5.53125,-0.75 5.49843,-1.03825 8.72918,-7.1905 7.71875,-12.0625 3.08267,-1.01217 6.0469,-7.06795 1.375,-7.0625 -4.53028,1.67664 -8.64006,-0.61828 -13.125,-0.59375 -7.8155,-0.0415 -13.83604,9.50821 -8.78125,16.09375 2.53391,1.61807 0.22265,2.41755 -1.6875,2.96875 0.76372,2.55407 -1.35657,3.53149 -2.84375,2.03125 -0.65841,-6.60553 2.45318,-17.26407 -5.59375,-20.5625 -2.95514,-1.46957 -7.01487,0.20933 -9.09375,1.28125 0.0997,-3.10592 0.47147,-3.33681 -2.71875,-1.875 z m 159.78125,0.0625 c -3.02741,2.22667 -10.40282,-0.0506 -9.34375,5.0625 -1.14841,3.28064 4.90201,0.5938 3.46875,4.28125 -0.5562,7.3062 1.10838,15.39956 -1.15625,22.25 -2.51383,0.98082 -7.01122,2.38928 -4.90625,6.21875 1.79622,4.27166 7.0543,1.98087 8.5625,-1.25 9.15908,-10.37046 5.29825,-25.02553 6.0625,-37.5625 -0.89583,0.33333 -1.79167,0.66667 -2.6875,1 z m 17.84375,0 c -10.52363,0.10687 -17.14926,13.60475 -10.78125,21.96875 6.03277,9.31688 22.39137,6.39514 24.53125,-4.5625 2.68329,-8.8439 -4.4818,-18.10298 -13.75,-17.40625 z M 363.5,593.40625 c 3.62237,0.62374 3.91429,8.31901 0.25,8.875 -3.09708,-0.77384 -3.55762,-8.08837 -0.25,-8.875 z m 96.53125,0.0937 c 2.32469,0.24778 4.95199,6.27468 1.46875,3.78125 -1.97299,-0.16248 -4.98709,-3.4862 -1.46875,-3.78125 z m -164.65625,0 c 5.68068,1.17747 5.27797,9.28775 4.21875,13.625 -1.13275,4.49399 -7.27382,2.04517 -7.46875,-1.875 -0.92296,-3.58492 -1.61327,-11.00656 3.25,-11.75 z m 214.59375,0 c 5.68068,1.17747 5.27797,9.28775 4.21875,13.625 -1.24253,4.68687 -7.56623,1.79717 -7.5625,-2.25 -0.84454,-3.52284 -1.39106,-10.68695 3.34375,-11.375 z M 179,593.71875 c 2.16762,0.008 3.3506,3.4742 -0.0311,2.26515 -4.17287,1.13253 -2.20975,-1.88357 0.0311,-2.26515 z m 22.78125,0 c 2.16762,0.008 3.3506,3.4742 -0.0311,2.26515 -4.17287,1.13253 -2.20975,-1.88357 0.0311,-2.26515 z m 65.875,0.0625 c 5.82426,-0.49505 3.04051,6.9317 3.59375,10.40625 1.72805,5.7373 -6.8275,4.36343 -7.34375,0.15625 -1.17625,-3.50356 -0.6952,-9.80554 3.75,-10.5625 z m 268.25,0.96875 c 7.04899,0.13737 7.95063,12.06256 2.09375,14.5 -4.58429,1.29033 -4.65101,-4.64634 -3.96875,-7.59375 0.80168,-2.03338 -1.88009,-7.59099 1.875,-6.90625 z m -114.1875,0.0937 c 5.01266,0.58913 1.87137,8.22544 2.8125,11.34375 1.63393,4.47356 -3.74383,3.57748 -6.15625,3.03125 0.18926,-4.33349 -1.0539,-9.75715 0.53125,-13.53125 0.83004,-0.58971 1.80489,-0.80101 2.8125,-0.84375 z M 226.5,595 c 6.27218,0.31593 6.64175,10.24214 2.25,13.28125 -2.92042,1.80749 -7.06206,-0.50657 -5.125,-4.375 0.62523,-3.23655 -1.97022,-8.80319 2.875,-8.90625 z m 111.65625,0 c 5.15282,0.0142 2.16379,7.76465 2.96875,10.71875 2.00496,4.48778 -3.96944,4.69623 -6.0625,3.1875 0.48203,-4.19862 -1.4092,-9.859 0.96875,-13.09375 0.66919,-0.42089 1.35498,-0.67655 2.125,-0.8125 z M 455.25,604 c 1.67612,1.29249 7.58153,2.37911 5.375,5.34375 -3.0793,1.76377 -5.95543,-4.19208 -5.375,-5.34375 z m 99.5625,1.21875 c -5.9994,0.20091 -5.94518,10.1822 0.125,10.1875 7.33331,0.52093 7.12963,-10.83638 -0.125,-10.1875 z m 12.09375,0 c -5.9994,0.20091 -5.94518,10.1822 0.125,10.1875 7.33331,0.52093 7.12963,-10.83638 -0.125,-10.1875 z m 12.09375,0 c -5.9994,0.20091 -5.94518,10.1822 0.125,10.1875 7.33331,0.52093 7.12963,-10.83638 -0.125,-10.1875 z m -426.125,1.4375 c 3.32711,2.60678 2.03845,3.54556 -0.75,2.40625 -0.0672,-0.95699 -0.65511,-5.39414 0.75,-2.40625 z m 210.84375,8.9375 c 2.79206,-0.78463 8.01375,0.5344 5.59375,4.09375 -2.07563,2.78588 -9.85899,2.52054 -9.46875,-1.84375 0.71509,-1.54907 2.14828,-2.39263 3.875,-2.25 z"
         id="path10464"
         inkscape:connector-curvature="0" />
    </g>
    <text
       sodipodi:linespacing="80.000001%"
       id="text10367"
       y="502.85712"
       x="122.57144"
       style="font-size:64px;font-style:normal;font-variant:normal;font-weight:normal;font-stretch:normal;text-align:start;line-height:80.00000119%;letter-spacing:0px;word-spacing:0px;writing-mode:lr-tb;text-anchor:start;fill:#000000;fill-opacity:1;stroke:none;font-family:Adobe Arabic;-inkscape-font-specification:Adobe Arabic"
       xml:space="preserve"><tspan
         y="502.85712"
         x="122.57144"
         id="tspan10369"
         sodipodi:role="line"
         style="font-size:72px">Some days I ask myself why</tspan><tspan
         id="tspan10371"
         y="560.45709"
         x="122.57144"
         sodipodi:role="line"
         style="font-size:72px">I keep doing this job...</tspan></text>
  </g>
</svg>
